<svg width="580" height="529" xmlns="http://www.w3.org/2000/svg" xmlns:xlink="http://www.w3.org/1999/xlink" xml:space="preserve" overflow="hidden"><defs><clipPath id="clip0"><rect x="364" y="-5" width="580" height="529"/></clipPath></defs><g clip-path="url(#clip0)" transform="translate(-364 5)"><path d="M409.382 360.982C407.661 370.747 402.328 385.595 385.59 385.595L295.344 385.595 295.344 402.003 385.59 402.003C418.407 402.003 426.611 369.842 426.611 352.778 426.611 350.603 425.746 348.515 424.208 346.977 422.67 345.438 420.582 344.574 418.407 344.574L213.303 344.574C211.124 344.563 209.025 345.416 207.48 346.955L109.03 445.404 120.596 456.971 216.664 360.978Z" transform="matrix(1 0 0 1.00008 287.669 -5)"/><path d="M511.038 289.527 437.201 363.364 448.767 374.93 516.122 307.576C521.477 314.674 523.923 323.548 522.964 332.39 522.004 341.231 517.708 349.373 510.954 355.16L415.045 451.228 246.124 451.228C243.945 451.217 241.846 452.07 240.301 453.608L182.872 511.038 194.438 522.604 249.487 467.636 418.407 467.636C420.587 467.647 422.685 466.794 424.231 465.255L522.681 366.806C553.201 336.285 536.053 302.894 522.681 289.606 521.153 288.042 519.062 287.152 516.875 287.138 514.685 287.123 512.583 287.98 511.034 289.526Z" transform="matrix(1 0 0 1.00008 287.669 -5)"/><path d="M262.533 385.595 278.941 385.595 278.941 402.003 262.533 402.003Z" transform="matrix(1 0 0 1.00008 287.669 -5)"/><path d="M238.736 164.083C240.457 154.318 245.79 139.47 262.528 139.47L352.773 139.47 352.773 123.062 262.528 123.062C229.711 123.062 221.507 155.223 221.507 172.287 221.507 174.463 222.372 176.55 223.91 178.088 225.448 179.627 227.536 180.491 229.711 180.491L434.815 180.491C436.994 180.502 439.093 179.649 440.638 178.11L539.088 79.6607 527.441 68.0136 431.448 164.082Z" transform="matrix(1 0 0 1.00008 287.669 -5)"/><path d="M131.266 237.92C133.445 237.931 135.544 237.078 137.09 235.539L210.927 161.702 199.361 150.136 131.922 217.49C126.567 210.392 124.124 201.518 125.084 192.676 126.043 183.835 130.336 175.693 137.09 169.906L233.083 73.8381 402.004 73.8381C404.183 73.8491 406.282 72.9957 407.827 71.4574L465.256 14.0284 453.609 2.38136 398.641 57.4297 229.72 57.4297C227.541 57.4188 225.443 58.2721 223.897 59.8104L125.447 158.26C94.927 188.78 112.075 222.172 125.447 235.46 126.982 237.027 129.077 237.914 131.271 237.921Z" transform="matrix(1 0 0 1.00008 287.669 -5)"/><path d="M369.186 123.062 385.595 123.062 385.595 139.47 369.186 139.47Z" transform="matrix(1 0 0 1.00008 287.669 -5)"/><path d="M467.636 196.899 229.716 196.899C225.185 196.899 221.512 200.573 221.512 205.104L221.512 275.579 182.872 314.219C180.561 316.574 179.887 320.082 181.158 323.122 182.429 326.166 185.399 328.151 188.695 328.166L426.615 328.166C428.791 328.166 430.879 327.301 432.417 325.763 433.955 324.225 434.819 322.137 434.819 319.962L434.819 249.487 473.46 210.846C475.771 208.491 476.445 204.983 475.174 201.943 473.903 198.899 470.932 196.914 467.636 196.899ZM420.792 240.301C419.254 241.846 418.4 243.945 418.411 246.124L418.411 311.757 208.469 311.757 235.463 284.764C237.03 283.23 237.916 281.135 237.924 278.941L237.924 213.308 447.865 213.308Z" transform="matrix(1 0 0 1.00008 287.669 -5)"/><path d="M262.533 237.92 393.799 237.92 393.799 254.328 262.533 254.328Z" transform="matrix(1 0 0 1.00008 287.669 -5)"/><path d="M262.533 270.737 328.166 270.737 328.166 287.145 262.533 287.145Z" transform="matrix(1 0 0 1.00008 287.669 -5)"/><path d="M377.391 270.737 393.799 270.737 393.799 287.145 377.391 287.145Z" transform="matrix(1 0 0 1.00008 287.669 -5)"/><path d="M344.574 270.737 360.982 270.737 360.982 287.145 344.574 287.145Z" transform="matrix(1 0 0 1.00008 287.669 -5)"/><path d="M516.861 180.491C510.334 180.491 504.071 183.084 499.457 187.699 494.843 192.314 492.249 198.577 492.249 205.103 492.249 211.629 494.842 217.893 499.457 222.507 504.072 227.121 510.335 229.715 516.861 229.715 523.387 229.715 529.651 227.122 534.265 222.507 538.879 217.892 541.473 211.629 541.473 205.103 541.473 198.577 538.88 192.313 534.265 187.699 529.65 183.085 523.387 180.491 516.861 180.491ZM516.861 213.308C513.543 213.308 510.55 211.308 509.283 208.242 508.012 205.177 508.712 201.65 511.059 199.302 513.407 196.954 516.934 196.255 520 197.526 523.065 198.793 525.065 201.785 525.065 205.104 525.065 207.279 524.201 209.367 522.662 210.905 521.124 212.443 519.036 213.308 516.861 213.308Z" transform="matrix(1 0 0 1.00008 287.669 -5)"/><path d="M114.858 319.962C114.858 326.488 117.451 332.752 122.066 337.366 126.681 341.98 132.944 344.573 139.47 344.573 145.996 344.573 152.26 341.98 156.874 337.366 161.488 332.751 164.082 326.487 164.082 319.962 164.082 313.436 161.489 307.172 156.874 302.557 152.259 297.943 145.996 295.35 139.47 295.35 132.944 295.35 126.68 297.943 122.066 302.557 117.452 307.172 114.858 313.436 114.858 319.962ZM147.675 319.962C147.675 323.28 145.675 326.272 142.609 327.539 139.544 328.81 136.017 328.111 133.669 325.763 131.321 323.415 130.622 319.888 131.893 316.823 133.16 313.757 136.152 311.757 139.47 311.757 141.646 311.757 143.734 312.622 145.272 314.16 146.81 315.698 147.675 317.786 147.675 319.962Z" transform="matrix(1 0 0 1.00008 287.669 -5)"/><path d="M27.4834-1.64083C26.066-0.908316 24.5864-0.355263 23.0444 0.0146268 21.5098 0.395533 19.9129 0.585991 18.2537 0.585991 13.2726 0.585991 9.32075-0.805806 6.40129-3.58931 3.48953-6.3729 2.03556-10.1526 2.03556-14.9288 2.03556-19.7051 3.48962-23.4846 6.40129-26.2684 9.32037-29.052 13.2722-30.4437 18.2537-30.4437 19.9128-30.4437 21.5098-30.2569 23.0444-29.887 24.5863-29.5134 26.066-28.9567 27.4834-28.2169L27.4834-22.0344C26.0477-23.0087 24.6339-23.7229 23.2495-24.1733 21.8614-24.6311 20.4-24.8619 18.8691-24.8619 16.1148-24.8619 13.9502-23.9755 12.379-22.2102 10.8041-20.4522 10.0203-18.0239 10.0203-14.9291 10.0203-11.8415 10.8041-9.41324 12.379-7.6479 13.9502-5.88987 16.1148-5.01086 18.8691-5.01086 20.4-5.01086 21.8614-5.23427 23.2495-5.68477 24.634-6.14259 26.0477-6.86044 27.4834-7.83838Z" transform="matrix(1 0 0 1.00008 353.302 643.18)"/><path d="M20.1147-16.3201C19.4774-16.6132 18.8474-16.8256 18.2248-16.9648 17.6095-17.1113 16.9869-17.1845 16.3642-17.1845 14.5182-17.1845 13.0972-16.5912 12.101-15.4119 11.1121-14.2289 10.6213-12.5331 10.6213-10.3282L10.6213 0.000581322 3.44274 0.000581322 3.44274-22.4291 10.6213-22.4291 10.6213-18.7518C11.537-20.2169 12.5918-21.2863 13.7858-21.9603 14.987-22.6342 16.4228-22.9711 18.093-22.9711 18.3274-22.9711 18.5838-22.9601 18.8694-22.9418 19.1515-22.9198 19.558-22.8759 20.0854-22.81Z" transform="matrix(1 0 0 1.00008 383.408 643.18)"/><path d="M25.8426-11.2805 25.8426-9.22942 9.06769-9.22942C9.24349-7.54828 9.84781-6.2884 10.8843-5.44971 11.9282-4.60731 13.3895-4.18974 15.2648-4.18974 16.7665-4.18974 18.312-4.4095 19.8942-4.84899 21.4765-5.29583 23.1027-5.97704 24.7728-6.8854L24.7728-1.36228C23.0806-0.71767 21.3885-0.234235 19.6891 0.0881172 17.9897 0.417746 16.2939 0.586226 14.6054 0.586226 10.54 0.586226 7.38288-0.442995 5.12707-2.505 2.87829-4.57432 1.75747-7.47146 1.75747-11.1926 1.75747-14.8551 2.85992-17.7303 5.06838-19.8216 7.28425-21.9202 10.3278-22.9714 14.1955-22.9714 17.7189-22.9714 20.5427-21.9056 22.6633-19.7777 24.7803-17.6571 25.8424-14.8259 25.8424-11.2805ZM18.4735-13.6538C18.4735-15.0199 18.0706-16.1187 17.2722-16.95 16.4811-17.7888 15.4446-18.21 14.1663-18.21 12.7672-18.21 11.6355-17.8181 10.7675-17.038 9.90679-16.2542 9.36838-15.1261 9.15592-13.6538Z" transform="matrix(1 0 0 1.00008 403.636 643.18)"/><path d="M13.4932-10.0944C11.9989-10.0944 10.8745-9.83799 10.1236-9.33256 9.36914-8.82347 8.99558-8.07634 8.99558-7.0911 8.99558-6.18278 9.29591-5.46855 9.9039-4.95221 10.5082-4.44311 11.3543-4.19039 12.4384-4.19039 13.7862-4.19039 14.9179-4.67385 15.8372-5.64079 16.7639-6.60766 17.229-7.81634 17.229-9.27406L17.229-10.0945ZM24.4521-12.8046 24.4521-0.00056257 17.2295-0.00056257 17.2295-3.32619C16.2627-1.9674 15.1785-0.97484 13.9771-0.352169 12.7758 0.270502 11.3145 0.585448 9.59669 0.585448 7.27093 0.585448 5.38107-0.0921302 3.92702-1.45096 2.48028-2.8061 1.75878-4.56413 1.75878-6.72505 1.75878-9.3621 2.65977-11.2886 4.46905-12.5119 6.28569-13.7425 9.12788-14.3579 12.9955-14.3579L17.2294-14.3579 17.2294-14.9293C17.2294-16.061 16.779-16.8925 15.8816-17.4198 14.9916-17.9472 13.5962-18.2109 11.6916-18.2109 10.157-18.2109 8.7323-18.0534 7.41373-17.7421 6.09526-17.4381 4.86454-16.9803 3.72187-16.3649L3.72187-21.8294C5.26378-22.2103 6.80578-22.4923 8.35135-22.6791 9.90423-22.8732 11.4499-22.9721 12.9955-22.9721 17.0462-22.9721 19.969-22.17 21.7564-20.5695 23.551-18.9763 24.452-16.3869 24.452-12.8049Z" transform="matrix(1 0 0 1.00008 431.457 643.18)"/><path d="M11.2805-28.8026 11.2805-22.4297 18.6642-22.4297 18.6642-17.3021 11.2805-17.3021 11.2805-7.79375C11.2805-6.74624 11.4856-6.03937 11.8958-5.66948 12.306-5.30689 13.1264-5.12743 14.357-5.12743L18.0489-5.12743 18.0489 0.000206276 11.8958 0.000206276C9.06098 0.000206276 7.05383-0.58947 5.87449-1.77245 4.6915-2.95178 4.10184-4.95885 4.10184-7.79373L4.10184-17.3021 0.541802-17.3021 0.541802-22.4297 4.10184-22.4297 4.10184-28.8026Z" transform="matrix(1 0 0 1.00008 459.139 643.18)"/><path d="M25.8426-11.2805 25.8426-9.22942 9.06769-9.22942C9.24349-7.54828 9.84781-6.2884 10.8843-5.44971 11.9282-4.60731 13.3895-4.18974 15.2648-4.18974 16.7665-4.18974 18.312-4.4095 19.8942-4.84899 21.4765-5.29583 23.1027-5.97704 24.7728-6.8854L24.7728-1.36228C23.0806-0.71767 21.3885-0.234235 19.6891 0.0881172 17.9897 0.417746 16.2939 0.586226 14.6054 0.586226 10.54 0.586226 7.38288-0.442995 5.12707-2.505 2.87829-4.57432 1.75747-7.47146 1.75747-11.1926 1.75747-14.8551 2.85992-17.7303 5.06838-19.8216 7.28425-21.9202 10.3278-22.9714 14.1955-22.9714 17.7189-22.9714 20.5427-21.9056 22.6633-19.7777 24.7803-17.6571 25.8424-14.8259 25.8424-11.2805ZM18.4735-13.6538C18.4735-15.0199 18.0706-16.1187 17.2722-16.95 16.4811-17.7888 15.4446-18.21 14.1663-18.21 12.7672-18.21 11.6355-17.8181 10.7675-17.038 9.90679-16.2542 9.36838-15.1261 9.15592-13.6538Z" transform="matrix(1 0 0 1.00008 478.748 643.18)"/><path d="M18.7083-19.148 18.7083-31.1607 25.9162-31.1607 25.9162 0 18.7083 0 18.7083-3.23768C17.7194-1.91921 16.6316-0.952243 15.4412-0.336885 14.2473 0.278425 12.8701 0.586085 11.3099 0.586085 8.54468 0.586085 6.27387-0.512707 4.49756-2.7102 2.72856-4.90778 1.84589-7.73526 1.84589-11.1927 1.84589-14.6502 2.72857-17.4777 4.49756-19.6752 6.27387-21.8728 8.54468-22.9715 11.3099-22.9715 12.8628-22.9715 14.2326-22.6565 15.4266-22.0339 16.6279-21.4186 17.7194-20.4553 18.7083-19.1478ZM13.9762-4.62995C15.5181-4.62995 16.6901-5.19032 17.4923-6.31475 18.3017-7.43548 18.7083-9.06169 18.7083-11.1933 18.7083-13.3322 18.3017-14.962 17.4923-16.0865 16.6902-17.2072 15.5181-17.7713 13.9762-17.7713 12.4526-17.7713 11.2842-17.2073 10.4748-16.0865 9.67266-14.9621 9.27349-13.3322 9.27349-11.1933 9.27349-9.06169 9.67271-7.43548 10.4748-6.31475 11.2842-5.19036 12.4526-4.62995 13.9762-4.62995Z" transform="matrix(1 0 0 1.00008 506.569 643.18)"/><path d="M15.3825-4.62948C16.9135-4.62948 18.0855-5.18986 18.8986-6.31428 19.708-7.43501 20.1146-9.06122 20.1146-11.1928 20.1146-13.3317 19.708-14.9615 18.8986-16.086 18.0855-17.2068 16.9135-17.7708 15.3825-17.7708 13.8479-17.7708 12.6723-17.2031 11.8518-16.0714 11.0314-14.947 10.6212-13.3208 10.6212-11.1929 10.6212-9.07228 11.0314-7.44608 11.8518-6.31438 12.6723-5.18999 13.8479-4.62957 15.3825-4.62957ZM10.6212-19.1475C11.6065-20.455 12.7016-21.4183 13.9029-22.0336 15.1042-22.6562 16.485-22.9712 18.0489-22.9712 20.8105-22.9712 23.0813-21.8724 24.8613-19.6749 26.6376-17.4774 27.5277-14.6499 27.5277-11.1924 27.5277-7.73496 26.6377-4.90748 24.8613-2.7099 23.0813-0.512313 20.8105 0.586385 18.0489 0.586385 16.485 0.586385 15.1042 0.271402 13.9029-0.351231 12.7015-0.973864 11.6065-1.93711 10.6212-3.23731L10.6212 0.000375046 3.44265 0.000375046 3.44265-31.1604 10.6212-31.1604Z" transform="matrix(1 0 0 1.00008 550.212 643.18)"/><path d="M0.498109-22.4297 7.67669-22.4297 13.698-7.20839 18.8256-22.4297 26.0042-22.4297 16.5699 2.12464C15.6213 4.62254 14.5115 6.36585 13.2443 7.35475 11.9843 8.35097 10.3179 8.84913 8.24854 8.84913L4.10249 8.84913 4.10249 4.14642 6.34396 4.14642C7.56361 4.14642 8.44628 3.94864 8.99563 3.56041 9.55234 3.1795 9.98453 2.48365 10.2995 1.48003L10.4899 0.864716Z" transform="matrix(1 0 0 1.00008 579.575 643.18)"/><path d="M3.76509-29.9015 11.4712-29.9015 11.4712 0 3.76509 0Z" transform="matrix(1 0 0 1.00008 620.596 643.18)"/><path d="M21.5652-21.7264 21.5652-15.881C20.5983-16.5549 19.6204-17.0457 18.6351-17.3606 17.6572-17.6829 16.6427-17.8441 15.5879-17.8441 13.5845-17.8441 12.0205-17.2581 10.8998-16.086 9.78637-14.9213 9.22971-13.2915 9.22971-11.1928 9.22971-9.10146 9.78642-7.4716 10.8998-6.29958 12.0205-5.12756 13.5845-4.54155 15.5879-4.54155 16.7086-4.54155 17.7744-4.70636 18.7816-5.03966 19.7851-5.38028 20.7154-5.87838 21.5652-6.53403L21.5652-0.659304C20.4518-0.249096 19.3127 0.0585541 18.1517 0.263667 16.9979 0.476093 15.8406 0.585973 14.6796 0.585973 10.6361 0.585973 7.47168-0.454219 5.18624-2.53451 2.9008-4.6148 1.75812-7.50097 1.75812-11.1928 1.75812-14.892 2.90089-17.7781 5.18624-19.8512 7.47168-21.9315 10.6361-22.9716 14.6796-22.9716 15.8516-22.9716 17.009-22.8691 18.1517-22.664 19.2944-22.4589 20.4298-22.1439 21.5652-21.7264Z" transform="matrix(1 0 0 1.00008 635.861 643.18)"/><path d="M14.1224-17.8438C12.5292-17.8438 11.3132-17.2724 10.4745-16.1297 9.64308-14.987 9.22924-13.3388 9.22924-11.1926 9.22924-9.04265 9.64311-7.39817 10.4745-6.25549 11.3132-5.11273 12.5292-4.54144 14.1224-4.54144 15.6827-4.54144 16.8766-5.1128 17.697-6.25549 18.5248-7.39826 18.9423-9.04274 18.9423-11.1926 18.9423-13.3389 18.5248-14.987 17.697-16.1297 16.8766-17.2725 15.6827-17.8438 14.1224-17.8438ZM14.1224-22.9714C17.9791-22.9714 20.9933-21.9312 23.1616-19.8509 25.3298-17.7706 26.414-14.8845 26.414-11.1926 26.414-7.50806 25.3299-4.62198 23.1616-2.53428 20.9933-0.4539 17.9791 0.586198 14.1224 0.586198 10.2437 0.586198 7.21111-0.453994 5.02459-2.53428 2.84538-4.62198 1.75756-7.50806 1.75756-11.1926 1.75756-14.8845 2.84538-17.7705 5.02459-19.8509 7.21111-21.9313 10.2437-22.9714 14.1224-22.9714Z" transform="matrix(1 0 0 1.00008 660.177 643.18)"/><path d="M26.0038-13.6536 26.0038 0 18.7813 0 18.7813-10.46C18.7813-12.3939 18.7373-13.7271 18.6494-14.4595 18.5689-15.1921 18.4224-15.7341 18.2099-16.0857 17.9243-16.5546 17.5434-16.9135 17.0672-17.1698 16.5874-17.4335 16.0416-17.5654 15.4263-17.5654 13.932-17.5654 12.7526-16.9867 11.8957-15.8366 11.0459-14.6829 10.6211-13.0824 10.6211-11.0313L10.6211 0.000675084 3.44249 0.000675084 3.44249-22.429 10.6211-22.429 10.6211-19.1473C11.6942-20.4548 12.8369-21.4181 14.0492-22.0334 15.2688-22.656 16.6166-22.971 18.0926-22.971 20.6784-22.971 22.6416-22.1726 23.982-20.583 25.3298-19.0008 26.0037-16.6897 26.0037-13.6535Z" transform="matrix(1 0 0 1.00008 688.357 643.18)"/><path d="M20.9642-21.7264 20.9642-16.2912C19.4296-16.9248 17.9499-17.4046 16.5251-17.7269 15.0967-18.0492 13.7489-18.2103 12.4816-18.2103 11.1119-18.2103 10.0973-18.0382 9.43439-17.6975 8.77879-17.3533 8.4528-16.8332 8.4528-16.1299 8.4528-15.5513 8.70185-15.1081 9.19997-14.7967 9.69807-14.4928 10.5954-14.2693 11.8956-14.1228L13.1556-13.947C16.8255-13.4782 19.2977-12.7054 20.5686-11.6322 21.8358-10.5665 22.473-8.89262 22.473-6.60718 22.473-4.21186 21.5867-2.41717 19.8214-1.21589 18.0633-0.0146174 15.4336 0.586113 11.9396 0.586113 10.4526 0.586113 8.92159 0.468911 7.33945 0.234507 5.75732 0.000103138 4.13102-0.351503 2.46094-0.820311L2.46094-6.27021C3.88565-5.57432 5.35068-5.05421 6.85602-4.7026 8.3577-4.35832 9.88864-4.18984 11.4415-4.18984 12.837-4.18984 13.8881-4.38029 14.5914-4.76121 15.3019-5.14944 15.6608-5.72808 15.6608-6.48998 15.6608-7.13459 15.4154-7.61071 14.9283-7.92566 14.4375-8.23698 13.4669-8.48237 12.0129-8.65817L10.7529-8.81933C7.55918-9.21855 5.32128-9.95469 4.04312-11.0315 2.76121-12.1156 2.12392-13.7602 2.12392-15.9687 2.12392-18.3419 2.93701-20.1 4.57053-21.2427 6.20039-22.3928 8.69454-22.9715 12.0568-22.9715 13.3753-22.9715 14.7598-22.869 16.2175-22.6639 17.6716-22.4661 19.2538-22.1548 20.9642-21.7263Z" transform="matrix(1 0 0 1.00008 717.562 643.18)"/><path d="M11.2805-28.8026 11.2805-22.4297 18.6642-22.4297 18.6642-17.3021 11.2805-17.3021 11.2805-7.79375C11.2805-6.74624 11.4856-6.03937 11.8958-5.66948 12.306-5.30689 13.1264-5.12743 14.357-5.12743L18.0489-5.12743 18.0489 0.000206276 11.8958 0.000206276C9.06098 0.000206276 7.05383-0.58947 5.87449-1.77245 4.6915-2.95178 4.10184-4.95885 4.10184-7.79373L4.10184-17.3021 0.541802-17.3021 0.541802-22.4297 4.10184-22.4297 4.10184-28.8026Z" transform="matrix(1 0 0 1.00008 741.977 643.18)"/><path d="M14.1224-17.8438C12.5292-17.8438 11.3132-17.2724 10.4745-16.1297 9.64308-14.987 9.22924-13.3388 9.22924-11.1926 9.22924-9.04265 9.64311-7.39817 10.4745-6.25549 11.3132-5.11273 12.5292-4.54144 14.1224-4.54144 15.6827-4.54144 16.8766-5.1128 17.697-6.25549 18.5248-7.39826 18.9423-9.04274 18.9423-11.1926 18.9423-13.3389 18.5248-14.987 17.697-16.1297 16.8766-17.2725 15.6827-17.8438 14.1224-17.8438ZM14.1224-22.9714C17.9791-22.9714 20.9933-21.9312 23.1616-19.8509 25.3298-17.7706 26.414-14.8845 26.414-11.1926 26.414-7.50806 25.3299-4.62198 23.1616-2.53428 20.9933-0.4539 17.9791 0.586198 14.1224 0.586198 10.2437 0.586198 7.21111-0.453994 5.02459-2.53428 2.84538-4.62198 1.75756-7.50806 1.75756-11.1926 1.75756-14.8845 2.84538-17.7705 5.02459-19.8509 7.21111-21.9313 10.2437-22.9714 14.1224-22.9714Z" transform="matrix(1 0 0 1.00008 761.586 643.18)"/><path d="M21.5652-21.7264 21.5652-15.881C20.5983-16.5549 19.6204-17.0457 18.6351-17.3606 17.6572-17.6829 16.6427-17.8441 15.5879-17.8441 13.5845-17.8441 12.0205-17.2581 10.8998-16.086 9.78637-14.9213 9.22971-13.2915 9.22971-11.1928 9.22971-9.10146 9.78642-7.4716 10.8998-6.29958 12.0205-5.12756 13.5845-4.54155 15.5879-4.54155 16.7086-4.54155 17.7744-4.70636 18.7816-5.03966 19.7851-5.38028 20.7154-5.87838 21.5652-6.53403L21.5652-0.659304C20.4518-0.249096 19.3127 0.0585541 18.1517 0.263667 16.9979 0.476093 15.8406 0.585973 14.6796 0.585973 10.6361 0.585973 7.47168-0.454219 5.18624-2.53451 2.9008-4.6148 1.75812-7.50097 1.75812-11.1928 1.75812-14.892 2.90089-17.7781 5.18624-19.8512 7.47168-21.9315 10.6361-22.9716 14.6796-22.9716 15.8516-22.9716 17.009-22.8691 18.1517-22.664 19.2944-22.4589 20.4298-22.1439 21.5652-21.7264Z" transform="matrix(1 0 0 1.00008 789.769 643.18)"/><path d="M3.44283-31.1607 10.6214-31.1607 10.6214-14.1955 18.8695-22.4289 27.2055-22.4289 16.2466-12.1442 28.055 0.000750093 19.3674 0.000750093 10.6212-9.34616 10.6212 0.000750093 3.44265 0.000750093Z" transform="matrix(1 0 0 1.00008 814.085 643.18)"/></g></svg>