<svg width="580" height="572" xmlns="http://www.w3.org/2000/svg" xmlns:xlink="http://www.w3.org/1999/xlink" xml:space="preserve" overflow="hidden"><defs><clipPath id="clip0"><rect x="333" y="0" width="580" height="572"/></clipPath></defs><g clip-path="url(#clip0)" transform="translate(-333 0)"><path d="M411.73 370.197C406.32 374.387 400.564 378.223 394.715 381.625 377.965 391.309 366.972 408.586 364.962 427.694L264.8 427.694C262.792 408.674 251.713 391.398 234.874 381.536 186.102 353.094 155.74 300.394 155.74 244.033 155.74 199.884 173.366 158.877 205.383 128.514 237.405 98.151 279.456 82.7944 323.606 85.1523 385.203 88.4662 439.907 128.08 462.941 186.187 464.25 189.328 467.825 190.898 470.966 189.677 474.107 188.368 475.678 184.793 474.457 181.652 449.588 119.094 390.699 76.426 324.212 72.8578 276.573 70.3272 231.292 86.9043 196.827 119.625 162.274 152.341 143.254 196.578 143.254 244.131 143.254 304.946 175.971 361.748 228.498 392.37 241.497 399.962 250.225 413.221 252.141 427.794L249.96 427.794C235.564 427.794 223.871 439.487 223.871 453.883 223.871 461.909 227.534 468.979 233.294 473.775 227.623 478.575 223.871 485.64 223.871 493.666 223.871 508.062 235.564 519.755 249.96 519.755L268.545 519.755C274.651 539.996 293.148 554.308 314.702 554.308 336.252 554.308 354.838 540 360.86 519.755L379.445 519.755C393.841 519.755 405.534 508.062 405.534 493.666 405.534 485.64 401.871 478.571 396.111 473.775 401.782 468.974 405.534 461.909 405.534 453.883 405.534 439.487 393.841 427.794 379.445 427.794L377.264 427.794C379.184 413.137 387.82 399.962 400.734 392.459 407.016 388.796 413.21 384.694 419.054 380.155 421.757 378.062 422.283 374.223 420.187 371.431 418.355 368.639 414.431 368.117 411.723 370.21ZM314.974 541.646C300.228 541.646 287.23 532.66 281.731 519.485L348.217 519.485C342.629 532.659 329.715 541.646 314.974 541.646ZM393.321 493.396C393.321 500.899 387.215 507.093 379.624 507.093L356.415 507.097 250.233 507.097C242.73 507.097 236.536 500.991 236.536 493.4 236.536 485.808 242.642 479.703 250.233 479.703L379.706 479.703C387.214 479.699 393.319 485.893 393.319 493.396ZM393.321 453.698C393.321 461.202 387.215 467.395 379.624 467.395L250.233 467.399C242.73 467.399 236.536 461.294 236.536 453.702 236.536 446.111 242.642 440.005 250.233 440.005L379.706 440.005C387.214 440.001 393.319 446.111 393.319 453.698Z" transform="matrix(1 0 0 1.00099 279.77 -4.3898e-14)"/><path d="M314.968 53.745C318.37 53.745 321.161 50.9534 321.161 47.5512L321.161 27.1343C321.161 23.7321 318.37 20.9405 314.968 20.9405 311.565 20.9405 308.774 23.7321 308.774 27.1343L308.774 47.5512C308.685 51.0417 311.477 53.745 314.968 53.745Z" transform="matrix(1 0 0 1.00099 279.77 -4.3898e-14)"/><path d="M241.948 61.5087C242.82 64.0392 245.262 65.6098 247.793 65.6098 248.492 65.6098 249.19 65.5214 249.885 65.2604 253.115 64.1276 254.77 60.5487 253.549 57.3191L246.567 38.1229C245.439 34.8974 241.86 33.2425 238.634 34.3752 235.405 35.508 233.75 39.0869 234.971 42.3165Z" transform="matrix(1 0 0 1.00099 279.77 -4.3898e-14)"/><path d="M183.921 97.5433C185.142 99.0255 186.89 99.7244 188.633 99.7244 190.031 99.7244 191.425 99.2866 192.646 98.2422 195.265 96.0611 195.614 92.1367 193.429 89.5177L180.342 73.8999C178.161 71.281 174.236 70.9316 171.617 73.1167 168.998 75.2978 168.649 79.2222 170.834 81.8412Z" transform="matrix(1 0 0 1.00099 279.77 -4.3898e-14)"/><path d="M124.074 140.908 141.785 151.114C142.745 151.636 143.793 151.986 144.838 151.986 147.019 151.986 149.027 150.853 150.248 148.845 151.991 145.876 150.947 142.125 147.979 140.381L130.268 130.175C127.3 128.431 123.548 129.476 121.805 132.444 120.146 135.409 121.106 139.249 124.074 140.908Z" transform="matrix(1 0 0 1.00099 279.77 -4.3898e-14)"/><path d="M100.335 212.457 120.403 216.036C120.753 216.124 121.102 216.124 121.452 216.124 124.42 216.124 127.035 214.031 127.557 210.974 128.168 207.572 125.898 204.431 122.496 203.821L102.428 200.242C99.0256 199.631 95.8844 201.901 95.2739 205.303 94.7518 208.617 97.0212 211.846 100.335 212.457Z" transform="matrix(1 0 0 1.00099 279.77 -4.3898e-14)"/><path d="M127.643 276.931C127.032 273.529 123.803 271.348 120.489 271.87L100.42 275.449C97.0182 276.059 94.8371 279.289 95.3593 282.603 95.8815 285.571 98.5004 287.752 101.465 287.752 101.814 287.752 102.164 287.752 102.513 287.664L122.581 284.085C125.984 283.562 128.253 280.333 127.643 276.931Z" transform="matrix(1 0 0 1.00099 279.77 -4.3898e-14)"/><path d="M141.782 336.788 124.071 346.995C121.103 348.738 120.059 352.49 121.802 355.458 122.935 357.466 125.031 358.599 127.212 358.599 128.261 358.599 129.305 358.338 130.265 357.728L147.976 347.521C150.944 345.778 151.988 342.026 150.245 339.058 148.502 336.089 144.746 335.041 141.782 336.788Z" transform="matrix(1 0 0 1.00099 279.77 -4.3898e-14)"/><path d="M485.017 151.982C486.066 151.982 487.11 151.721 488.07 151.111L505.78 140.904C508.749 139.161 509.793 135.409 508.05 132.441 506.307 129.472 502.555 128.428 499.586 130.171L481.876 140.378C478.908 142.121 477.863 145.873 479.607 148.841 480.743 150.85 482.836 151.982 485.017 151.982Z" transform="matrix(1 0 0 1.00099 279.77 -4.3898e-14)"/><path d="M441.129 99.7243C442.873 99.7243 444.62 98.941 445.841 97.5432L458.928 81.9254C461.109 79.3064 460.76 75.382 458.145 73.2009 455.526 71.0198 451.602 71.3693 449.42 73.9842L436.333 89.602C434.152 92.2209 434.502 96.1453 437.117 98.3265 438.338 99.2021 439.736 99.7243 441.129 99.7243Z" transform="matrix(1 0 0 1.00099 279.77 -4.3898e-14)"/><path d="M379.977 65.2609C380.675 65.522 381.374 65.6104 382.069 65.6104 384.6 65.6104 386.954 64.0398 387.914 61.5092L394.895 42.3129C396.028 39.0835 394.373 35.5085 391.232 34.3717 388.002 33.243 384.427 34.8979 383.29 38.1274L376.309 57.3236C375.088 60.5531 376.747 64.0396 379.977 65.2608Z" transform="matrix(1 0 0 1.00099 279.77 -4.3898e-14)"/><path d="M365.58 208.179 338.531 204.254 326.404 179.736C324.223 175.373 319.861 172.582 314.977 172.582 310.093 172.582 305.73 175.285 303.549 179.736L291.423 204.254 264.373 208.179C259.489 208.878 255.56 212.192 254.078 216.903 252.596 221.527 253.817 226.588 257.307 229.991L276.938 249.098 272.314 276.059C271.531 280.859 273.447 285.655 277.375 288.536 281.3 291.416 286.449 291.765 290.811 289.496L315.065 276.758 339.318 289.496C341.238 290.456 343.242 290.978 345.251 290.978 347.87 290.978 350.485 290.195 352.754 288.536 356.679 285.656 358.687 280.86 357.815 276.059L353.192 249.098 372.822 229.99C376.313 226.588 377.534 221.527 376.052 216.903 374.393 212.192 370.38 208.878 365.58 208.179ZM342.022 242.466C340.54 243.864 339.929 245.957 340.279 247.961L344.902 278.497 317.768 264.273C316.897 263.835 315.848 263.574 314.888 263.574 313.928 263.574 312.88 263.835 312.008 264.273L284.349 278.147 289.499 247.957C289.848 245.949 289.149 243.856 287.755 242.462L266.029 220.474 296.303 216.112C298.311 215.851 300.054 214.541 300.926 212.71L314.8 185.051C315.061 185.051 315.061 185.139 315.149 185.223L328.673 212.707C329.545 214.538 331.292 215.759 333.297 216.109L363.832 221.17Z" transform="matrix(1 0 0 1.00099 279.77 -4.3898e-14)"/><path d="M314.968 124.239C250.751 124.239 198.492 176.501 198.492 240.807 198.492 305.023 250.755 357.282 314.968 357.282 379.18 357.278 431.443 305.104 431.443 240.807 431.443 176.591 379.181 124.239 314.968 124.239ZM314.968 344.984C257.556 344.984 210.883 298.304 210.883 240.899 210.883 183.403 257.563 136.722 314.968 136.722 372.379 136.722 419.052 183.489 419.052 240.899 419.052 298.219 372.372 344.984 314.968 344.984Z" transform="matrix(1 0 0 1.00099 279.77 -4.3898e-14)"/><path d="M433.715 355.369C435.547 356.59 437.555 357.113 439.648 357.113 441.48 357.113 443.311 356.675 444.97 355.715L504.825 322.122C509.364 319.592 513.376 315.84 516.252 311.477L620.429 152.595C623.482 147.972 624.53 142.473 623.397 137.066 622.264 131.655 619.123 127.032 614.496 123.979L574.011 97.4558C564.499 91.1735 551.589 93.8768 545.391 103.389L530.296 126.509 441.047 262.275C438.167 266.637 436.335 271.787 435.813 276.932L428.832 345.162C428.394 349.263 430.314 353.187 433.716 355.369ZM441.48 343.504 448.112 278.243C448.2 277.195 448.549 276.235 448.81 275.19L501.161 309.566C500.378 310.177 499.502 310.876 498.631 311.398ZM523.411 159.325 577.765 195.01 509.014 299.887 454.66 264.202ZM537.019 138.475 591.374 174.16 584.481 184.632 530.126 148.947ZM555.604 110.205C557.175 107.763 559.878 106.453 562.586 106.453 564.156 106.453 565.727 106.891 567.125 107.851L607.61 134.374C609.441 135.595 610.751 137.427 611.189 139.608 611.627 141.789 611.189 143.97 609.968 145.89L598.275 163.777 543.92 128.092Z" transform="matrix(1 0 0 1.00099 279.77 -4.3898e-14)"/><path d="M527.949 361.477C474.638 361.477 431.276 404.839 431.276 458.15 431.276 511.461 474.638 554.911 527.949 554.911 581.26 554.911 624.532 511.549 624.532 458.238 624.532 404.927 581.26 361.477 527.949 361.477ZM575.238 527.856 570.088 518.87C568.345 515.902 564.593 514.858 561.625 516.601 558.657 518.344 557.612 522.096 559.356 525.064L564.505 533.966C555.17 538.505 544.959 541.296 534.054 542.079L534.054 531.784C534.054 528.382 531.262 525.59 527.86 525.59 524.458 525.59 521.666 528.382 521.666 531.784L521.666 542.079C510.849 541.296 500.55 538.416 491.304 533.877L496.453 524.976C498.197 522.008 497.152 518.256 494.184 516.513 491.216 514.769 487.464 515.814 485.721 518.782L480.571 527.768C471.846 521.835 464.255 514.243 458.322 505.43L467.307 500.28C470.276 498.537 471.32 494.785 469.577 491.817 467.833 488.849 464.082 487.804 461.113 489.548L452.212 494.697C447.673 485.362 444.882 475.151 444.098 464.334L454.394 464.334C457.796 464.334 460.587 461.543 460.587 458.141 460.587 454.738 457.796 451.947 454.394 451.947L444.098 451.947C444.882 441.129 447.762 430.831 452.301 421.584L461.202 426.734C462.162 427.256 463.21 427.605 464.255 427.605 466.436 427.605 468.444 426.473 469.665 424.464 471.408 421.496 470.364 417.744 467.396 416.001L458.41 410.851C464.343 402.127 471.934 394.535 480.659 388.602L485.809 397.588C486.942 399.596 489.038 400.729 491.22 400.729 492.268 400.729 493.312 400.468 494.272 399.857 497.241 398.114 498.285 394.362 496.542 391.394L491.392 382.493C500.727 377.954 510.938 375.078 521.843 374.29L521.843 384.586C521.843 387.988 524.635 390.779 528.037 390.779 531.439 390.779 534.231 387.988 534.231 384.586L534.231 374.29C545.049 375.074 555.347 377.954 564.682 382.493L559.532 391.394C557.789 394.362 558.833 398.114 561.802 399.857 562.762 400.379 563.81 400.729 564.855 400.729 567.036 400.729 569.044 399.596 570.265 397.588L575.415 388.602C584.139 394.535 591.731 402.126 597.664 410.94L588.679 416.089C585.71 417.833 584.666 421.584 586.409 424.553 587.542 426.561 589.639 427.694 591.82 427.694 592.868 427.694 593.912 427.433 594.872 426.822L603.774 421.673C608.313 431.008 611.104 441.219 611.888 452.035L601.588 452.039C598.186 452.039 595.394 454.831 595.394 458.233 595.394 461.635 598.186 464.427 601.588 464.427L611.883 464.427C611.1 475.245 608.22 485.543 603.681 494.789L594.78 489.64C591.812 487.897 588.06 488.941 586.317 491.909 584.573 494.878 585.618 498.63 588.586 500.373L597.572 505.522C591.554 514.335 583.963 521.923 575.238 527.856Z" transform="matrix(1 0 0 1.00099 279.77 -4.3898e-14)"/><path d="M558.396 452.04 545.309 452.04C543.478 446.806 539.288 442.616 534.055 440.697L534.055 414.608C534.055 411.205 531.263 408.414 527.861 408.414 524.459 408.414 521.667 411.205 521.667 414.608L521.667 440.697C514.425 443.227 509.279 450.12 509.279 458.146 509.279 468.441 517.654 476.731 527.864 476.731 535.89 476.731 542.783 471.497 545.314 464.343L558.401 464.343C561.803 464.343 564.595 461.552 564.595 458.149 564.591 454.743 561.887 452.04 558.397 452.04ZM527.945 464.428C524.543 464.428 521.752 461.636 521.752 458.234 521.752 454.831 524.543 451.951 527.945 451.951 531.348 451.951 534.139 454.743 534.139 458.234 534.139 461.636 531.348 464.428 527.945 464.428Z" transform="matrix(1 0 0 1.00099 279.77 -4.3898e-14)"/><path d="M29.2263-1.75129C27.7159-0.968019 26.1414-0.377591 24.5025 0.0161443 22.8717 0.409787 21.1766 0.610624 19.4092 0.610624 14.1071 0.610624 9.90549-0.867554 6.81257-3.82391 3.71565-6.78027 2.16919-10.797 2.16919-15.8745 2.16919-20.9521 3.71565-24.9686 6.81257-27.9251 9.90549-30.8895 14.1071-32.3757 19.4092-32.3757 21.1767-32.3757 22.8717-32.1749 24.5025-31.7812 26.1414-31.3836 27.7159-30.7931 29.2263-30.0138L29.2263-23.4263C27.7039-24.4626 26.2057-25.2258 24.7275-25.7079 23.2493-26.19 21.6948-26.4309 20.0681-26.4309 17.1438-26.4309 14.8382-25.491 13.1591-23.6192 11.4881-21.7433 10.6526-19.1606 10.6526-15.8748 10.6526-12.5851 11.4881-10.0023 13.1591-8.13052 14.8381-6.2547 17.1438-5.31875 20.0681-5.31875 21.6948-5.31875 23.2494-5.55976 24.7275-6.04176 26.2057-6.53181 27.7039-7.29505 29.2263-8.32335Z" transform="matrix(1 0 0 1.00099 351.751 707.421)"/><path d="M21.3855-17.3525C20.7187-17.6739 20.0559-17.9028 19.3932-18.0434 18.7264-18.192 18.0636-18.2684 17.4009-18.2684 15.4407-18.2684 13.9303-17.6417 12.87-16.3885 11.8176-15.1352 11.2954-13.3357 11.2954-10.99L11.2954 0.0004833 3.66352 0.0004833 3.66352-23.8591 11.2954-23.8591 11.2954-19.9387C12.2675-21.5012 13.3882-22.642 14.6534-23.361 15.9268-24.076 17.4532-24.4375 19.2326-24.4375 19.4896-24.4375 19.7668-24.4255 20.0681-24.4054 20.3653-24.3813 20.7991-24.3331 21.3695-24.2608Z" transform="matrix(1 0 0 1.00099 383.765 707.421)"/><path d="M27.4751-11.9858 27.4751-9.81675 9.65674-9.81675C9.8375-8.02525 10.4802-6.68363 11.5848-5.78387 12.6974-4.89214 14.2439-4.45027 16.2282-4.45027 17.8349-4.45027 19.4778-4.68324 21.1608-5.15722 22.8398-5.63924 24.5711-6.36228 26.3505-7.32631L26.3505-1.44568C24.551-0.770863 22.7435-0.260776 20.9359 0.0807214 19.1364 0.434199 17.3289 0.610932 15.5213 0.610932 11.2033 0.610932 7.8493-0.481634 5.46335-2.66677 3.07338-4.85992 1.88035-7.9408 1.88035-11.9054 1.88035-15.7936 3.05322-18.8504 5.39908-21.0798 7.74483-23.3171 10.9784-24.4378 15.1036-24.4378 18.8513-24.4378 21.8518-23.305 24.1012-21.0476 26.3506-18.7862 27.4753-15.7655 27.4753-11.9857ZM19.6343-14.5245C19.6343-15.9705 19.2085-17.1355 18.365-18.0271 17.5295-18.9148 16.4249-19.3607 15.0551-19.3607 13.5769-19.3607 12.3759-18.9429 11.4561-18.1074 10.5322-17.2799 9.96184-16.087 9.73685-14.5244Z" transform="matrix(1 0 0 1.00099 405.283 707.421)"/><path d="M14.3643-10.7334C12.7656-10.7334 11.5686-10.4602 10.7652-9.91394 9.96189-9.37569 9.56019-8.58435 9.56019-7.536 9.56019-6.57197 9.88153-5.81679 10.5242-5.27056 11.1749-4.72428 12.0747-4.45113 13.2235-4.45113 14.6575-4.45113 15.8625-4.96528 16.8386-5.99358 17.8227-7.02187 18.3168-8.31126 18.3168-9.86574L18.3168-10.7334ZM26.0128-13.6094 26.0128-0.000925468 18.3167-0.000925468 18.3167-3.5357C17.2964-2.08971 16.1476-1.03323 14.8622-0.370496 13.5848 0.280221 12.0344 0.609595 10.2028 0.609595 7.72848 0.609595 5.72001-0.10539 4.17756-1.54345 2.64314-2.98945 1.87993-4.85735 1.87993-7.15086 1.87993-9.95462 2.83593-12.0112 4.75598-13.3207 6.68404-14.6261 9.70466-15.2808 13.8179-15.2808L18.3167-15.2808 18.3167-15.8753C18.3167-17.0723 17.8387-17.9519 16.8867-18.5103 15.9307-19.0766 14.4485-19.3618 12.4361-19.3618 10.8054-19.3618 9.28697-19.1931 7.87306-18.8638 6.46717-18.5424 5.16576-18.0524 3.96871-17.4016L3.96871-23.2179C5.59548-23.6115 7.23438-23.9128 8.88521-24.1176 10.5321-24.3305 12.179-24.439 13.8179-24.439 18.1238-24.439 21.2288-23.5874 23.1368-21.8843 25.0528-20.1892 26.0128-17.4337 26.0128-13.6097Z" transform="matrix(1 0 0 1.00099 434.866 707.421)"/><path d="M11.9858-30.6237 11.9858-23.8595 19.8587-23.8595 19.8587-18.3967 11.9858-18.3967 11.9858-8.29044C11.9858-7.17382 12.2027-6.41863 12.6446-6.025 13.0945-5.63939 13.9702-5.44658 15.2796-5.44658L19.1839-5.44658 19.1839 0.00020566 12.6446 0.00020566C9.63198 0.00020566 7.5031-0.626418 6.24981-1.87963 4.99652-3.14094 4.36998-5.27784 4.36998-8.29044L4.36998-18.3967 0.578129-18.3967 0.578129-23.8595 4.36998-23.8595 4.36998-30.6237Z" transform="matrix(1 0 0 1.00099 464.305 707.421)"/><path d="M27.4751-11.9858 27.4751-9.81675 9.65674-9.81675C9.8375-8.02525 10.4802-6.68363 11.5848-5.78387 12.6974-4.89214 14.2439-4.45027 16.2282-4.45027 17.8349-4.45027 19.4778-4.68324 21.1608-5.15722 22.8398-5.63924 24.5711-6.36228 26.3505-7.32631L26.3505-1.44568C24.551-0.770863 22.7435-0.260776 20.9359 0.0807214 19.1364 0.434199 17.3289 0.610932 15.5213 0.610932 11.2033 0.610932 7.8493-0.481634 5.46335-2.66677 3.07338-4.85992 1.88035-7.9408 1.88035-11.9054 1.88035-15.7936 3.05322-18.8504 5.39908-21.0798 7.74483-23.3171 10.9784-24.4378 15.1036-24.4378 18.8513-24.4378 21.8518-23.305 24.1012-21.0476 26.3506-18.7862 27.4753-15.7655 27.4753-11.9857ZM19.6343-14.5245C19.6343-15.9705 19.2085-17.1355 18.365-18.0271 17.5295-18.9148 16.4249-19.3607 15.0551-19.3607 13.5769-19.3607 12.3759-18.9429 11.4561-18.1074 10.5322-17.2799 9.96184-16.087 9.73685-14.5244Z" transform="matrix(1 0 0 1.00099 485.161 707.421)"/><path d="M19.8914-20.3572 19.8914-33.1472 27.5554-33.1472 27.5554-0.0010283 19.8914-0.0010283 19.8914-3.45549C18.839-2.0496 17.6822-1.02131 16.4209-0.370598 15.1556 0.280119 13.6935 0.609493 12.0346 0.609493 9.09828 0.609493 6.68424-0.555363 4.78827-2.89309 2.90042-5.22682 1.96045-8.2314 1.96045-11.9067 1.96045-15.5781 2.90038-18.5827 4.78827-20.9204 6.68424-23.2661 9.09828-24.4391 12.0346-24.4391 13.6815-24.4391 15.1395-24.1057 16.4048-23.443 17.6782-22.7762 18.839-21.7479 19.8914-20.3581ZM14.8624-4.91629C16.5013-4.91629 17.7465-5.51077 18.606-6.69977 19.4616-7.89681 19.8914-9.63206 19.8914-11.9055 19.8914-14.175 19.4616-15.9062 18.606-17.0952 17.7464-18.2923 16.5012-18.8948 14.8624-18.8948 13.2437-18.8948 12.0065-18.2922 11.1509-17.0952 10.2913-15.9063 9.86549-14.1751 9.86549-11.9055 9.86549-9.63206 10.2913-7.89681 11.1509-6.69977 12.0064-5.51085 13.2437-4.91629 14.8624-4.91629Z" transform="matrix(1 0 0 1.00099 514.748 707.421)"/><path d="M16.3561-4.9165C17.995-4.9165 19.2402-5.51098 20.0997-6.69998 20.9553-7.89702 21.3851-9.63227 21.3851-11.9057 21.3851-14.1752 20.9553-15.9064 20.0997-17.0954 19.2401-18.2925 17.9949-18.895 16.3561-18.895 14.7253-18.895 13.472-18.2924 12.5964-17.0954 11.7288-15.8944 11.295-14.1632 11.295-11.9057 11.295-9.6443 11.7288-7.91306 12.5964-6.71602 13.4721-5.51497 14.7253-4.9165 16.3561-4.9165ZM11.2949-20.3574C12.3433-21.7473 13.5041-22.7756 14.7815-23.4423 16.0548-24.1051 17.521-24.4385 19.1838-24.4385 22.1281-24.4385 24.5422-23.2656 26.4301-20.9197 28.314-18.582 29.2579-15.5774 29.2579-11.9061 29.2579-8.23075 28.314-5.22617 26.4301-2.89245 24.5423-0.554715 22.1281 0.61014 19.1838 0.61014 17.5209 0.61014 16.0547 0.280766 14.7815-0.369951 13.5041-1.03272 12.3433-2.06099 11.2949-3.45484L11.2949-0.00038047 3.663-0.00038047 3.663-33.1465 11.2949-33.1465Z" transform="matrix(1 0 0 1.00099 561.162 707.421)"/><path d="M0.530211-23.8596 8.16213-23.8596 14.573-7.6639 20.0197-23.8596 27.6517-23.8596 17.6097 2.26534C16.6015 4.90837 15.4286 6.76414 14.091 7.82452 12.7494 8.8849 10.978 9.4152 8.77274 9.4152L4.37039 9.4152 4.37039 4.40225 6.74833 4.40225C8.04172 4.40225 8.9857 4.19739 9.57615 3.79169 10.1626 3.38198 10.6205 2.64288 10.9418 1.57448L11.1668 0.91573Z" transform="matrix(1 0 0 1.00099 592.389 707.421)"/><path d="M12.211-25.5954 12.211-6.20269 15.1513-6.20269C18.4933-6.20269 21.048-7.03015 22.8154-8.69313 24.5908-10.3521 25.4826-12.7661 25.4826-15.9394 25.4826-19.0886 24.5989-21.4826 22.8315-23.1215 21.0722-24.7684 18.5135-25.5958 15.1513-25.5958ZM4.00069-31.7972 12.6448-31.7972C17.4729-31.7972 21.072-31.4518 23.4419-30.7689 25.8078-30.0821 27.8322-28.9132 29.5152-27.2663 31.0135-25.8284 32.1222-24.1734 32.8412-22.3016 33.5682-20.4258 33.9337-18.3049 33.9337-15.939 33.9337-13.537 33.5682-11.396 32.8412-9.51216 32.1221-7.62431 31.0136-5.96536 29.5152-4.5313 27.8122-2.8924 25.7636-1.72353 23.3775-1.02871 20.9996-0.341837 17.4206-0.000411319 12.6442-0.000411319L4.00008-0.000411319Z" transform="matrix(1 0 0 1.00099 636.015 707.421)"/><path d="M27.4751-11.9858 27.4751-9.81675 9.65674-9.81675C9.8375-8.02525 10.4802-6.68363 11.5848-5.78387 12.6974-4.89214 14.2439-4.45027 16.2282-4.45027 17.8349-4.45027 19.4778-4.68324 21.1608-5.15722 22.8398-5.63924 24.5711-6.36228 26.3505-7.32631L26.3505-1.44568C24.551-0.770863 22.7435-0.260776 20.9359 0.0807214 19.1364 0.434199 17.3289 0.610932 15.5213 0.610932 11.2033 0.610932 7.8493-0.481634 5.46335-2.66677 3.07338-4.85992 1.88035-7.9408 1.88035-11.9054 1.88035-15.7936 3.05322-18.8504 5.39908-21.0798 7.74483-23.3171 10.9784-24.4378 15.1036-24.4378 18.8513-24.4378 21.8518-23.305 24.1012-21.0476 26.3506-18.7862 27.4753-15.7655 27.4753-11.9857ZM19.6343-14.5245C19.6343-15.9705 19.2085-17.1355 18.365-18.0271 17.5295-18.9148 16.4249-19.3607 15.0551-19.3607 13.5769-19.3607 12.3759-18.9429 11.4561-18.1074 10.5322-17.2799 9.96184-16.087 9.73685-14.5244Z" transform="matrix(1 0 0 1.00099 672.226 707.421)"/><path d="M22.3017-23.1048 22.3017-17.3206C20.6709-17.9955 19.0963-18.5015 17.5779-18.847 16.0555-19.1885 14.6216-19.3612 13.2719-19.3612 11.8259-19.3612 10.7494-19.1764 10.0425-18.8149 9.3355-18.4494 8.98208-17.8911 8.98208-17.1439 8.98208-16.5334 9.24718-16.0594 9.78544-15.73 10.3197-15.4087 11.2716-15.1717 12.6453-15.0231L13.995-14.8303C17.9033-14.3241 20.5263-13.5047 21.8678-12.372 23.2175-11.2352 23.8923-9.45185 23.8923-7.02168 23.8923-4.48302 22.9524-2.57511 21.0806-1.30177 19.2047-0.0244221 16.409 0.610243 12.6936 0.610243 11.119 0.610243 9.48815 0.485727 7.80915 0.240694 6.12613-0.00432913 4.39489-0.373879 2.61943-0.867914L2.61943-6.66813C4.13782-5.92904 5.69631-5.37073 7.295-4.99715 8.88968-4.63162 10.5124-4.45086 12.1634-4.45086 13.6496-4.45086 14.7703-4.6517 15.5214-5.06141 16.2806-5.47916 16.6622-6.09372 16.6622-6.90916 16.6622-7.58398 16.3971-8.08605 15.8749-8.41953 15.3607-8.7489 14.3244-9.01401 12.774-9.20681L11.4404-9.36748C8.04214-9.79326 5.6642-10.5806 4.30654-11.7294 2.94487-12.8862 2.26599-14.6375 2.26599-16.9834 2.26599-19.5099 3.12558-21.3857 4.85277-22.6069 6.58803-23.828 9.24309-24.4385 12.8221-24.4385 14.224-24.4385 15.6981-24.3301 17.2406-24.1172 18.791-23.9003 20.4781-23.5629 22.3018-23.1049Z" transform="matrix(1 0 0 1.00099 701.814 707.421)"/><path d="M3.66331-23.8596 11.2952-23.8596 11.2952 0 3.66331 0ZM3.66331-33.1464 11.2952-33.1464 11.2952-26.9283 3.66331-26.9283Z" transform="matrix(1 0 0 1.00099 727.779 707.421)"/><path d="M19.8914-4.04892C18.839-2.65506 17.6822-1.63078 16.4209-0.980071 15.1556-0.325333 13.6935 2.0566e-05 12.0346 2.0566e-05 9.11843 2.0566e-05 6.70831-1.14478 4.80441-3.4384 2.90844-5.72801 1.96055-8.65218 1.96055-12.211 1.96055-15.7658 2.90852-18.6861 4.80441-20.9676 6.70841-23.2492 9.11843-24.3899 12.0346-24.3899 13.6935-24.3899 15.1557-24.0605 16.4209-23.4098 17.6822-22.755 18.839-21.7268 19.8914-20.3249L19.8914-23.8597 27.5554-23.8597 27.5554-2.41039C27.5554 1.42166 26.3423 4.35385 23.9243 6.37837 21.5021 8.40288 17.9955 9.41503 13.4007 9.41503 11.9105 9.41503 10.4684 9.30256 9.07863 9.07763 7.68478 8.85269 6.28701 8.50323 4.88513 8.03329L4.88513 2.08849C6.21071 2.85972 7.51213 3.43011 8.78948 3.8077 10.0748 4.18126 11.3602 4.37006 12.6456 4.37006 15.1521 4.37006 16.9838 3.82378 18.1406 2.73116 19.3055 1.63859 19.8919-0.0725978 19.8919-2.41033ZM14.8624-18.8955C13.2879-18.8955 12.0586-18.309 11.183-17.1442 10.3034-15.9753 9.86559-14.3324 9.86559-12.2115 9.86559-10.0144 10.2874-8.35543 11.1349-7.23068 11.9905-6.10593 13.2317-5.54366 14.8625-5.54366 16.4572-5.54366 17.6943-6.12207 18.574-7.27891 19.4497-8.44376 19.8915-10.0907 19.8915-12.2115 19.8915-14.3324 19.4496-15.9753 18.574-17.1442 17.6944-18.309 16.4572-18.8955 14.8625-18.8955Z" transform="matrix(1 0 0 1.00099 742.733 707.421)"/><path d="M27.652-14.5247 27.652 0 19.9718 0 19.9718-11.118C19.9718-13.1746 19.9236-14.5925 19.8272-15.3757 19.7388-16.155 19.5862-16.7334 19.3613-17.111 19.06-17.601 18.6543-17.9866 18.1402-18.2678 17.634-18.545 17.0556-18.6856 16.4049-18.6856 14.8062-18.6856 13.553-18.067 12.6452-16.8378 11.7455-15.6047 11.2956-13.9015 11.2956-11.7284L11.2956 0.000359904 3.66368 0.000359904 3.66368-23.8592 11.2956-23.8592 11.2956-20.3566C12.4404-21.7465 13.6575-22.7748 14.9429-23.4415 16.2363-24.1043 17.6662-24.4377 19.2328-24.4377 21.9843-24.4377 24.073-23.5902 25.4991-21.899 26.933-20.204 27.6521-17.7456 27.6521-14.5242Z" transform="matrix(1 0 0 1.00099 773.96 707.421)"/><path d="M29.2263-1.75129C27.7159-0.968019 26.1414-0.377591 24.5025 0.0161443 22.8717 0.409787 21.1766 0.610624 19.4092 0.610624 14.1071 0.610624 9.90549-0.867554 6.81257-3.82391 3.71565-6.78027 2.16919-10.797 2.16919-15.8745 2.16919-20.9521 3.71565-24.9686 6.81257-27.9251 9.90549-30.8895 14.1071-32.3757 19.4092-32.3757 21.1767-32.3757 22.8717-32.1749 24.5025-31.7812 26.1414-31.3836 27.7159-30.7931 29.2263-30.0138L29.2263-23.4263C27.7039-24.4626 26.2057-25.2258 24.7275-25.7079 23.2493-26.19 21.6948-26.4309 20.0681-26.4309 17.1438-26.4309 14.8382-25.491 13.1591-23.6192 11.4881-21.7433 10.6526-19.1606 10.6526-15.8748 10.6526-12.5851 11.4881-10.0023 13.1591-8.13052 14.8381-6.2547 17.1438-5.31875 20.0681-5.31875 21.6948-5.31875 23.2494-5.55976 24.7275-6.04176 26.2057-6.53181 27.7039-7.29505 29.2263-8.32335Z" transform="matrix(1 0 0 1.00099 820.205 707.421)"/><path d="M3.66331-23.8596 11.2952-23.8596 11.2952 0 3.66331 0ZM3.66331-33.1464 11.2952-33.1464 11.2952-26.9283 3.66331-26.9283Z" transform="matrix(1 0 0 1.00099 852.223 707.421)"/><path d="M21.3855-17.3525C20.7187-17.6739 20.0559-17.9028 19.3932-18.0434 18.7264-18.192 18.0636-18.2684 17.4009-18.2684 15.4407-18.2684 13.9303-17.6417 12.87-16.3885 11.8176-15.1352 11.2954-13.3357 11.2954-10.99L11.2954 0.0004833 3.66352 0.0004833 3.66352-23.8591 11.2954-23.8591 11.2954-19.9387C12.2675-21.5012 13.3882-22.642 14.6534-23.361 15.9268-24.076 17.4532-24.4375 19.2326-24.4375 19.4896-24.4375 19.7668-24.4255 20.0681-24.4054 20.3653-24.3813 20.7991-24.3331 21.3695-24.2608Z" transform="matrix(1 0 0 1.00099 867.173 707.421)"/><path d="M22.9434-23.1048 22.9434-16.8868C21.903-17.6018 20.8587-18.128 19.8103-18.4613 18.7699-18.8028 17.6894-18.9755 16.5647-18.9755 14.4439-18.9755 12.7889-18.3529 11.6-17.1117 10.4111-15.8665 9.81654-14.1313 9.81654-11.9059 9.81654-9.67659 10.411-7.94134 11.6-6.70018 12.7889-5.45502 14.4439-4.83639 16.5647-4.83639 17.7618-4.83639 18.8985-5.01314 19.971-5.3666 21.0395-5.72008 22.0316-6.24226 22.9434-6.94113L22.9434-0.707078C21.7423-0.265229 20.5252 0.0561142 19.2961 0.273013 18.075 0.497953 16.8459 0.610418 15.6168 0.610418 11.3108 0.610418 7.94072-0.490169 5.51054-2.69947 3.08839-4.90465 1.87942-7.9735 1.87942-11.9059 1.87942-15.8343 3.08849-18.9032 5.51054-21.1124 7.94072-23.3296 11.3108-24.4383 15.6168-24.4383 16.8579-24.4383 18.083-24.3258 19.2961-24.1009 20.5172-23.876 21.7303-23.5426 22.9434-23.1047Z" transform="matrix(1 0 0 1.00099 888.687 707.421)"/><path d="M3.66331-33.1461 11.2952-33.1461 11.2952 0 3.66331 0Z" transform="matrix(1 0 0 1.00099 914.547 707.421)"/><path d="M27.4751-11.9858 27.4751-9.81675 9.65674-9.81675C9.8375-8.02525 10.4802-6.68363 11.5848-5.78387 12.6974-4.89214 14.2439-4.45027 16.2282-4.45027 17.8349-4.45027 19.4778-4.68324 21.1608-5.15722 22.8398-5.63924 24.5711-6.36228 26.3505-7.32631L26.3505-1.44568C24.551-0.770863 22.7435-0.260776 20.9359 0.0807214 19.1364 0.434199 17.3289 0.610932 15.5213 0.610932 11.2033 0.610932 7.8493-0.481634 5.46335-2.66677 3.07338-4.85992 1.88035-7.9408 1.88035-11.9054 1.88035-15.7936 3.05322-18.8504 5.39908-21.0798 7.74483-23.3171 10.9784-24.4378 15.1036-24.4378 18.8513-24.4378 21.8518-23.305 24.1012-21.0476 26.3506-18.7862 27.4753-15.7655 27.4753-11.9857ZM19.6343-14.5245C19.6343-15.9705 19.2085-17.1355 18.365-18.0271 17.5295-18.9148 16.4249-19.3607 15.0551-19.3607 13.5769-19.3607 12.3759-18.9429 11.4561-18.1074 10.5322-17.2799 9.96184-16.087 9.73685-14.5244Z" transform="matrix(1 0 0 1.00099 929.502 707.421)"/><path d="M19.3608-33.1461 19.3608-28.1332 15.1511-28.1332C14.0666-28.1332 13.3114-27.9324 12.8857-27.5387 12.4559-27.1531 12.243-26.4783 12.243-25.5142L12.243-23.8593 18.7663-23.8593 18.7663-18.3964 12.243-18.3964 12.243 0.000843204 4.62724 0.000843204 4.62724-18.3964 0.835389-18.3964 0.835389-23.8593 4.62724-23.8593 4.62724-25.5142C4.62724-28.117 5.35025-30.0371 6.79633-31.2823 8.24232-32.5235 10.4837-33.1461 13.5285-33.1461Z" transform="matrix(1 0 0 1.00099 351.751 751.087)"/><path d="M11.9858-30.6237 11.9858-23.8595 19.8587-23.8595 19.8587-18.3967 11.9858-18.3967 11.9858-8.29044C11.9858-7.17382 12.2027-6.41863 12.6446-6.025 13.0945-5.63939 13.9702-5.44658 15.2796-5.44658L19.1839-5.44658 19.1839 0.00020566 12.6446 0.00020566C9.63198 0.00020566 7.5031-0.626418 6.24981-1.87963 4.99652-3.14094 4.36998-5.27784 4.36998-8.29044L4.36998-18.3967 0.578129-18.3967 0.578129-23.8595 4.36998-23.8595 4.36998-30.6237Z" transform="matrix(1 0 0 1.00099 482.859 751.087)"/><path d="M27.652-14.5247 27.652 0 19.9718 0 19.9718-11.0707C19.9718-13.1593 19.9236-14.5934 19.8272-15.3766 19.7388-16.1559 19.5862-16.7343 19.3613-17.1119 19.06-17.6019 18.6543-17.9876 18.1402-18.2687 17.634-18.5459 17.0556-18.6865 16.4049-18.6865 14.8062-18.6865 13.553-18.0679 12.6452-16.8387 11.7455-15.6056 11.2956-13.9024 11.2956-11.7293L11.2956-0.000565564 3.66368-0.000565564 3.66368-33.1467 11.2956-33.1467 11.2956-20.3567C12.4404-21.7466 13.6575-22.7749 14.9429-23.4416 16.2363-24.1044 17.6662-24.4378 19.2328-24.4378 21.9843-24.4378 24.073-23.5903 25.4991-21.8991 26.933-20.2041 27.6521-17.7457 27.6521-14.5243Z" transform="matrix(1 0 0 1.00099 503.714 751.087)"/><path d="M4.00069-31.797 13.1589-31.797 24.7273-9.99403 24.7273-31.797 32.5038-31.797 32.5038 0 23.3455 0 11.7772-21.8194 11.7772 0 4.00069 0Z" transform="matrix(1 0 0 1.00099 579.547 751.087)"/><path d="M4.00069-31.797 17.6092-31.797C21.6581-31.797 24.7631-30.8973 26.9281-29.0977 29.0892-27.3062 30.1736-24.7515 30.1736-21.4337 30.1736-18.0918 29.0891-15.521 26.9281-13.7215 24.7631-11.93 21.6581-11.0383 17.6092-11.0383L12.2106-11.0383 12.2106-0.000514149 4.00028-0.000514149ZM12.211-25.8522 12.211-16.9832 16.7419-16.9832C18.3246-16.9832 19.5537-17.3688 20.4213-18.14 21.2888-18.9112 21.7227-20.0078 21.7227-21.4337 21.7227-22.8476 21.2889-23.9322 20.4213-24.6954 19.5536-25.4666 18.3245-25.8522 16.7419-25.8522Z" transform="matrix(1 0 0 1.00099 723.328 751.087)"/><path d="M3.66331-23.8596 11.2952-23.8596 11.2952-0.433942C11.2952 2.76746 10.524 5.20966 8.98156 6.89268 7.44714 8.57168 5.22591 9.4152 2.31367 9.4152L-1.44599 9.4152-1.44599 4.40225-0.128537 4.40225C1.31746 4.40225 2.30565 4.07287 2.84386 3.42215 3.39014 2.76742 3.66329 1.48206 3.66329-0.433962ZM3.66331-33.1464 11.2952-33.1464 11.2952-26.9283 3.66331-26.9283Z" transform="matrix(1 0 0 1.00099 806.785 751.087)"/><path d="M11.9858-30.6237 11.9858-23.8595 19.8587-23.8595 19.8587-18.3967 11.9858-18.3967 11.9858-8.29044C11.9858-7.17382 12.2027-6.41863 12.6446-6.025 13.0945-5.63939 13.9702-5.44658 15.2796-5.44658L19.1839-5.44658 19.1839 0.00020566 12.6446 0.00020566C9.63198 0.00020566 7.5031-0.626418 6.24981-1.87963 4.99652-3.14094 4.36998-5.27784 4.36998-8.29044L4.36998-18.3967 0.578129-18.3967 0.578129-23.8595 4.36998-23.8595 4.36998-30.6237Z" transform="matrix(1 0 0 1.00099 877.187 751.087)"/></g></svg>