<svg width="525" height="521" xmlns="http://www.w3.org/2000/svg" xmlns:xlink="http://www.w3.org/1999/xlink" xml:space="preserve" overflow="hidden"><defs><clipPath id="clip0"><rect x="349" y="0" width="525" height="521"/></clipPath></defs><g clip-path="url(#clip0)" transform="translate(-349 0)"><path d="M368.599 496.807 368.599 432.703C368.599 426.328 366.066 420.211 361.559 415.704 357.051 411.198 350.934 408.664 344.56 408.664L341.498 408.664C348.127 402.926 352.115 394.723 352.538 385.967 352.956 377.21 349.772 368.663 343.723 362.318 337.674 355.972 329.289 352.38 320.521 352.38 311.754 352.38 303.369 355.971 297.319 362.318 291.27 368.664 288.086 377.21 288.505 385.967 288.927 394.724 292.916 402.927 299.545 408.664L296.482 408.664C290.108 408.664 283.99 411.197 279.484 415.704 274.977 420.212 272.444 426.329 272.444 432.703L272.444 496.807C272.444 498.932 273.288 500.971 274.79 502.473 276.293 503.976 278.332 504.82 280.457 504.82L360.587 504.82C362.712 504.82 364.751 503.976 366.253 502.473 367.756 500.971 368.6 498.932 368.6 496.807ZM320.521 368.599C324.77 368.599 328.849 370.287 331.853 373.292 334.858 376.297 336.547 380.375 336.547 384.625 336.547 388.875 334.858 392.953 331.853 395.957 328.849 398.962 324.77 400.651 320.521 400.651 316.271 400.651 312.193 398.962 309.188 395.957 306.183 392.953 304.495 388.875 304.495 384.625 304.495 380.375 306.183 376.297 309.188 373.292 312.193 370.287 316.271 368.599 320.521 368.599ZM352.573 488.794 288.469 488.794 288.469 432.703C288.469 428.278 292.057 424.69 296.482 424.69L344.56 424.69C346.685 424.69 348.724 425.534 350.226 427.037 351.728 428.539 352.573 430.578 352.573 432.703Z" transform="matrix(1 0 0 1.00059 287.845 -3.90788e-14)"/><path d="M544.885 232.377 541.823 232.377C548.452 226.64 552.44 218.437 552.863 209.68 553.281 200.923 550.097 192.376 544.048 186.031 537.999 179.685 529.614 176.093 520.846 176.093 512.079 176.093 503.694 179.685 497.644 186.031 491.595 192.377 488.411 200.923 488.83 209.68 489.252 218.437 493.241 226.64 499.87 232.377L496.807 232.377C490.433 232.377 484.315 234.91 479.809 239.417 475.302 243.925 472.769 250.042 472.769 256.416L472.769 320.52C472.769 322.645 473.613 324.684 475.115 326.187 476.618 327.689 478.657 328.533 480.782 328.533L560.912 328.533C563.037 328.533 565.076 327.689 566.578 326.187 568.081 324.684 568.925 322.645 568.925 320.52L568.925 256.416C568.925 250.041 566.392 243.924 561.885 239.417 557.378 234.911 551.26 232.377 544.886 232.377ZM520.846 192.312C525.096 192.312 529.174 194.001 532.179 197.006 535.184 200.011 536.872 204.089 536.872 208.338 536.872 212.588 535.184 216.666 532.179 219.671 529.174 222.676 525.096 224.364 520.846 224.364 516.596 224.364 512.518 222.676 509.513 219.671 506.509 216.666 504.82 212.588 504.82 208.338 504.82 204.089 506.509 200.011 509.513 197.006 512.518 194.001 516.596 192.312 520.846 192.312ZM552.898 312.508 488.794 312.508 488.794 256.417C488.794 251.992 492.382 248.404 496.807 248.404L544.885 248.404C547.01 248.404 549.049 249.248 550.551 250.75 552.054 252.253 552.898 254.292 552.898 256.417Z" transform="matrix(1 0 0 1.00059 287.845 -3.90788e-14)"/><path d="M80.1302 328.534 160.26 328.534C162.385 328.534 164.424 327.689 165.927 326.187 167.429 324.685 168.273 322.646 168.273 320.521L168.273 256.417C168.273 250.042 165.741 243.924 161.233 239.418 156.726 234.911 150.609 232.378 144.235 232.378L141.173 232.378C147.801 226.64 151.79 218.437 152.212 209.68 152.631 200.923 149.447 192.377 143.398 186.032 137.349 179.686 128.964 176.094 120.196 176.094 111.428 176.094 103.043 179.685 96.9939 186.032 90.9447 192.378 87.761 200.924 88.1795 209.68 88.6017 218.438 92.5903 226.641 99.2192 232.378L96.157 232.378C89.7824 232.378 83.665 234.911 79.1584 239.418 74.6519 243.925 72.1184 250.043 72.1184 256.417L72.1184 320.521C72.1184 322.646 72.9627 324.685 74.4651 326.187 75.9675 327.689 78.0066 328.534 80.1314 328.534ZM120.195 192.312C124.445 192.312 128.523 194.001 131.528 197.006 134.533 200.011 136.221 204.089 136.221 208.338 136.221 212.588 134.533 216.666 131.528 219.671 128.523 222.676 124.445 224.364 120.195 224.364 115.946 224.364 111.867 222.676 108.863 219.671 105.858 216.666 104.169 212.588 104.169 208.338 104.169 204.089 105.858 200.011 108.863 197.006 111.867 194.001 115.946 192.312 120.195 192.312ZM88.1432 256.417C88.1432 251.992 91.7312 248.404 96.1562 248.404L144.234 248.404C146.359 248.404 148.398 249.248 149.901 250.75 151.403 252.253 152.247 254.292 152.247 256.417L152.247 312.508 88.1432 312.508Z" transform="matrix(1 0 0 1.00059 287.845 -3.90788e-14)"/><path d="M272.443 88.1432 272.443 152.247C272.443 154.372 273.287 156.411 274.789 157.914 276.292 159.416 278.331 160.26 280.456 160.26L360.586 160.26C362.711 160.26 364.75 159.416 366.252 157.914 367.754 156.411 368.599 154.372 368.599 152.247L368.599 88.1432C368.599 81.7686 366.066 75.6511 361.559 71.1446 357.051 66.6381 350.934 64.1046 344.56 64.1046L341.498 64.1046C348.127 58.3667 352.115 50.1638 352.538 41.4071 352.956 32.6501 349.772 24.1036 343.723 17.7582 337.674 11.4122 329.289 7.82025 320.521 7.82025 311.754 7.82025 303.369 11.4118 297.319 17.7582 291.27 24.1043 288.086 32.6505 288.505 41.4071 288.927 50.1642 292.916 58.3673 299.545 64.1046L296.482 64.1046C290.108 64.1046 283.99 66.6372 279.484 71.1446 274.977 75.6519 272.444 81.7694 272.444 88.1432ZM320.521 24.039C324.77 24.039 328.849 25.7276 331.853 28.7324 334.858 31.7372 336.547 35.8153 336.547 40.0651 336.547 44.3148 334.858 48.3929 331.853 51.3978 328.849 54.4026 324.77 56.0911 320.521 56.0911 316.271 56.0911 312.193 54.4026 309.188 51.3978 306.183 48.3929 304.495 44.3148 304.495 40.0651 304.495 35.8153 306.183 31.7372 309.188 28.7324 312.193 25.7276 316.271 24.039 320.521 24.039ZM344.56 80.1302C346.685 80.1302 348.724 80.9744 350.226 82.4768 351.728 83.9793 352.573 86.0183 352.573 88.1432L352.573 144.234 288.469 144.234 288.469 88.1432C288.469 83.7182 292.057 80.1302 296.482 80.1302Z" transform="matrix(1 0 0 1.00059 287.845 -3.90788e-14)"/><path d="M120.195 64.1041C115.77 64.1041 112.182 67.6921 112.182 72.1171L112.182 152.247 128.208 152.247 128.208 80.1302 248.404 80.1302 248.404 64.1041Z" transform="matrix(1 0 0 1.00059 287.845 -3.90788e-14)"/><path d="M112.182 344.56 112.182 440.716C112.182 442.841 113.026 444.88 114.529 446.382 116.031 447.885 118.07 448.729 120.195 448.729L248.404 448.729 248.404 432.703 128.208 432.703 128.208 344.56Z" transform="matrix(1 0 0 1.00059 287.845 -3.90788e-14)"/><path d="M520.846 448.729C522.971 448.729 525.01 447.885 526.512 446.382 528.015 444.88 528.859 442.841 528.859 440.716L528.859 352.573 512.833 352.573 512.833 432.703 392.638 432.703 392.638 448.729Z" transform="matrix(1 0 0 1.00059 287.845 -3.90788e-14)"/><path d="M528.859 152.247 528.859 72.1171C528.859 69.9923 528.015 67.9532 526.512 66.4508 525.01 64.9484 522.971 64.1041 520.846 64.1041L392.638 64.1041 392.638 80.1302 512.833 80.1302 512.833 152.247Z" transform="matrix(1 0 0 1.00059 287.845 -3.90788e-14)"/><path d="M320.521 176.286C299.268 176.286 278.889 184.729 263.861 199.757 248.833 214.785 240.39 235.164 240.39 256.417 240.39 277.669 248.833 298.048 263.861 313.076 278.889 328.104 299.268 336.547 320.521 336.547 341.773 336.547 362.153 328.104 377.18 313.076 392.208 298.048 400.651 277.669 400.651 256.417 400.626 235.171 392.176 214.803 377.156 199.781 362.135 184.76 341.766 176.311 320.521 176.286ZM320.521 320.521C303.518 320.521 287.213 313.767 275.194 301.744 263.17 289.724 256.417 273.419 256.417 256.417 256.417 239.414 263.17 223.109 275.194 211.089 287.213 199.066 303.518 192.312 320.521 192.312 337.523 192.312 353.828 199.066 365.848 211.089 377.871 223.109 384.625 239.414 384.625 256.417 384.607 273.412 377.846 289.707 365.827 301.723 353.811 313.742 337.516 320.503 320.521 320.521Z" transform="matrix(1 0 0 1.00059 287.845 -3.90788e-14)"/><path d="M280.456 232.377 360.586 232.377 360.586 248.404 280.456 248.404Z" transform="matrix(1 0 0 1.00059 287.845 -3.90788e-14)"/><path d="M280.456 264.43 360.586 264.43 360.586 280.456 280.456 280.456Z" transform="matrix(1 0 0 1.00059 287.845 -3.90788e-14)"/><path d="M26.8431-1.6026C25.4588-0.887155 24.0136-0.346986 22.5075 0.0142861 21.0087 0.386319 19.449 0.57234 17.8285 0.57234 12.9634 0.57234 9.10361-0.787034 6.25217-3.50569 3.40823-6.22444 1.98814-9.9161 1.98814-14.5811 1.98814-19.246 3.40832-22.9375 6.25217-25.6564 9.10324-28.3752 12.963-29.7344 17.8285-29.7344 19.4489-29.7344 21.0087-29.552 22.5075-29.1907 24.0135-28.8258 25.4588-28.2821 26.8431-27.5595L26.8431-21.5211C25.4409-22.4727 24.06-23.1702 22.7079-23.6102 21.3521-24.0573 19.9248-24.2827 18.4295-24.2827 15.7394-24.2827 13.6252-23.417 12.0906-21.6928 10.5524-19.9757 9.78687-17.604 9.78687-14.5813 9.78687-11.5656 10.5524-9.19395 12.0906-7.46973 13.6252-5.75266 15.7394-4.89412 18.4295-4.89412 19.9248-4.89412 21.3521-5.11233 22.7079-5.55233 24.0601-5.99949 25.4409-6.70062 26.8431-7.65577Z" transform="matrix(1 0 0 1.00059 351.949 633.402)"/><path d="M19.6461-15.9399C19.0236-16.2261 18.4083-16.4336 17.8003-16.5695 17.1993-16.7126 16.5912-16.7842 15.983-16.7842 14.18-16.7842 12.7921-16.2047 11.8191-15.0528 10.8532-13.8974 10.3739-12.2411 10.3739-10.0876L10.3739 0.000567779 3.36254 0.000567779 3.36254-21.9066 10.3739-21.9066 10.3739-18.315C11.2682-19.7459 12.2985-20.7904 13.4646-21.4487 14.6379-22.1069 16.0402-22.436 17.6715-22.436 17.9004-22.436 18.1508-22.4252 18.4299-22.4074 18.7053-22.3859 19.1024-22.343 19.6175-22.2786Z" transform="matrix(1 0 0 1.00059 381.354 633.402)"/><path d="M25.2405-11.0177 25.2405-9.01441 8.85644-9.01441C9.02815-7.37243 9.61839-6.14191 10.6308-5.32275 11.6503-4.49998 13.0776-4.09213 14.9092-4.09213 16.3759-4.09213 17.8854-4.30677 19.4308-4.73603 20.9762-5.17245 22.5645-5.8378 24.1956-6.725L24.1956-1.33055C22.5429-0.700951 20.8903-0.228778 19.2304 0.0860644 17.5706 0.408014 15.9143 0.572569 14.2652 0.572569 10.2945 0.572569 7.21089-0.432675 5.00763-2.44664 2.81124-4.46776 1.71653-7.2974 1.71653-10.9318 1.71653-14.509 2.79329-17.3172 4.9503-19.3598 7.11455-21.4096 10.0872-22.4362 13.8648-22.4362 17.3061-22.4362 20.0641-21.3953 22.1353-19.3169 24.203-17.2457 25.2404-14.4805 25.2404-11.0177ZM18.0431-13.3357C18.0431-14.67 17.6496-15.7431 16.8698-16.5552 16.0971-17.3744 15.0848-17.7858 13.8363-17.7858 12.4698-17.7858 11.3645-17.403 10.5166-16.6411 9.676-15.8755 9.15013-14.7737 8.94262-13.3357Z" transform="matrix(1 0 0 1.00059 401.111 633.402)"/><path d="M13.1789-9.85921C11.7193-9.85921 10.6211-9.60881 9.88779-9.11515 9.15087-8.61791 8.78602-7.8882 8.78602-6.9259 8.78602-6.03875 9.07935-5.34116 9.67318-4.83684 10.2634-4.3396 11.0898-4.09277 12.1486-4.09277 13.465-4.09277 14.5704-4.56496 15.4683-5.50938 16.3733-6.45373 16.8277-7.63425 16.8277-9.05801L16.8277-9.85931ZM23.8825-12.5063 23.8825-0.000549464 16.8282-0.000549464 16.8282-3.24871C15.8838-1.92157 14.8249-0.952129 13.6515-0.343964 12.4781 0.264201 11.0509 0.571809 9.37312 0.571809 7.10155 0.571809 5.25571-0.0899839 3.83553-1.41716 2.42249-2.74073 1.71781-4.4578 1.71781-6.56838 1.71781-9.144 2.59781-11.0256 4.36494-12.2204 6.13925-13.4224 8.91524-14.0234 12.6928-14.0234L16.8281-14.0234 16.8281-14.5815C16.8281-15.6868 16.3881-16.4989 15.5116-17.014 14.6424-17.5291 13.2794-17.7866 11.4192-17.7866 9.92039-17.7866 8.52887-17.6328 7.24102-17.3287 5.95326-17.0318 4.75121-16.5847 3.63516-15.9837L3.63516-21.3209C5.14115-21.6929 6.64723-21.9684 8.15679-22.1508 9.6735-22.3404 11.1831-22.437 12.6927-22.437 16.6491-22.437 19.5038-21.6536 21.2495-20.0903 23.0024-18.5342 23.8824-16.0051 23.8824-12.5066Z" transform="matrix(1 0 0 1.00059 428.284 633.402)"/><path d="M11.0177-28.1316 11.0177-21.9072 18.2294-21.9072 18.2294-16.899 11.0177-16.899 11.0177-7.61218C11.0177-6.58908 11.218-5.89868 11.6186-5.53741 12.0193-5.18326 12.8206-5.00798 14.0225-5.00798L17.6284-5.00798 17.6284 0.00020147 11.6186 0.00020147C8.8499 0.00020147 6.8895-0.575737 5.73764-1.73116 4.58221-2.88302 4.00628-4.84332 4.00628-7.61216L4.00628-16.899 0.52918-16.899 0.52918-21.9072 4.00628-21.9072 4.00628-28.1316Z" transform="matrix(1 0 0 1.00059 455.32 633.402)"/><path d="M25.2405-11.0177 25.2405-9.01441 8.85644-9.01441C9.02815-7.37243 9.61839-6.14191 10.6308-5.32275 11.6503-4.49998 13.0776-4.09213 14.9092-4.09213 16.3759-4.09213 17.8854-4.30677 19.4308-4.73603 20.9762-5.17245 22.5645-5.8378 24.1956-6.725L24.1956-1.33055C22.5429-0.700951 20.8903-0.228778 19.2304 0.0860644 17.5706 0.408014 15.9143 0.572569 14.2652 0.572569 10.2945 0.572569 7.21089-0.432675 5.00763-2.44664 2.81124-4.46776 1.71653-7.2974 1.71653-10.9318 1.71653-14.509 2.79329-17.3172 4.9503-19.3598 7.11455-21.4096 10.0872-22.4362 13.8648-22.4362 17.3061-22.4362 20.0641-21.3953 22.1353-19.3169 24.203-17.2457 25.2404-14.4805 25.2404-11.0177ZM18.0431-13.3357C18.0431-14.67 17.6496-15.7431 16.8698-16.5552 16.0971-17.3744 15.0848-17.7858 13.8363-17.7858 12.4698-17.7858 11.3645-17.403 10.5166-16.6411 9.676-15.8755 9.15013-14.7737 8.94262-13.3357Z" transform="matrix(1 0 0 1.00059 474.473 633.402)"/><path d="M18.2724-18.7019 18.2724-30.4348 25.3124-30.4348 25.3124 0 18.2724 0 18.2724-3.16226C17.3066-1.8745 16.2442-0.930059 15.0815-0.329037 13.9154 0.271939 12.5703 0.572432 11.0464 0.572432 8.34562 0.572432 6.12771-0.500763 4.39278-2.64706 2.66499-4.79345 1.80288-7.55506 1.80288-10.932 1.80288-14.3089 2.665-17.0705 4.39278-19.2169 6.12771-21.3633 8.34562-22.4364 11.0464-22.4364 12.5631-22.4364 13.9011-22.1287 15.0672-21.5206 16.2405-20.9196 17.3066-19.9788 18.2724-18.7018ZM13.6506-4.52209C15.1566-4.52209 16.3013-5.06941 17.0848-6.16764 17.8753-7.26227 18.2724-8.85058 18.2724-10.9325 18.2724-13.0216 17.8754-14.6135 17.0848-15.7117 16.3013-16.8064 15.1566-17.3573 13.6506-17.3573 12.1625-17.3573 11.0213-16.8064 10.2307-15.7117 9.44733-14.6135 9.05746-13.0217 9.05746-10.9325 9.05746-8.85058 9.44737-7.26227 10.2307-6.16764 11.0213-5.06945 12.1625-4.52209 13.6506-4.52209Z" transform="matrix(1 0 0 1.00059 501.646 633.402)"/><path d="M15.0242-4.52163C16.5195-4.52163 17.6642-5.06895 18.4583-6.16718 19.2489-7.26181 19.646-8.85012 19.646-10.932 19.646-13.0211 19.2489-14.613 18.4583-15.7113 17.6642-16.8059 16.5195-17.3568 15.0242-17.3568 13.5253-17.3568 12.377-16.8024 11.5757-15.697 10.7744-14.5988 10.3738-13.0105 10.3738-10.9321 10.3738-8.86093 10.7744-7.27261 11.5757-6.16727 12.377-5.06908 13.5253-4.52172 15.0242-4.52172ZM10.3738-18.7015C11.3361-19.9785 12.4057-20.9194 13.579-21.5203 14.7523-22.1284 16.1009-22.4361 17.6285-22.4361 20.3257-22.4361 22.5436-21.3629 24.2821-19.2166 26.017-17.0702 26.8864-14.3086 26.8864-10.9317 26.8864-7.55476 26.0171-4.79316 24.2821-2.64677 22.5436-0.500379 20.3257 0.572725 17.6285 0.572725 16.1009 0.572725 14.7524 0.26508 13.579-0.343049 12.4056-0.951177 11.3361-1.89199 10.3738-3.16189L10.3738 0.000366309 3.36244 0.000366309 3.36244-30.4344 10.3738-30.4344Z" transform="matrix(1 0 0 1.00059 544.272 633.402)"/><path d="M0.486505-21.9071 7.49785-21.9071 13.3789-7.04046 18.387-21.9071 25.3984-21.9071 16.1839 2.07514C15.2574 4.51485 14.1735 6.21755 12.9357 7.18342 11.7051 8.15643 10.0775 8.64298 8.05638 8.64298L4.00692 8.64298 4.00692 4.04982 6.19617 4.04982C7.38741 4.04982 8.24951 3.85665 8.78607 3.47747 9.32981 3.10543 9.75193 2.42579 10.0595 1.44555L10.2456 0.844572Z" transform="matrix(1 0 0 1.00059 572.951 633.402)"/><path d="M3.67738-29.2049 11.2039-29.2049 11.2039-18.5444 22.0641-29.2049 30.8069-29.2049 16.7415-15.3822 32.2529 3.25348e-15 22.8378 3.25348e-15 11.2048-11.5039 11.2048 3.25348e-15 3.6782 3.25348e-15Z" transform="matrix(1 0 0 1.00059 613.016 633.402)"/><path d="M13.1789-9.85921C11.7193-9.85921 10.6211-9.60881 9.88779-9.11515 9.15087-8.61791 8.78602-7.8882 8.78602-6.9259 8.78602-6.03875 9.07935-5.34116 9.67318-4.83684 10.2634-4.3396 11.0898-4.09277 12.1486-4.09277 13.465-4.09277 14.5704-4.56496 15.4683-5.50938 16.3733-6.45373 16.8277-7.63425 16.8277-9.05801L16.8277-9.85931ZM23.8825-12.5063 23.8825-0.000549464 16.8282-0.000549464 16.8282-3.24871C15.8838-1.92157 14.8249-0.952129 13.6515-0.343964 12.4781 0.264201 11.0509 0.571809 9.37312 0.571809 7.10155 0.571809 5.25571-0.0899839 3.83553-1.41716 2.42249-2.74073 1.71781-4.4578 1.71781-6.56838 1.71781-9.144 2.59781-11.0256 4.36494-12.2204 6.13925-13.4224 8.91524-14.0234 12.6928-14.0234L16.8281-14.0234 16.8281-14.5815C16.8281-15.6868 16.3881-16.4989 15.5116-17.014 14.6424-17.5291 13.2794-17.7866 11.4192-17.7866 9.92039-17.7866 8.52887-17.6328 7.24102-17.3287 5.95326-17.0318 4.75121-16.5847 3.63516-15.9837L3.63516-21.3209C5.14115-21.6929 6.64723-21.9684 8.15679-22.1508 9.6735-22.3404 11.1831-22.437 12.6927-22.437 16.6491-22.437 19.5038-21.6536 21.2495-20.0903 23.0024-18.5342 23.8824-16.0051 23.8824-12.5066Z" transform="matrix(1 0 0 1.00059 644.063 633.402)"/><path d="M23.6672-18.2724C24.5544-19.6247 25.6061-20.6549 26.8295-21.3632 28.0493-22.0786 29.3908-22.4364 30.8503-22.4364 33.3687-22.4364 35.2861-21.6565 36.6024-20.104 37.9189-18.5586 38.577-16.3014 38.577-13.3359L38.577-0.000366309 31.537-0.000366309 31.537-11.4191C31.5442-11.5909 31.5549-11.7661 31.5657-11.9486 31.5728-12.1274 31.58-12.3922 31.58-12.7356 31.58-14.2881 31.351-15.4149 30.8931-16.1125 30.4352-16.8065 29.6948-17.157 28.6752-17.157 27.3481-17.157 26.3214-16.6061 25.5988-15.5115 24.8726-14.4133 24.497-12.8285 24.4683-10.7609L24.4683-0.000549464 17.4283-0.000549464 17.4283-11.4193C17.4283-13.8518 17.2173-15.4151 16.7987-16.1127 16.3874-16.8066 15.6469-17.1572 14.5808-17.1572 13.2357-17.1572 12.1948-16.6027 11.4615-15.4974 10.7353-14.3992 10.374-12.8251 10.374-10.7754L10.374-0.000457887 3.31975-0.000457887 3.31975-21.9076 10.374-21.9076 10.374-18.7024C11.2326-19.9401 12.2199-20.8702 13.336-21.4926 14.4522-22.1222 15.6755-22.437 17.0134-22.437 18.5301-22.437 19.8645-22.0685 21.0199-21.3352 22.1825-20.609 23.0661-19.5896 23.667-18.2731Z" transform="matrix(1 0 0 1.00059 671.099 633.402)"/><path d="M3.36263-21.9071 10.374-21.9071 10.374 0 3.36263 0ZM3.36263-30.4353 10.374-30.4353 10.374-24.726 3.36263-24.726Z" transform="matrix(1 0 0 1.00059 712.849 633.402)"/><path d="M25.3981-13.3355 25.3981 0 18.3438 0 18.3438-10.2164C18.3438-12.1051 18.3008-13.4073 18.215-14.1227 18.1363-14.8381 17.9932-15.3676 17.7857-15.711 17.5067-16.1689 17.1347-16.5195 16.6696-16.7698 16.201-17.0274 15.6679-17.1562 15.067-17.1562 13.6074-17.1562 12.4556-16.591 11.6185-15.4677 10.7886-14.3408 10.3736-12.7776 10.3736-10.7743L10.3736 0.000659357 3.36229 0.000659357 3.36229-21.9065 10.3736-21.9065 10.3736-18.7013C11.4217-19.9783 12.5379-20.9192 13.7219-21.5201 14.9131-22.1282 16.2295-22.4359 17.6712-22.4359 20.1967-22.4359 22.1141-21.656 23.4233-20.1035 24.7397-18.5581 25.3979-16.3009 25.3979-13.3354Z" transform="matrix(1 0 0 1.00059 726.582 633.402)"/><path d="M29.9348-2.17496C28.0532-1.25919 26.1036-0.572358 24.0825-0.114472 22.0578 0.343415 19.9758 0.572358 17.8295 0.572358 12.9644 0.572358 9.10462-0.787015 6.25317-3.50567 3.40924-6.22442 1.98915-9.91608 1.98915-14.581 1.98915-19.2815 3.43433-22.984 6.32479-25.6848 9.22239-28.382 13.1931-29.7342 18.2298-29.7342 20.1759-29.7342 22.036-29.5518 23.8104-29.1905 25.5918-28.8256 27.2768-28.2819 28.8614-27.5593L28.8614-21.5209C27.2302-22.4438 25.6061-23.1378 23.9964-23.5957 22.3831-24.0536 20.7662-24.2825 19.1456-24.2825 16.1479-24.2825 13.8405-23.4419 12.2201-21.7641 10.596-20.0829 9.7876-17.6897 9.7876-14.581 9.7876-11.4903 10.5674-9.10063 12.1343-7.41222 13.6975-5.73096 15.919-4.89385 18.8022-4.89385 19.582-4.89385 20.3082-4.94035 20.9772-5.03694 21.6533-5.12994 22.2578-5.28376 22.7944-5.49482L22.7944-11.1755 18.187-11.1755 18.187-16.2122 29.9345-16.2122Z" transform="matrix(1 0 0 1.00059 769.051 633.402)"/><path d="M3.36263-21.9071 10.374-21.9071 10.374 0 3.36263 0ZM3.36263-30.4353 10.374-30.4353 10.374-24.726 3.36263-24.726Z" transform="matrix(1 0 0 1.00059 801.937 633.402)"/><path d="M25.3981-13.3355 25.3981 0 18.3438 0 18.3438-10.2164C18.3438-12.1051 18.3008-13.4073 18.215-14.1227 18.1363-14.8381 17.9932-15.3676 17.7857-15.711 17.5067-16.1689 17.1347-16.5195 16.6696-16.7698 16.201-17.0274 15.6679-17.1562 15.067-17.1562 13.6074-17.1562 12.4556-16.591 11.6185-15.4677 10.7886-14.3408 10.3736-12.7776 10.3736-10.7743L10.3736 0.000659357 3.36229 0.000659357 3.36229-21.9065 10.3736-21.9065 10.3736-18.7013C11.4217-19.9783 12.5379-20.9192 13.7219-21.5201 14.9131-22.1282 16.2295-22.4359 17.6712-22.4359 20.1967-22.4359 22.1141-21.656 23.4233-20.1035 24.7397-18.5581 25.3979-16.3009 25.3979-13.3354Z" transform="matrix(1 0 0 1.00059 815.67 633.402)"/><path d="M3.36263-30.4348 10.374-30.4348 10.374-13.8648 18.4299-21.9064 26.5717-21.9064 15.8682-11.8613 27.4014 0.000732619 18.9162 0.000732619 10.3738-9.12843 10.3738 0.000732619 3.36244 0.000732619Z" transform="matrix(1 0 0 1.00059 844.195 633.402)"/><path d="M13.1789-9.85921C11.7193-9.85921 10.6211-9.60881 9.88779-9.11515 9.15087-8.61791 8.78602-7.8882 8.78602-6.9259 8.78602-6.03875 9.07935-5.34116 9.67318-4.83684 10.2634-4.3396 11.0898-4.09277 12.1486-4.09277 13.465-4.09277 14.5704-4.56496 15.4683-5.50938 16.3733-6.45373 16.8277-7.63425 16.8277-9.05801L16.8277-9.85931ZM23.8825-12.5063 23.8825-0.000549464 16.8282-0.000549464 16.8282-3.24871C15.8838-1.92157 14.8249-0.952129 13.6515-0.343964 12.4781 0.264201 11.0509 0.571809 9.37312 0.571809 7.10155 0.571809 5.25571-0.0899839 3.83553-1.41716 2.42249-2.74073 1.71781-4.4578 1.71781-6.56838 1.71781-9.144 2.59781-11.0256 4.36494-12.2204 6.13925-13.4224 8.91524-14.0234 12.6928-14.0234L16.8281-14.0234 16.8281-14.5815C16.8281-15.6868 16.3881-16.4989 15.5116-17.014 14.6424-17.5291 13.2794-17.7866 11.4192-17.7866 9.92039-17.7866 8.52887-17.6328 7.24102-17.3287 5.95326-17.0318 4.75121-16.5847 3.63516-15.9837L3.63516-21.3209C5.14115-21.6929 6.64723-21.9684 8.15679-22.1508 9.6735-22.3404 11.1831-22.437 12.6927-22.437 16.6491-22.437 19.5038-21.6536 21.2495-20.0903 23.0024-18.5342 23.8824-16.0051 23.8824-12.5066Z" transform="matrix(1 0 0 1.00059 870.838 633.402)"/><path d="M25.2405-11.0177 25.2405-9.01441 8.85644-9.01441C9.02815-7.37243 9.61839-6.14191 10.6308-5.32275 11.6503-4.49998 13.0776-4.09213 14.9092-4.09213 16.3759-4.09213 17.8854-4.30677 19.4308-4.73603 20.9762-5.17245 22.5645-5.8378 24.1956-6.725L24.1956-1.33055C22.5429-0.700951 20.8903-0.228778 19.2304 0.0860644 17.5706 0.408014 15.9143 0.572569 14.2652 0.572569 10.2945 0.572569 7.21089-0.432675 5.00763-2.44664 2.81124-4.46776 1.71653-7.2974 1.71653-10.9318 1.71653-14.509 2.79329-17.3172 4.9503-19.3598 7.11455-21.4096 10.0872-22.4362 13.8648-22.4362 17.3061-22.4362 20.0641-21.3953 22.1353-19.3169 24.203-17.2457 25.2404-14.4805 25.2404-11.0177ZM18.0431-13.3357C18.0431-14.67 17.6496-15.7431 16.8698-16.5552 16.0971-17.3744 15.0848-17.7858 13.8363-17.7858 12.4698-17.7858 11.3645-17.403 10.5166-16.6411 9.676-15.8755 9.15013-14.7737 8.94262-13.3357Z" transform="matrix(1 0 0 1.00059 897.875 633.402)"/><path d="M1.40223-21.9071 8.2133-21.9071 11.8907-6.81152 15.5967-21.9071 21.4348-21.9071 25.1122-6.96903 28.8182-21.9071 35.6293-21.9071 29.8484 0 22.2074 0 18.5014-15.0672 14.824 0 7.18296 0Z" transform="matrix(1 0 0 1.00059 925.048 633.402)"/></g></svg>