<?xml version="1.0" encoding="UTF-8"?>
<svg width="1200pt" height="1200pt" version="1.1" viewBox="0 0 1200 1200" xmlns="http://www.w3.org/2000/svg">
 <g>
  <path d="m175.7 469.87c60.07 0 108.95 48.949 108.95 109.11 0 60.168-48.875 109.12-108.95 109.12-60.254 0-109.26-48.949-109.26-109.12 0-29.137 11.34-56.52 31.934-77.113 20.629-20.641 48.086-31.992 77.328-31.992m0-24c-73.766 0-133.27 59.664-133.26 133.11 0 73.609 59.508 133.12 133.26 133.12 73.285 0 132.95-59.508 132.95-133.12 0-73.441-59.664-133.11-132.95-133.11z"/>
  <path d="m1024.3 445.87c-73.273 0-132.96 59.664-132.96 133.11 0 73.609 59.688 133.12 132.96 133.12 73.754 0 133.41-59.508 133.41-133.12 0-73.441-59.676-133.11-133.41-133.11z"/>
  <path d="m211.6 767.27c27.898 0 48.758 12.266 61.453 22.691 2.3516 2.0391 4.7148 3.3242 6.5508 4.1523 20.762 14.34 37.633 35.375 55.5 57.684 34.043 42.168 79.414 98.34 178.07 126.37-9.0703 18.973-12.852 39.996-10.609 61.043 0.22656 1.9453 0.50391 3.8867 0.83984 5.8203-60.539-15.742-111.5-42.156-154.88-80.102l-39.805-34.801v245.87l-266.21 0.003906v-311.72c0-53.484 43.586-96.996 97.164-97.008h71.93m0-24h-71.941c-66.637 0.011719-121.15 54.395-121.15 121.01v335.72h314.22v-217c45.875 40.129 110.7 78.289 210.34 94.945-8.3281-12.109-14.844-25.754-16.656-41.496-3.0234-28.32 7.8711-54.527 26.363-73.598-112.68-21.516-158.87-76.465-198.98-126.16-19.535-24.371-38.16-47.543-62.844-63.898-0.75781-0.45703-1.6562-0.45703-2.2695-1.0664-21.055-17.426-47.707-28.465-77.07-28.465z"/>
  <path d="m1060.5 743.28h-72.098c-29.219 0-56.016 11.051-76.906 28.477-0.74219 0.60156-1.6797 0.60156-2.2695 1.043-24.695 16.355-43.309 39.383-63 63.926-44.062 54.516-94.031 116.75-233.81 132.2-31.633 3.625-54.336 32.09-50.867 63.742 3.168 29.531 28.164 51.336 57.227 51.336 2.125 0 4.2461-0.17969 6.5156-0.30078 118.41-13.176 191.72-55.273 242.15-99.949v216.25h314.05l0.003906-335.73c-0.011718-66.613-54.527-121-121-121z"/>
 </g>
</svg>
