<svg height="512" viewBox="0 0 64 64" width="512" xmlns="http://www.w3.org/2000/svg"><path d="M32 40c4.411 0 8-3.589 8-8s-3.589-8-8-8-8 3.589-8 8 3.589 8 8 8zm0-14c3.309 0 6 2.691 6 6s-2.691 6-6 6-6-2.691-6-6 2.691-6 6-6z"/><path d="M32 36c2.206 0 4-1.794 4-4s-1.794-4-4-4-4 1.794-4 4 1.794 4 4 4zm0-6c1.103 0 2 .897 2 2s-.897 2-2 2-2-.897-2-2 .897-2 2-2z"/><path d="M25.43 43.814l1.748-.836c.156.069.313.135.471.196L28.292 45h7.415l.645-1.826c.157-.062.314-.127.471-.196l1.748.836 5.244-5.244-.836-1.748c.069-.156.135-.313.196-.471L45 35.708v-7.415l-1.826-.645a13.424 13.424 0 00-.196-.471l.836-1.748-5.244-5.244-1.748.836a10.64 10.64 0 00-.471-.196L35.708 19h-7.415l-.645 1.826c-.157.062-.314.127-.471.196l-1.748-.836-5.244 5.244.836 1.748a10.64 10.64 0 00-.196.471L19 28.292v7.415l1.826.645c.062.157.127.314.196.471l-.836 1.748zM21 34.292v-4.585l1.392-.491.157-.458c.131-.383.292-.769.478-1.147l.213-.435-.638-1.334 3.242-3.242 1.334.638.435-.213a9.951 9.951 0 011.147-.478l.458-.157.49-1.39h4.585l.491 1.392.458.157c.383.131.769.292 1.147.478l.435.213 1.334-.638 3.242 3.242-.638 1.334.213.435c.186.378.346.764.478 1.147l.157.458 1.39.49v4.585l-1.392.491-.157.458a9.777 9.777 0 01-.478 1.147l-.213.435.638 1.334-3.242 3.242-1.334-.638-.435.213a9.951 9.951 0 01-1.147.478l-.458.157-.49 1.39h-4.585l-.491-1.392-.458-.157a9.777 9.777 0 01-1.147-.478l-.435-.213-1.334.638-3.242-3.242.638-1.334-.213-.435a9.951 9.951 0 01-.478-1.147l-.157-.458zM14 47H4c-1.654 0-3 1.346-3 3v10c0 1.654 1.346 3 3 3h10c1.654 0 3-1.346 3-3V50c0-1.654-1.346-3-3-3zm1 13c0 .551-.449 1-1 1H4c-.551 0-1-.449-1-1V50c0-.551.449-1 1-1h10c.551 0 1 .449 1 1zm45-36H50c-1.654 0-3 1.346-3 3v10c0 1.654 1.346 3 3 3h10c1.654 0 3-1.346 3-3V27c0-1.654-1.346-3-3-3zm1 13c0 .551-.449 1-1 1H50c-.551 0-1-.449-1-1V27c0-.551.449-1 1-1h10c.551 0 1 .449 1 1zM10 17h10c1.654 0 3-1.346 3-3V4c0-1.654-1.346-3-3-3H10C8.346 1 7 2.346 7 4v10c0 1.654 1.346 3 3 3zM9 4c0-.551.449-1 1-1h10c.551 0 1 .449 1 1v10c0 .551-.449 1-1 1H10c-.551 0-1-.449-1-1z"/><path d="M7 56.586l-1.293-1.293-1.414 1.414L7 59.414l6.707-6.707-1.414-1.414zM19.707 6.707l-1.414-1.414L13 10.586l-1.293-1.293-1.414 1.414L13 13.414zM53 33.586l-1.293-1.293-1.414 1.414L53 36.414l6.707-6.707-1.414-1.414zM46.757 45.03l.485 1.94 5.684-1.421C48.335 52.661 40.519 57 32 57c-3.659 0-7.185-.772-10.479-2.295l-.839 1.815A26.768 26.768 0 0032 59c9.059 0 17.379-4.54 22.367-12.004l.641 5.128 1.984-.248-1.14-9.12zm-34.784-8.798l-1.945-.465-1.22 5.106C7.612 37.913 7 34.938 7 32c0-3.69.785-7.243 2.333-10.562l-1.813-.846A26.797 26.797 0 005 32c0 3.183.655 6.394 1.935 9.579l-4.452-2.455-.966 1.752 8.258 4.552zM33.555 9.168L30.303 7H32a24.944 24.944 0 0122.184 13.461l1.773-.925C51.284 10.57 42.104 5 32 5h-1.697l3.252-2.168-1.109-1.664L25.197 6l7.248 4.832z"/></svg>