<?xml version="1.0" encoding="UTF-8"?>
<svg width="700pt" height="700pt" version="1.1" viewBox="0 0 700 700" xmlns="http://www.w3.org/2000/svg" xmlns:xlink="http://www.w3.org/1999/xlink">
 <defs>
  <symbol id="v" overflow="visible">
   <path d="m14.656-0.875c-0.76172 0.39844-1.5547 0.69531-2.375 0.89062-0.8125 0.19531-1.6641 0.29688-2.5469 0.29688-2.6562 0-4.7617-0.73828-6.3125-2.2188-1.5547-1.4883-2.3281-3.5039-2.3281-6.0469 0-2.5508 0.77344-4.5664 2.3281-6.0469 1.5508-1.4883 3.6562-2.2344 6.3125-2.2344 0.88281 0 1.7344 0.10156 2.5469 0.29688 0.82031 0.19922 1.6133 0.49609 2.375 0.89062v3.2969c-0.76172-0.51953-1.5117-0.89844-2.25-1.1406-0.74219-0.23828-1.5234-0.35938-2.3438-0.35938-1.4688 0-2.625 0.46875-3.4688 1.4062-0.83594 0.9375-1.25 2.2344-1.25 3.8906 0 1.6484 0.41406 2.9375 1.25 3.875 0.84375 0.9375 2 1.4062 3.4688 1.4062 0.82031 0 1.6016-0.11719 2.3438-0.35938 0.73828-0.23828 1.4883-0.61719 2.25-1.1406z"/>
  </symbol>
  <symbol id="d" overflow="visible">
   <path d="m10.719-8.7031c-0.33594-0.15625-0.66797-0.26953-1-0.34375-0.32422-0.082031-0.65625-0.125-1-0.125-0.98047 0-1.7344 0.32031-2.2656 0.95312-0.53125 0.625-0.79688 1.5273-0.79688 2.7031v5.5156h-3.8125v-11.969h3.8125v1.9688c0.48828-0.78125 1.0508-1.3477 1.6875-1.7031 0.64453-0.36328 1.4102-0.54688 2.2969-0.54688 0.13281 0 0.27344 0.007812 0.42188 0.015625 0.14453 0.011719 0.36328 0.03125 0.65625 0.0625z"/>
  </symbol>
  <symbol id="b" overflow="visible">
   <path d="m13.781-6.0156v1.0938h-8.9375c0.09375 0.89844 0.41406 1.5703 0.96875 2.0156 0.55078 0.44922 1.3281 0.67188 2.3281 0.67188 0.80078 0 1.625-0.11719 2.4688-0.35938 0.84375-0.23828 1.7109-0.59766 2.6094-1.0781v2.9531c-0.90625 0.33594-1.8125 0.58984-2.7188 0.76562s-1.8125 0.26562-2.7188 0.26562c-2.1562 0-3.8398-0.54688-5.0469-1.6406-1.1992-1.1016-1.7969-2.6484-1.7969-4.6406 0-1.9453 0.58594-3.4766 1.7656-4.5938 1.1758-1.125 2.8008-1.6875 4.875-1.6875 1.875 0 3.375 0.57031 4.5 1.7031 1.1328 1.125 1.7031 2.6367 1.7031 4.5312zm-3.9375-1.2656c0-0.72656-0.21484-1.3125-0.64062-1.75-0.41797-0.44531-0.96875-0.67188-1.6562-0.67188-0.74219 0-1.3438 0.21094-1.8125 0.625-0.46094 0.41797-0.74609 1.0156-0.85938 1.7969z"/>
  </symbol>
  <symbol id="k" overflow="visible">
   <path d="m7.2031-5.3906c-0.80469 0-1.4062 0.13672-1.8125 0.40625-0.39844 0.27344-0.59375 0.67188-0.59375 1.2031 0 0.48047 0.16016 0.85938 0.48438 1.1406 0.32031 0.27344 0.77344 0.40625 1.3594 0.40625 0.71875 0 1.3203-0.25391 1.8125-0.76562 0.48828-0.51953 0.73438-1.1719 0.73438-1.9531v-0.4375zm5.8438-1.4375v6.8281h-3.8594v-1.7656c-0.51172 0.71875-1.0898 1.2461-1.7344 1.5781-0.63672 0.33203-1.418 0.5-2.3438 0.5-1.2422 0-2.2461-0.35938-3.0156-1.0781-0.77344-0.72656-1.1562-1.6719-1.1562-2.8281 0-1.3945 0.47656-2.4219 1.4375-3.0781 0.96875-0.65625 2.4883-0.98438 4.5625-0.98438h2.25v-0.29688c0-0.60156-0.24219-1.0469-0.71875-1.3281-0.48047-0.28125-1.2266-0.42188-2.2344-0.42188-0.8125 0-1.5742 0.085937-2.2812 0.25-0.71094 0.15625-1.3672 0.40234-1.9688 0.73438v-2.9219c0.82031-0.19531 1.6445-0.34766 2.4688-0.45312 0.82031-0.10156 1.6484-0.15625 2.4844-0.15625 2.1562 0 3.7109 0.42969 4.6719 1.2812 0.95703 0.84375 1.4375 2.2266 1.4375 4.1406z"/>
  </symbol>
  <symbol id="c" overflow="visible">
   <path d="m6.0156-15.359v3.3906h3.9375v2.7344h-3.9375v5.0781c0 0.55469 0.10938 0.92969 0.32812 1.125 0.21875 0.19922 0.65625 0.29688 1.3125 0.29688h1.9688v2.7344h-3.2812c-1.5117 0-2.5859-0.3125-3.2188-0.9375-0.625-0.63281-0.9375-1.707-0.9375-3.2188v-5.0781h-1.9062v-2.7344h1.9062v-3.3906z"/>
  </symbol>
  <symbol id="j" overflow="visible">
   <path d="m9.9688-10.219v-6.4062h3.8594v16.625h-3.8594v-1.7344c-0.52344 0.71094-1.1016 1.2305-1.7344 1.5625-0.63672 0.32031-1.3711 0.48438-2.2031 0.48438-1.4688 0-2.6797-0.58203-3.625-1.75-0.94922-1.1758-1.4219-2.6875-1.4219-4.5312s0.47266-3.3477 1.4219-4.5156c0.94531-1.1758 2.1562-1.7656 3.625-1.7656 0.83203 0 1.5664 0.16797 2.2031 0.5 0.63281 0.32422 1.2109 0.83594 1.7344 1.5312zm-2.5156 7.75c0.82031 0 1.4453-0.29688 1.875-0.89062 0.42578-0.60156 0.64062-1.4727 0.64062-2.6094 0-1.1445-0.21484-2.0156-0.64062-2.6094-0.42969-0.59375-1.0547-0.89062-1.875-0.89062-0.8125 0-1.4336 0.29688-1.8594 0.89062-0.42969 0.59375-0.64062 1.4648-0.64062 2.6094 0 1.1367 0.21094 2.0078 0.64062 2.6094 0.42578 0.59375 1.0469 0.89062 1.8594 0.89062z"/>
  </symbol>
  <symbol id="i" overflow="visible">
   <path d="m8.2031-2.4688c0.82031 0 1.4453-0.29688 1.875-0.89062 0.42578-0.60156 0.64062-1.4727 0.64062-2.6094 0-1.1445-0.21484-2.0156-0.64062-2.6094-0.42969-0.59375-1.0547-0.89062-1.875-0.89062-0.82422 0-1.4531 0.30469-1.8906 0.90625-0.4375 0.59375-0.65625 1.4609-0.65625 2.5938 0 1.1367 0.21875 2.0078 0.65625 2.6094 0.4375 0.59375 1.0664 0.89062 1.8906 0.89062zm-2.5469-7.75c0.53125-0.69531 1.1133-1.207 1.75-1.5312 0.64453-0.33203 1.3828-0.5 2.2188-0.5 1.4688 0 2.6758 0.58984 3.625 1.7656 0.94531 1.168 1.4219 2.6719 1.4219 4.5156s-0.47656 3.3555-1.4219 4.5312c-0.94922 1.168-2.1562 1.75-3.625 1.75-0.83594 0-1.5742-0.16797-2.2188-0.5-0.63672-0.33203-1.2188-0.84766-1.75-1.5469v1.7344h-3.8125v-16.625h3.8125z"/>
  </symbol>
  <symbol id="h" overflow="visible">
   <path d="m0.26562-11.969h3.8281l3.2188 8.125 2.7344-8.125h3.8125l-5.0312 13.094c-0.5 1.332-1.0898 2.2656-1.7656 2.7969-0.66797 0.53125-1.5547 0.79688-2.6562 0.79688h-2.2188v-2.5h1.2031c0.64453 0 1.1133-0.10547 1.4062-0.3125 0.30078-0.21094 0.53125-0.57812 0.6875-1.1094l0.10938-0.34375z"/>
  </symbol>
  <symbol id="g" overflow="visible">
   <path d="m2.0156-15.953h11.094v3.1094h-6.9844v2.9688h6.5625v3.1094h-6.5625v6.7656h-4.1094z"/>
  </symbol>
  <symbol id="u" overflow="visible">
   <path d="m1.8438-16.625h3.8125v16.625h-3.8125z"/>
  </symbol>
  <symbol id="a" overflow="visible">
   <path d="m7.5312-9.5156c-0.84375 0-1.4922 0.30859-1.9375 0.92188-0.44922 0.60547-0.67188 1.4805-0.67188 2.625 0 1.1484 0.22266 2.0273 0.67188 2.6406 0.44531 0.60547 1.0938 0.90625 1.9375 0.90625 0.83203 0 1.4688-0.30078 1.9062-0.90625 0.44531-0.61328 0.67188-1.4922 0.67188-2.6406 0-1.1445-0.22656-2.0195-0.67188-2.625-0.4375-0.61328-1.0742-0.92188-1.9062-0.92188zm0-2.7344c2.0508 0 3.6562 0.55859 4.8125 1.6719 1.1641 1.1055 1.75 2.6406 1.75 4.6094s-0.58594 3.5117-1.75 4.625c-1.1562 1.1055-2.7617 1.6562-4.8125 1.6562-2.0625 0-3.6797-0.55078-4.8438-1.6562-1.168-1.1133-1.75-2.6562-1.75-4.625s0.58203-3.5039 1.75-4.6094c1.1641-1.1133 2.7812-1.6719 4.8438-1.6719z"/>
  </symbol>
  <symbol id="t" overflow="visible">
   <path d="m0.76562-11.969h3.7188l2.0156 8.25 2.0156-8.25h3.1875l2.0156 8.1719 2.0156-8.1719h3.7188l-3.1562 11.969h-4.1719l-2.0156-8.2188-2.0156 8.2188h-4.1719z"/>
  </symbol>
  <symbol id="s" overflow="visible">
   <path d="m1.8438-11.969h3.8125v11.969h-3.8125zm0-4.6562h3.8125v3.125h-3.8125z"/>
  </symbol>
  <symbol id="f" overflow="visible">
   <path d="m11.5-11.594v3.125c-0.52344-0.35156-1.043-0.61328-1.5625-0.78125-0.52344-0.17578-1.0625-0.26562-1.625-0.26562-1.0742 0-1.9062 0.3125-2.5 0.9375s-0.89062 1.4961-0.89062 2.6094c0 1.1172 0.29688 1.9844 0.89062 2.6094s1.4258 0.9375 2.5 0.9375c0.59375 0 1.1562-0.085937 1.6875-0.26562 0.53906-0.17578 1.0391-0.44141 1.5-0.79688v3.125c-0.59375 0.23047-1.1992 0.39453-1.8125 0.5-0.61719 0.11328-1.2344 0.17188-1.8594 0.17188-2.1562 0-3.8438-0.55078-5.0625-1.6562-1.2188-1.1133-1.8281-2.6562-1.8281-4.625s0.60938-3.5039 1.8281-4.6094c1.2188-1.1133 2.9062-1.6719 5.0625-1.6719 0.625 0 1.2383 0.058594 1.8438 0.17188 0.61328 0.10547 1.2227 0.26562 1.8281 0.48438z"/>
  </symbol>
  <symbol id="e" overflow="visible">
   <path d="m13.859-7.2812v7.2812h-3.8438v-5.5781c0-1.0312-0.027344-1.7383-0.078125-2.125-0.042969-0.39453-0.12109-0.6875-0.23438-0.875-0.14844-0.25-0.35156-0.44141-0.60938-0.57812-0.25-0.14453-0.54297-0.21875-0.875-0.21875-0.79297 0-1.418 0.3125-1.875 0.9375-0.46094 0.61719-0.6875 1.4648-0.6875 2.5469v5.8906h-3.8125v-11.969h3.8125v1.75c0.58203-0.69531 1.1953-1.207 1.8438-1.5312 0.64453-0.33203 1.3594-0.5 2.1406-0.5 1.3828 0 2.4297 0.42969 3.1406 1.2812 0.71875 0.84375 1.0781 2.0742 1.0781 3.6875z"/>
  </symbol>
  <symbol id="r" overflow="visible">
   <path d="m9.7031-16.625v2.5156h-2.1094c-0.54297 0-0.92188 0.10156-1.1406 0.29688-0.21094 0.19922-0.3125 0.53906-0.3125 1.0156v0.82812h3.2656v2.7344h-3.2656v9.2344h-3.8281v-9.2344h-1.8906v-2.7344h1.8906v-0.82812c0-1.3008 0.36328-2.2656 1.0938-2.8906 0.72656-0.625 1.8516-0.9375 3.375-0.9375z"/>
  </symbol>
  <symbol id="q" overflow="visible">
   <path d="m12.922-9.9688c0.48828-0.75 1.0625-1.3164 1.7188-1.7031 0.66406-0.38281 1.3984-0.57812 2.2031-0.57812 1.375 0 2.4219 0.42969 3.1406 1.2812 0.71875 0.84375 1.0781 2.0742 1.0781 3.6875v7.2812h-3.8438v-6.2344c0.007812-0.09375 0.015625-0.1875 0.015625-0.28125v-0.4375c0-0.84375-0.125-1.457-0.375-1.8438-0.25-0.38281-0.65234-0.57812-1.2031-0.57812-0.73047 0-1.293 0.30469-1.6875 0.90625-0.38672 0.59375-0.58984 1.4609-0.60938 2.5938v5.875h-3.8438v-6.2344c0-1.3203-0.11719-2.1758-0.34375-2.5625-0.23047-0.38281-0.63672-0.57812-1.2188-0.57812-0.73047 0-1.2969 0.30469-1.7031 0.90625-0.39844 0.60547-0.59375 1.4648-0.59375 2.5781v5.8906h-3.8438v-11.969h3.8438v1.75c0.46875-0.66406 1.0039-1.1719 1.6094-1.5156 0.61328-0.34375 1.2891-0.51562 2.0312-0.51562 0.82031 0 1.5508 0.19922 2.1875 0.59375 0.63281 0.39844 1.1133 0.96094 1.4375 1.6875z"/>
  </symbol>
  <symbol id="p" overflow="visible">
   <path d="m13.859-7.2812v7.2812h-3.8438v-5.5469c0-1.0508-0.027344-1.7695-0.078125-2.1562-0.042969-0.39453-0.12109-0.6875-0.23438-0.875-0.14844-0.25-0.35156-0.44141-0.60938-0.57812-0.25-0.14453-0.54297-0.21875-0.875-0.21875-0.79297 0-1.418 0.3125-1.875 0.9375-0.46094 0.61719-0.6875 1.4648-0.6875 2.5469v5.8906h-3.8125v-16.625h3.8125v6.4062c0.58203-0.69531 1.1953-1.207 1.8438-1.5312 0.64453-0.33203 1.3594-0.5 2.1406-0.5 1.3828 0 2.4297 0.42969 3.1406 1.2812 0.71875 0.84375 1.0781 2.0742 1.0781 3.6875z"/>
  </symbol>
  <symbol id="o" overflow="visible">
   <path d="m2.0156-15.953h4.5781l5.8125 10.938v-10.938h3.8906v15.953h-4.5938l-5.7969-10.938v10.938h-3.8906z"/>
  </symbol>
  <symbol id="n" overflow="visible">
   <path d="m1.7031-4.6562v-7.3125h3.8438v1.2031c0 0.64844-0.007813 1.4609-0.015625 2.4375v1.9688c0 0.96094 0.023438 1.6523 0.078125 2.0781 0.050781 0.41797 0.13281 0.72656 0.25 0.92188 0.15625 0.25 0.35938 0.44531 0.60938 0.57812 0.25781 0.13672 0.55078 0.20312 0.875 0.20312 0.80078 0 1.4258-0.30469 1.875-0.92188 0.45703-0.61328 0.6875-1.4688 0.6875-2.5625v-5.9062h3.8281v11.969h-3.8281v-1.7344c-0.57422 0.69922-1.1836 1.2148-1.8281 1.5469-0.64844 0.33203-1.3555 0.5-2.125 0.5-1.3867 0-2.4453-0.42188-3.1719-1.2656-0.71875-0.85156-1.0781-2.0859-1.0781-3.7031z"/>
  </symbol>
  <symbol id="m" overflow="visible">
   <path d="m2.0156-15.953h6.8125c2.0312 0 3.5859 0.45312 4.6719 1.3594 1.0938 0.89844 1.6406 2.1797 1.6406 3.8438 0 1.6797-0.54688 2.9688-1.6406 3.875-1.0859 0.89844-2.6406 1.3438-4.6719 1.3438h-2.7031v5.5312h-4.1094zm4.1094 2.9844v4.4531h2.2656c0.80078 0 1.4141-0.19141 1.8438-0.57812 0.4375-0.38281 0.65625-0.9375 0.65625-1.6562 0-0.70703-0.21875-1.2539-0.65625-1.6406-0.42969-0.38281-1.043-0.57812-1.8438-0.57812z"/>
  </symbol>
  <symbol id="l" overflow="visible">
   <path d="m1.8438-11.969h3.8125v11.75c0 1.6016-0.38672 2.8281-1.1562 3.6719-0.76172 0.84375-1.8711 1.2656-3.3281 1.2656h-1.8906v-2.5h0.65625c0.72656 0 1.2266-0.16797 1.5-0.5 0.26953-0.32422 0.40625-0.96875 0.40625-1.9375zm0-4.6562h3.8125v3.125h-3.8125z"/>
  </symbol>
 </defs>
 <g>
  <path d="m532.77 350h-56.332c-9.2383-33.426-31.367-61.816-61.52-78.938 8.7031-21.574 6.1172-46.066-6.8945-65.348-13.016-19.285-34.758-30.844-58.023-30.844s-45.008 11.559-58.023 30.844c-13.012 19.281-15.598 43.773-6.8945 65.348-30.152 17.121-52.281 45.512-61.52 78.938h-56.332c-10.25-0.003906-19.91 4.7852-26.117 12.941s-8.2461 18.742-5.5156 28.621l39.812 144.38c1.9297 6.9102 6.0625 13.004 11.773 17.348 5.7109 4.3438 12.684 6.7031 19.859 6.7148h285.9c7.1719-0.011719 14.148-2.3711 19.859-6.7148 5.7109-4.3438 9.8438-10.438 11.77-17.348l39.812-144.38c2.7344-9.8789 0.69531-20.465-5.5117-28.621-6.207-8.1562-15.871-12.945-26.117-12.941zm-182.77-161.88c15.086 0 29.551 5.9922 40.215 16.66 10.668 10.664 16.66 25.129 16.66 40.215s-5.9922 29.551-16.66 40.215c-10.664 10.668-25.129 16.66-40.215 16.66s-29.551-5.9922-40.215-16.66c-10.668-10.664-16.66-25.129-16.66-40.215 0.015625-15.078 6.0156-29.535 16.676-40.199 10.664-10.66 25.121-16.66 40.199-16.676zm-58.879 94.586c12.824 20.113 35.027 32.289 58.879 32.289s46.055-12.176 58.879-32.289c25.82 14.816 45.078 38.855 53.898 67.289h-225.55c8.8203-28.434 28.078-52.473 53.898-67.289zm260.63 105.35-39.812 144.38c-1.1602 4.1484-3.6406 7.8008-7.0664 10.41-3.4258 2.6055-7.6133 4.0195-11.918 4.0273h-285.89c-4.3047-0.007812-8.4883-1.4219-11.918-4.0273-3.4258-2.6094-5.9062-6.2617-7.0625-10.41l-39.812-144.38c-1.6406-5.9258-0.41797-12.273 3.3047-17.168 3.7188-4.8945 9.5117-7.7656 15.66-7.7695h365.54c6.1484 0 11.945 2.8711 15.672 7.7656 3.7227 4.8906 4.9453 11.246 3.3086 17.172z"/>
  <path d="m133.44 214.38c16.824 0 32.961-6.6836 44.855-18.582 11.898-11.895 18.582-28.031 18.582-44.855s-6.6836-32.961-18.582-44.855c-11.895-11.898-28.031-18.582-44.855-18.582s-32.961 6.6836-44.855 18.582c-11.898 11.895-18.582 28.031-18.582 44.855 0.019531 16.82 6.7109 32.941 18.602 44.836 11.895 11.891 28.016 18.582 44.836 18.602zm0-113.75c13.344 0 26.141 5.3008 35.578 14.734 9.4336 9.4375 14.734 22.234 14.734 35.578s-5.3008 26.141-14.734 35.578c-9.4375 9.4336-22.234 14.734-35.578 14.734s-26.141-5.3008-35.578-14.734c-9.4336-9.4375-14.734-22.234-14.734-35.578 0.015625-13.34 5.3203-26.129 14.754-35.559 9.4297-9.4336 22.219-14.738 35.559-14.754z"/>
  <path d="m284.23 117.05c1.7305 3 4.2227 5.4922 7.2266 7.2148 3.0039 1.7266 6.4102 2.625 9.875 2.6055h97.328c7.0391 0 13.551-3.7383 17.102-9.8203 3.5508-6.082 3.6016-13.59 0.14062-19.719l-48.664-86.164c-2.3125-4.0898-6-7.2266-10.41-8.8477-4.4102-1.6211-9.2539-1.6211-13.664 0-4.4102 1.6211-8.0977 4.7578-10.41 8.8477l-48.664 86.164c-1.7188 3.0039-2.6133 6.4141-2.5898 9.8789 0.023438 3.4609 0.96875 6.8555 2.7305 9.8398zm11.289-13.262 48.664-86.16c1.1836-2.0977 3.4023-3.3984 5.8125-3.3984s4.6289 1.3008 5.8125 3.3984l48.664 86.16c1.168 2.0664 1.1484 4.5977-0.046874 6.6484-1.1992 2.0469-3.3945 3.3086-5.7656 3.3086h-97.328c-2.3711 0-4.5664-1.2617-5.7656-3.3086-1.1953-2.0508-1.2148-4.582-0.046874-6.6484z"/>
  <path d="m610.56 87.5h-88c-5.1523 0.003906-10.094 2.0547-13.738 5.6992s-5.6953 8.5859-5.6992 13.738v88c0.003906 5.1523 2.0547 10.094 5.6992 13.738s8.5859 5.6953 13.738 5.6992h88c5.1523-0.003906 10.094-2.0547 13.738-5.6992s5.6953-8.5859 5.6992-13.738v-88c-0.003906-5.1523-2.0547-10.094-5.6992-13.738s-8.5859-5.6953-13.738-5.6992zm6.3125 107.44c-0.003906 3.4844-2.8281 6.3086-6.3125 6.3125h-88c-3.4844-0.003906-6.3086-2.8281-6.3125-6.3125v-88c0.003906-3.4844 2.8281-6.3086 6.3125-6.3125h88c3.4844 0.003906 6.3086 2.8281 6.3125 6.3125z"/>
  <path d="m281.98 459.38 21-26.312c3.2852-4.1836 4.7969-9.4844 4.2188-14.77-0.58203-5.2852-3.207-10.133-7.3203-13.504-4.2305-3.2383-9.5469-4.7227-14.84-4.1445-5.2969 0.58203-10.168 3.1797-13.598 7.2578-7.5469 9.8906-31.027 38.902-31.027 38.902-2.8633 3.5664-4.4219 8.0039-4.4219 12.578 0 4.5703 1.5586 9.0078 4.4219 12.574 0 0 23.422 28.918 30.941 38.785 3.3984 4.1133 8.2539 6.7539 13.555 7.3711 5.3008 0.61328 10.633-0.84766 14.883-4.0781 4.1484-3.3594 6.8047-8.2188 7.4023-13.523 0.59766-5.3047-0.91406-10.629-4.207-14.828zm9.5195 44.477h0.003906c-3.082 2.2266-7.3555 1.7109-9.8164-1.1875-7.5117-9.9297-31.004-38.914-31.004-38.914-2.0586-2.5664-2.0586-6.2227 0-8.7891 0 0 23.512-29.117 31.109-39.004 2.5117-2.8477 6.7891-3.2891 9.8281-1.0117 3.0078 2.4492 3.5039 6.8555 1.1094 9.9102l-24.25 30.402c-1.9102 2.3945-1.9102 5.793 0 8.1875l24.25 30.398v-0.003906c2.4102 3.1055 1.8594 7.5664-1.2266 9.9922z"/>
  <path d="m428.54 407.98c-4.4805-5.6445-11.633-8.4688-18.762-7.4062-7.1289 1.0586-13.152 5.8398-15.797 12.543-2.6484 6.7031-1.5195 14.312 2.9648 19.953 5.4023 6.457 21.035 26.289 21.035 26.289l-21.035 26.27c-3.293 4.1758-4.8125 9.4766-4.2422 14.766 0.57422 5.2852 3.1953 10.137 7.3047 13.516 4.2188 3.25 9.5352 4.75 14.832 4.1797 5.3008-0.57422 10.172-3.168 13.605-7.2422 7.5742-9.8828 31.121-38.895 31.121-38.895h-0.003906c2.8789-3.5703 4.4492-8.0156 4.4492-12.602 0-4.582-1.5703-9.0312-4.4492-12.598 0 0-23.516-28.887-31.023-38.773zm20.77 55.773s-23.598 29.098-31.207 39.004c-2.5156 2.8359-6.7852 3.2695-9.8164 0.99219-3.0078-2.4531-3.4961-6.8594-1.1016-9.9141l24.312-30.383h-0.003906c1.918-2.3984 1.918-5.8047 0-8.1992 0 0-18.188-22.965-24.398-30.5-1.1523-1.4727-1.6719-3.3438-1.4453-5.1992 0.22656-1.8555 1.1836-3.5469 2.6562-4.6992 3.0664-2.3984 7.5-1.8555 9.8984 1.2109 7.5547 9.8945 31.113 38.891 31.113 38.891 2.0703 2.5664 2.0664 6.2344-0.007812 8.7969z"/>
  <path d="m363.4 400.95c-5.1719-1.3086-10.648-0.46094-15.184 2.3398-4.5352 2.8047-7.7422 7.3281-8.8789 12.535l-0.035156 0.14844s-13.594 58.148-17.785 77.605c-5.6406 26.188 32.859 35.234 39.281 9.1875 4.7852-19.406 17.859-77.926 17.859-77.926 1.2461-5.1992 0.32422-10.684-2.5547-15.188-2.8789-4.5039-7.4648-7.6445-12.703-8.7031zm2.4297 21.098c-0.003906 0-13.383 58.332-17.832 77.777-0.80078 3.2305-3.707 5.4961-7.0352 5.4805-2.082-0.14062-4.0078-1.1602-5.2891-2.8086-1.2812-1.6484-1.793-3.7695-1.4141-5.8203 5.1289-19.25 17.805-77.691 17.805-77.691h0.003906c0.85938-3.7812 4.6172-6.1562 8.4023-5.3125 3.7852 0.83984 6.1797 4.5859 5.3555 8.375z"/>
  <use x="70" y="625.625" xlink:href="#v"/>
  <use x="86.054688" y="625.625" xlink:href="#d"/>
  <use x="96.839844" y="625.625" xlink:href="#b"/>
  <use x="111.679687" y="625.625" xlink:href="#k"/>
  <use x="126.4375" y="625.625" xlink:href="#c"/>
  <use x="136.894531" y="625.625" xlink:href="#b"/>
  <use x="151.730469" y="625.625" xlink:href="#j"/>
  <use x="175.007812" y="625.625" xlink:href="#i"/>
  <use x="190.664062" y="625.625" xlink:href="#h"/>
  <use x="212.539062" y="625.625" xlink:href="#g"/>
  <use x="227.484375" y="625.625" xlink:href="#u"/>
  <use x="234.980469" y="625.625" xlink:href="#a"/>
  <use x="250.007812" y="625.625" xlink:href="#t"/>
  <use x="270.21875" y="625.625" xlink:href="#s"/>
  <use x="277.714844" y="625.625" xlink:href="#f"/>
  <use x="290.683594" y="625.625" xlink:href="#a"/>
  <use x="305.710938" y="625.625" xlink:href="#e"/>
  <use x="70" y="647.5" xlink:href="#r"/>
  <use x="79.515625" y="647.5" xlink:href="#d"/>
  <use x="90.304688" y="647.5" xlink:href="#a"/>
  <use x="105.332031" y="647.5" xlink:href="#q"/>
  <use x="135.742188" y="647.5" xlink:href="#c"/>
  <use x="146.199219" y="647.5" xlink:href="#p"/>
  <use x="161.773438" y="647.5" xlink:href="#b"/>
  <use x="184.222656" y="647.5" xlink:href="#o"/>
  <use x="202.53125" y="647.5" xlink:href="#a"/>
  <use x="217.558594" y="647.5" xlink:href="#n"/>
  <use x="233.132812" y="647.5" xlink:href="#e"/>
  <use x="256.320312" y="647.5" xlink:href="#m"/>
  <use x="272.355469" y="647.5" xlink:href="#d"/>
  <use x="283.140625" y="647.5" xlink:href="#a"/>
  <use x="298.171875" y="647.5" xlink:href="#l"/>
  <use x="305.667969" y="647.5" xlink:href="#b"/>
  <use x="320.503906" y="647.5" xlink:href="#f"/>
  <use x="333.472656" y="647.5" xlink:href="#c"/>
 </g>
</svg>
