<svg width="505" height="441" xmlns="http://www.w3.org/2000/svg" xmlns:xlink="http://www.w3.org/1999/xlink" xml:space="preserve" overflow="hidden"><defs><clipPath id="clip0"><rect x="882" y="-104" width="505" height="441"/></clipPath><clipPath id="clip1"><rect x="882" y="-98" width="505" height="435"/></clipPath><clipPath id="clip2"><rect x="869" y="-98" width="531" height="531"/></clipPath></defs><g clip-path="url(#clip0)" transform="translate(-882 104)"><g clip-path="url(#clip1)"><g clip-path="url(#clip2)"><path d="M403.794 265.27 361.099 265.27C354.097 239.936 337.326 218.419 314.472 205.442 321.069 189.091 319.109 170.528 309.247 155.914 299.382 141.297 282.903 132.537 265.27 132.537 247.638 132.537 231.158 141.297 221.294 155.914 211.432 170.527 209.472 189.09 216.069 205.442 193.216 218.418 176.444 239.936 169.442 265.27L126.747 265.27C118.978 265.267 111.657 268.897 106.952 275.078 102.248 281.26 100.703 289.283 102.772 296.771L132.946 406.198C134.409 411.436 137.541 416.054 141.869 419.347 146.197 422.639 151.482 424.427 156.92 424.436L373.608 424.436C379.044 424.427 384.331 422.639 388.66 419.347 392.988 416.054 396.12 411.435 397.58 406.198L427.754 296.771C429.827 289.283 428.281 281.26 423.577 275.078 418.873 268.897 411.548 265.267 403.783 265.27ZM265.27 142.579C276.704 142.579 287.667 147.12 295.75 155.206 303.835 163.288 308.376 174.251 308.376 185.685 308.376 197.119 303.835 208.082 295.75 216.165 287.667 224.25 276.704 228.792 265.27 228.792 253.836 228.792 242.873 224.25 234.791 216.165 226.705 208.082 222.164 197.119 222.164 185.685 222.176 174.257 226.723 163.3 234.803 155.218 242.885 147.139 253.842 142.591 265.27 142.579ZM220.645 214.267C230.364 229.511 247.192 238.739 265.27 238.739 283.348 238.739 300.176 229.511 309.895 214.267 329.465 225.496 344.061 243.716 350.745 265.266L179.798 265.266C186.483 243.716 201.079 225.496 220.648 214.267ZM418.18 294.113 388.006 403.541C387.127 406.685 385.247 409.453 382.65 411.431 380.054 413.406 376.88 414.477 373.617 414.483L156.937 414.483C153.675 414.477 150.504 413.406 147.904 411.431 145.308 409.453 143.428 406.685 142.552 403.541L112.378 294.113C111.134 289.622 112.061 284.811 114.882 281.101 117.701 277.392 122.091 275.216 126.751 275.213L403.799 275.213C408.459 275.213 412.853 277.389 415.677 281.098 418.499 284.805 419.425 289.622 418.185 294.113Z" transform="matrix(1 0 0 1.00006 869.034 -97.7446)"/><path d="M101.136 162.482C113.887 162.482 126.118 157.416 135.132 148.398 144.15 139.383 149.216 127.153 149.216 114.402 149.216 101.651 144.15 89.4203 135.132 80.4056 126.117 71.388 113.887 66.3221 101.136 66.3221 88.385 66.3221 76.1545 71.3877 67.1399 80.4056 58.1222 89.421 53.0563 101.651 53.0563 114.402 53.0711 127.15 58.1426 139.368 67.155 148.384 76.1704 157.396 88.3888 162.467 101.137 162.482ZM101.136 76.2689C111.25 76.2689 120.949 80.2865 128.101 87.4361 135.251 94.5889 139.268 104.288 139.268 114.401 139.268 124.515 135.251 134.214 128.101 141.366 120.948 148.516 111.25 152.533 101.136 152.533 91.0225 152.533 81.3235 148.516 74.171 141.366 67.0212 134.213 63.0039 124.515 63.0039 114.401 63.0158 104.291 67.0363 94.5976 74.1862 87.4505 81.3331 80.3006 91.0263 76.2803 101.137 76.2682Z" transform="matrix(1 0 0 1.00006 869.034 -97.7446)"/><path d="M215.422 88.7139C216.734 90.9876 218.623 92.8765 220.899 94.1821 223.176 95.4907 225.758 96.1716 228.384 96.1569L302.15 96.1569C307.485 96.1569 312.42 93.3235 315.112 88.7139 317.803 84.1043 317.841 78.4138 315.218 73.7686L278.335 8.46363C276.583 5.36391 273.788 2.98649 270.445 1.75783 267.103 0.529176 263.432 0.529176 260.089 1.75783 256.747 2.98649 253.952 5.36384 252.199 8.46363L215.316 73.7686C214.013 76.0453 213.335 78.6299 213.353 81.256 213.371 83.879 214.088 86.4518 215.423 88.7137ZM223.978 78.6624 260.861 13.3605C261.758 11.7706 263.44 10.7848 265.267 10.7848 267.093 10.7848 268.775 11.7707 269.672 13.3605L306.555 78.6624C307.44 80.2286 307.426 82.1471 306.52 83.7014 305.611 85.2527 303.947 86.209 302.15 86.209L228.384 86.209C226.586 86.209 224.923 85.2527 224.014 83.7014 223.108 82.147 223.093 80.2286 223.978 78.6624Z" transform="matrix(1 0 0 1.00006 869.034 -97.7446)"/><path d="M462.752 66.3175 396.056 66.3175C392.151 66.3205 388.405 67.8748 385.644 70.637 382.882 73.3993 381.327 77.1444 381.324 81.0493L381.324 147.746C381.327 151.651 382.881 155.396 385.644 158.158 388.406 160.92 392.151 162.475 396.056 162.477L462.752 162.477C466.657 162.475 470.403 160.92 473.165 158.158 475.926 155.396 477.481 151.651 477.484 147.746L477.484 81.0493C477.481 77.1443 475.927 73.3989 473.165 70.637 470.402 67.8752 466.657 66.3205 462.752 66.3175ZM467.537 147.748C467.534 150.389 465.393 152.529 462.752 152.532L396.056 152.532C393.415 152.529 391.274 150.389 391.272 147.748L391.272 81.0514C391.274 78.4105 393.415 76.27 396.056 76.2671L462.752 76.2671C465.393 76.27 467.534 78.4105 467.537 81.0514Z" transform="matrix(1 0 0 1.00006 869.034 -97.7446)"/><path d="M213.717 348.171 229.633 328.229C232.123 325.058 233.269 321.04 232.83 317.034 232.389 313.028 230.4 309.354 227.282 306.799 224.076 304.345 220.047 303.22 216.035 303.658 212.02 304.099 208.328 306.068 205.729 309.159 200.009 316.655 182.213 338.643 182.213 338.643 180.043 341.346 178.861 344.71 178.861 348.176 178.861 351.64 180.043 355.004 182.213 357.706 182.213 357.706 199.965 379.624 205.664 387.102 208.239 390.22 211.919 392.221 215.937 392.689 219.955 393.154 223.996 392.046 227.217 389.598 230.361 387.052 232.374 383.369 232.827 379.349 233.28 375.328 232.135 371.293 229.639 368.11ZM220.932 381.881 220.935 381.881C218.599 383.568 215.36 383.177 213.495 380.981 207.801 373.455 189.996 351.487 189.996 351.487 188.436 349.542 188.436 346.771 189.996 344.826 189.996 344.826 207.816 322.757 213.574 315.264 215.478 313.106 218.72 312.771 221.023 314.497 223.303 316.353 223.679 319.693 221.864 322.008L203.485 345.05C202.037 346.865 202.037 349.441 203.485 351.256L221.864 374.295 221.864 374.292C223.691 376.646 223.273 380.027 220.934 381.865Z" transform="matrix(1 0 0 1.00006 869.034 -97.7446)"/><path d="M324.797 309.214C321.401 304.936 315.98 302.795 310.577 303.601 305.174 304.403 300.609 308.027 298.604 313.107 296.597 318.188 297.452 323.955 300.851 328.23 304.946 333.124 316.794 348.155 316.794 348.155L300.851 368.065C298.355 371.23 297.204 375.248 297.636 379.257 298.071 383.262 300.058 386.94 303.172 389.501 306.37 391.964 310.399 393.101 314.414 392.668 318.431 392.233 322.123 390.267 324.725 387.179 330.466 379.689 348.312 357.7 348.312 357.7L348.309 357.7C350.491 354.994 351.681 351.625 351.681 348.149 351.681 344.676 350.491 341.304 348.309 338.601 348.309 338.601 330.486 316.707 324.796 309.214ZM340.539 351.485C340.539 351.485 322.653 373.539 316.886 381.047 314.98 383.196 311.744 383.525 309.446 381.799 307.167 379.94 306.797 376.6 308.611 374.285L327.038 351.257 327.035 351.257C328.489 349.439 328.489 346.858 327.035 345.043 327.035 345.043 313.25 327.637 308.543 321.926 307.67 320.81 307.276 319.392 307.448 317.986 307.62 316.58 308.345 315.298 309.461 314.424 311.785 312.606 315.145 313.018 316.963 315.342 322.689 322.841 340.544 344.818 340.544 344.818 342.113 346.763 342.11 349.543 340.538 351.485Z" transform="matrix(1 0 0 1.00006 869.034 -97.7446)"/><path d="M275.426 303.886C271.506 302.894 267.356 303.537 263.918 305.659 260.481 307.785 258.05 311.213 257.189 315.16L257.162 315.272C257.162 315.272 246.859 359.343 243.682 374.09 239.407 393.938 268.587 400.795 273.454 381.053 277.081 366.345 286.99 321.992 286.99 321.992 287.934 318.052 287.235 313.895 285.053 310.481 282.871 307.067 279.396 304.687 275.426 303.885ZM277.268 319.876C277.265 319.876 267.124 364.087 263.753 378.825 263.146 381.273 260.943 382.99 258.42 382.978 256.842 382.872 255.383 382.099 254.412 380.85 253.441 379.6 253.053 377.993 253.34 376.438 257.227 361.849 266.835 317.555 266.835 317.555L266.838 317.555C267.489 314.689 270.337 312.889 273.206 313.529 276.075 314.165 277.89 317.005 277.265 319.876Z" transform="matrix(1 0 0 1.00006 869.034 -97.7446)"/><path d="M11.108-0.663175C10.5307-0.361192 9.92967-0.13619 9.30795 0.0118386 8.69214 0.159867 8.0467 0.236848 7.37762 0.236848 5.36444 0.236848 3.76865-0.322705 2.59328-1.44481 1.41495-2.57282 0.82878-4.10047 0.82878-6.02785 0.82878-7.96113 1.41498-9.48879 2.59328-10.6109 3.76865-11.7389 5.36437-12.3044 7.37762-12.3044 8.04671-12.3044 8.69214-12.2274 9.30795-12.0794 9.92967-11.9284 10.5307-11.7034 11.108-11.4043L11.108-8.90557C10.5307-9.29933 9.96226-9.58651 9.40269-9.77005 8.84017-9.95065 8.24808-10.0424 7.62629-10.0424 6.51306-10.0424 5.63676-9.68716 4.99723-8.97665 4.36366-8.2661 4.04984-7.28316 4.04984-6.02791 4.04984-4.77856 4.36366-3.80153 4.99723-3.09099 5.63672-2.38044 6.51306-2.02521 7.62629-2.02521 8.24801-2.02521 8.84016-2.11403 9.40269-2.29759 9.96224-2.47818 10.5307-2.76537 11.108-3.16207Z" transform="matrix(1 0 0 1.00006 922.088 376.453)"/><path d="M8.12409-6.59621C7.86947-6.71463 7.61782-6.80049 7.36617-6.85674 7.12044-6.91891 6.86879-6.95148 6.60826-6.95148 5.86515-6.95148 5.29373-6.70871 4.89113-6.2291 4.48848-5.7554 4.28716-5.07153 4.28716-4.18038L4.28716-2.27374e-05 1.39761-2.27374e-05 1.39761-9.0715 4.28716-9.0715 4.28716-7.57932C4.65723-8.17144 5.08358-8.60076 5.56614-8.87012 6.05464-9.14546 6.63495-9.28461 7.30699-9.28461 7.40765-9.28461 7.51424-9.27869 7.62674-9.27277 7.73628-9.26389 7.90208-9.24909 8.12412-9.2254Z" transform="matrix(1 0 0 1.00006 934.256 376.453)"/><path d="M10.4448-4.55931 10.4448-3.7303 3.67096-3.7303C3.74201-3.04936 3.98478-2.54015 4.40519-2.20265 4.82263-1.86218 5.41178-1.69342 6.16969-1.69342 6.77661-1.69342 7.4013-1.78224 8.04083-1.9658 8.68032-2.1464 9.33755-2.41878 10.0185-2.78291L10.0185-0.544713C9.33167-0.290099 8.64481-0.0976649 7.95791 0.0355614 7.27102 0.168788 6.58419 0.236879 5.8973 0.236879 4.26308 0.236879 2.98706-0.17761 2.07218-1.00656 1.16329-1.84147 0.71028-3.01382 0.71028-4.52373 0.71028-5.99811 1.15437-7.1587 2.04845-8.00544 2.93961-8.8581 4.17122-9.28442 5.74329-9.28442 7.16438-9.28442 8.30125-8.85218 9.1539-7.99362 10.0125-7.14096 10.4447-5.99523 10.4447-4.55936ZM7.46053-5.51853C7.46053-6.0692 7.2977-6.51329 6.975-6.84488 6.65821-7.18239 6.24077-7.35411 5.71974-7.35411 5.15722-7.35411 4.70125-7.19423 4.34602-6.88041 3.99667-6.56362 3.78055-6.11067 3.69468-5.51851Z" transform="matrix(1 0 0 1.00006 942.43 376.453)"/><path d="M5.45933-4.08561C4.84945-4.08561 4.39356-3.98199 4.08561-3.77771 3.78363-3.57047 3.6356-3.26848 3.6356-2.86586 3.6356-2.50171 3.75699-2.21453 4.00272-2.00139 4.24549-1.79414 4.58892-1.69348 5.03303-1.69348 5.57778-1.69348 6.03371-1.88593 6.40675-2.27376 6.77683-2.66752 6.96335-3.16196 6.96335-3.75404L6.96335-4.08563ZM9.88844-5.17512 9.88844 0 6.96334 0 6.96334-1.33817C6.5755-0.793423 6.13737-0.393737 5.64881-0.142109 5.16623 0.109541 4.57409 0.236848 3.87241 0.236848 2.93093 0.236848 2.17006-0.035531 1.58685-0.580259 1.00064-1.13093 0.710545-1.84742 0.710545-2.72372 0.710545-3.78063 1.07174-4.55931 1.80005-5.05665 2.53428-5.55404 3.68597-5.80273 5.25803-5.80273L6.96334-5.80273 6.96334-6.02774C6.96334-6.48367 6.77978-6.8212 6.41859-7.03433 6.05443-7.24749 5.48893-7.35408 4.72511-7.35408 4.1093-7.35408 3.532-7.28894 2.99615-7.1646 2.45732-7.04617 1.95993-6.85966 1.50397-6.608L1.50397-8.82255C2.12569-8.97058 2.75036-9.08605 3.37511-9.16598 3.99683-9.24295 4.62445-9.2844 5.25807-9.2844 6.89229-9.2844 8.07062-8.95873 8.79897-8.31336 9.52432-7.67387 9.88847-6.62579 9.88847-5.17514Z" transform="matrix(1 0 0 1.00006 953.677 376.453)"/><path d="M4.55931-11.6408 4.55931-9.07102 7.5436-9.07102 7.5436-6.99858 4.55931-6.99858 4.55931-3.14982C4.55931-2.72941 4.64221-2.44519 4.808-2.29716 4.97379-2.14617 5.30538-2.07215 5.80276-2.07215L7.29494-2.07215 7.29494 0.000288008 4.80807 0.000288008C3.66233 0.000288008 2.84818-0.23656 2.3685-0.710257 1.8948-1.18987 1.65795-2.00402 1.65795-3.14983L1.65795-6.9986 0.213217-6.9986 0.213217-9.07104 1.65795-9.07104 1.65795-11.6408Z" transform="matrix(1 0 0 1.00006 964.862 376.453)"/><path d="M10.4448-4.55931 10.4448-3.7303 3.67096-3.7303C3.74201-3.04936 3.98478-2.54015 4.40519-2.20265 4.82263-1.86218 5.41178-1.69342 6.16969-1.69342 6.77661-1.69342 7.4013-1.78224 8.04083-1.9658 8.68032-2.1464 9.33755-2.41878 10.0185-2.78291L10.0185-0.544713C9.33167-0.290099 8.64481-0.0976649 7.95791 0.0355614 7.27102 0.168788 6.58419 0.236879 5.8973 0.236879 4.26308 0.236879 2.98706-0.17761 2.07218-1.00656 1.16329-1.84147 0.71028-3.01382 0.71028-4.52373 0.71028-5.99811 1.15437-7.1587 2.04845-8.00544 2.93961-8.8581 4.17122-9.28442 5.74329-9.28442 7.16438-9.28442 8.30125-8.85218 9.1539-7.99362 10.0125-7.14096 10.4447-5.99523 10.4447-4.55936ZM7.46053-5.51853C7.46053-6.0692 7.2977-6.51329 6.975-6.84488 6.65821-7.18239 6.24077-7.35411 5.71974-7.35411 5.15722-7.35411 4.70125-7.19423 4.34602-6.88041 3.99667-6.56362 3.78055-6.11067 3.69468-5.51851Z" transform="matrix(1 0 0 1.00006 972.788 376.453)"/><path d="M7.5555-7.74513 7.5555-12.6005 10.4806-12.6005 10.4806-0.000151583 7.5555-0.000151583 7.5555-1.31468C7.15878-0.775847 6.72058-0.382065 6.24097-0.130437 5.75839 0.112331 5.2018 0.236682 4.57121 0.236682 3.45799 0.236682 2.54023-0.204447 1.82377-1.08967 1.10434-1.98082 0.746091-3.12656 0.746091-4.52393 0.746091-5.9213 1.10433-7.0612 1.82377-7.94637 2.54023-8.83753 3.45799-9.28454 4.57121-9.28454 5.20182-9.28454 5.75841-9.15724 6.24097-8.90559 6.72059-8.65986 7.15873-8.27202 7.5555-7.74507ZM5.64889-1.87129C6.27061-1.87129 6.7443-2.0963 7.06998-2.54631 7.39268-3.00224 7.55551-3.66249 7.55551-4.52401 7.55551-5.39144 7.39268-6.05166 7.06998-6.50171 6.74431-6.95172 6.27061-7.17672 5.64889-7.17672 5.03308-7.17672 4.56234-6.95171 4.23962-6.50171 3.91395-6.0517 3.75409-5.39152 3.75409-4.52401 3.75409-3.66249 3.91396-3.00227 4.23962-2.54631 4.56233-2.09629 5.03308-1.87129 5.64889-1.87129Z" transform="matrix(1 0 0 1.00006 984.032 376.453)"/><path d="M6.21725-1.87114C6.83897-1.87114 7.31266-2.09615 7.63834-2.54615 7.96104-3.00208 8.12387-3.66233 8.12387-4.52386 8.12387-5.39129 7.96104-6.05151 7.63834-6.50156 7.31267-6.95157 6.83897-7.17657 6.21725-7.17657 5.59256-7.17657 5.11592-6.94564 4.78434-6.48971 4.45275-6.0397 4.28695-5.38247 4.28695-4.52383 4.28695-3.66231 4.45275-3.00209 4.78434-2.54613 5.11592-2.09612 5.59258-1.87112 6.21725-1.87112ZM4.28692-7.74498C4.68956-8.27196 5.1307-8.65978 5.61327-8.9055 6.10177-9.15715 6.66131-9.28445 7.29493-9.28445 8.40815-9.28445 9.32296-8.83741 10.0424-7.94628 10.7588-7.06104 11.12-5.92121 11.12-4.52384 11.12-3.12647 10.7589-1.98066 10.0424-1.08958 9.32294-0.204334 8.40815 0.236773 7.29493 0.236773 6.66136 0.236773 6.10182 0.109466 5.61327-0.142185 5.13069-0.393835 4.68952-0.784639 4.28692-1.3146L4.28692-7.57915e-05 1.39737-7.57915e-05 1.39737-12.6004 4.28692-12.6004Z" transform="matrix(1 0 0 1.00006 1001.67 376.453)"/><path d="M0.201317-9.07148 3.10269-9.07148 5.54227-2.91342 7.61471-9.07148 10.5043-9.07148 6.69104 0.852654C6.31208 1.8622 5.86506 2.56979 5.35286 2.97247 4.8466 3.37511 4.17453 3.57643 3.33969 3.57643L1.65803 3.57643 1.65803 1.68165 2.56988 1.68165C3.05838 1.68165 3.41366 1.60171 3.63566 1.4448 3.86362 1.28492 4.0383 1.00663 4.15672 0.603967L4.23962 0.343434Z" transform="matrix(1 0 0 1.00006 1013.54 376.453)"/><path d="M1.52765-12.091 9.93596-12.091 9.93596-9.73435 4.64238-9.73435 4.64238-7.48425 9.61619-7.48425 9.61619-5.1276 4.64238-5.1276 4.64238 0.000151583 1.5278 0.000151583Z" transform="matrix(1 0 0 1.00006 1030.12 376.453)"/><path d="M1.39744-12.6003 4.28699-12.6003 4.28699 0 1.39744 0Z" transform="matrix(1 0 0 1.00006 1041.45 376.453)"/><path d="M5.70801-7.21201C5.06852-7.21201 4.57705-6.97813 4.23955-6.51331 3.89908-6.05441 3.73032-5.39121 3.73032-4.52378 3.73032-3.65339 3.89908-2.98726 4.23955-2.52243 4.57705-2.06354 5.06855-1.83557 5.70801-1.83557 6.33861-1.83557 6.82123-2.06354 7.15274-2.52243 7.49025-2.98724 7.66197-3.65339 7.66197-4.52378 7.66197-5.39121 7.49026-6.05439 7.15274-6.51331 6.82116-6.97812 6.33859-7.21201 5.70801-7.21201ZM5.70801-9.28445C7.26234-9.28445 8.47909-8.86109 9.35547-8.0173 10.2378-7.17942 10.6818-6.01595 10.6818-4.52376 10.6818-3.03158 10.2377-1.8622 9.35547-1.01841 8.47917-0.180535 7.26234 0.236848 5.70801 0.236848 4.14481 0.236848 2.91911-0.180596 2.03682-1.01841 1.15158-1.8622 0.710469-3.03158 0.710469-4.52376 0.710469-6.01595 1.1516-7.17942 2.03682-8.0173 2.91911-8.86108 4.14473-9.28445 5.70801-9.28445Z" transform="matrix(1 0 0 1.00006 1047.13 376.453)"/><path d="M0.580275-9.07148 3.39881-9.07148 4.92646-2.81868 6.45411-9.07148 8.86997-9.07148 10.3976-2.87788 11.9253-9.07148 14.7438-9.07148 12.3517 0 9.18973 0 7.66208-6.22915 6.13442 0 2.97248 0Z" transform="matrix(1 0 0 1.00006 1058.52 376.453)"/><path d="M1.39744-9.07148 4.28699-9.07148 4.28699 0 1.39744 0ZM1.39744-12.6005 4.28699-12.6005 4.28699-10.232 1.39744-10.232Z" transform="matrix(1 0 0 1.00006 1073.84 376.453)"/><path d="M8.71602-8.78726 8.71602-6.41878C8.31929-6.68523 7.92551-6.88359 7.53178-7.0109 7.13505-7.14413 6.72649-7.21222 6.30017-7.21222 5.48601-7.21222 4.85543-6.97537 4.40538-6.50167 3.95533-6.02798 3.73036-5.36776 3.73036-4.52397 3.73036-3.67723 3.95537-3.01996 4.40538-2.54627 4.85538-2.07257 5.48601-1.83572 6.30017-1.83572 6.75018-1.83572 7.17647-1.90086 7.57915-2.03704 7.98771-2.17027 8.36669-2.37159 8.71602-2.64101L8.71602-0.272523C8.26601-0.0978468 7.80713 0.0264967 7.3423 0.106434 6.87452 0.192291 6.40673 0.236704 5.93303 0.236704 4.29882 0.236704 3.01976-0.18074 2.09609-1.01855 1.17234-1.86234 0.710545-3.03173 0.710545-4.52391 0.710545-6.01609 1.1724-7.17957 2.09609-8.01744 3.01983-8.86123 4.29874-9.2846 5.93303-9.2846 6.40673-9.2846 6.87156-9.24019 7.33047-9.15433 7.79529-9.07439 8.25718-8.95301 8.71602-8.78721Z" transform="matrix(1 0 0 1.00006 1079.52 376.453)"/><path d="M5.70801-7.21201C5.06852-7.21201 4.57705-6.97813 4.23955-6.51331 3.89908-6.05441 3.73032-5.39121 3.73032-4.52378 3.73032-3.65339 3.89908-2.98726 4.23955-2.52243 4.57705-2.06354 5.06855-1.83557 5.70801-1.83557 6.33861-1.83557 6.82123-2.06354 7.15274-2.52243 7.49025-2.98724 7.66197-3.65339 7.66197-4.52378 7.66197-5.39121 7.49026-6.05439 7.15274-6.51331 6.82116-6.97812 6.33859-7.21201 5.70801-7.21201ZM5.70801-9.28445C7.26234-9.28445 8.47909-8.86109 9.35547-8.0173 10.2378-7.17942 10.6818-6.01595 10.6818-4.52376 10.6818-3.03158 10.2377-1.8622 9.35547-1.01841 8.47917-0.180535 7.26234 0.236848 5.70801 0.236848 4.14481 0.236848 2.91911-0.180596 2.03682-1.01841 1.15158-1.8622 0.710469-3.03158 0.710469-4.52376 0.710469-6.01595 1.1516-7.17942 2.03682-8.0173 2.91911-8.86108 4.14473-9.28445 5.70801-9.28445Z" transform="matrix(1 0 0 1.00006 1089.35 376.453)"/><path d="M10.5039-5.51853 10.5039 0 7.59067 0 7.59067-4.22772C7.59067-5.00928 7.56994-5.54521 7.53145-5.83829 7.49889-6.13731 7.43968-6.35936 7.35381-6.50147 7.24131-6.69095 7.08736-6.83602 6.89196-6.93963 6.70248-7.04917 6.48043-7.10543 6.22878-7.10543 5.62778-7.10543 5.15406-6.86858 4.80769-6.39488 4.45834-5.9271 4.28662-5.28469 4.28662-4.46455L4.28662 2.27374e-05 1.39708 2.27374e-05 1.39708-9.07146 4.28662-9.07146 4.28662-7.74511C4.72775-8.27209 5.19256-8.65991 5.68407-8.90563 6.17257-9.15728 6.71438-9.28458 7.30646-9.28458 8.3545-9.28458 9.14796-8.95891 9.68677-8.31354 10.2315-7.67405 10.5039-6.74148 10.5039-5.51873Z" transform="matrix(1 0 0 1.00006 1100.74 376.453)"/><path d="M7.35412-12.6003 7.35412-10.6937 5.75538-10.6937C5.34385-10.6937 5.05667-10.6167 4.8909-10.4687 4.73102-10.3177 4.65405-10.0601 4.65405-9.69897L4.65405-9.07133 7.1291-9.07133 7.1291-6.99889 4.65405-6.99889 4.65405 0 1.75268 0 1.75268-6.99889 0.319764-6.99889 0.319764-9.07133 1.75268-9.07133 1.75268-9.69897C1.75268-10.6849 2.02801-11.4161 2.58168-11.8898 3.13235-12.3635 3.98504-12.6003 5.13965-12.6003Z" transform="matrix(1 0 0 1.00006 922.088 393.034)"/><path d="M8.12409-6.59621C7.86947-6.71463 7.61782-6.80049 7.36617-6.85674 7.12044-6.91891 6.86879-6.95148 6.60826-6.95148 5.86515-6.95148 5.29373-6.70871 4.89113-6.2291 4.48848-5.7554 4.28716-5.07153 4.28716-4.18038L4.28716-2.27374e-05 1.39761-2.27374e-05 1.39761-9.0715 4.28716-9.0715 4.28716-7.57932C4.65723-8.17144 5.08358-8.60076 5.56614-8.87012 6.05464-9.14546 6.63495-9.28461 7.30699-9.28461 7.40765-9.28461 7.51424-9.27869 7.62674-9.27277 7.73628-9.26389 7.90208-9.24909 8.12412-9.2254Z" transform="matrix(1 0 0 1.00006 929.3 393.034)"/><path d="M5.70801-7.21201C5.06852-7.21201 4.57705-6.97813 4.23955-6.51331 3.89908-6.05441 3.73032-5.39121 3.73032-4.52378 3.73032-3.65339 3.89908-2.98726 4.23955-2.52243 4.57705-2.06354 5.06855-1.83557 5.70801-1.83557 6.33861-1.83557 6.82123-2.06354 7.15274-2.52243 7.49025-2.98724 7.66197-3.65339 7.66197-4.52378 7.66197-5.39121 7.49026-6.05439 7.15274-6.51331 6.82116-6.97812 6.33859-7.21201 5.70801-7.21201ZM5.70801-9.28445C7.26234-9.28445 8.47909-8.86109 9.35547-8.0173 10.2378-7.17942 10.6818-6.01595 10.6818-4.52376 10.6818-3.03158 10.2377-1.8622 9.35547-1.01841 8.47917-0.180535 7.26234 0.236848 5.70801 0.236848 4.14481 0.236848 2.91911-0.180596 2.03682-1.01841 1.15158-1.8622 0.710469-3.03158 0.710469-4.52376 0.710469-6.01595 1.1516-7.17942 2.03682-8.0173 2.91911-8.86108 4.14473-9.28445 5.70801-9.28445Z" transform="matrix(1 0 0 1.00006 937.477 393.034)"/><path d="M9.79377-7.5555C10.1638-8.12393 10.5991-8.55322 11.0965-8.8463 11.5998-9.13644 12.1563-9.28447 12.7662-9.28447 13.8084-9.28447 14.6018-8.9588 15.1465-8.31343 15.6913-7.67394 15.9637-6.74136 15.9637-5.51862L15.9637-9.09497e-05 13.0504-9.09497e-05 13.0504-4.72523C13.0563-4.79629 13.0622-4.86734 13.0622-4.9384L13.0622-5.26998C13.0622-5.90948 12.9675-6.37427 12.778-6.66743 12.5885-6.95757 12.2836-7.10559 11.8662-7.10559 11.3125-7.10559 10.8862-6.87466 10.5872-6.41873 10.2941-5.96872 10.1401-5.3115 10.1253-4.45285L10.1253-0.000106108 7.21205-0.000106108 7.21205-4.72525C7.21205-5.72592 7.12323-6.37432 6.95151-6.66741 6.77684-6.95754 6.46893-7.10557 6.02777-7.10557 5.47413-7.10557 5.04483-6.87464 4.73696-6.41871 4.43498-5.95982 4.28695-5.30852 4.28695-4.46473L4.28695-0.000159162 1.37368-0.000159162 1.37368-9.07164 4.28695-9.07164 4.28695-7.74529C4.64222-8.24859 5.04782-8.63349 5.50674-8.89398 5.97155-9.15452 6.48377-9.28478 7.04622-9.28478 7.66794-9.28478 8.22159-9.13379 8.70415-8.83477 9.18377-8.53278 9.54794-8.10646 9.79366-7.55579Z" transform="matrix(1 0 0 1.00006 948.866 393.034)"/><path d="M4.55931-11.6408 4.55931-9.07102 7.5436-9.07102 7.5436-6.99858 4.55931-6.99858 4.55931-3.14982C4.55931-2.72941 4.64221-2.44519 4.808-2.29716 4.97379-2.14617 5.30538-2.07215 5.80276-2.07215L7.29494-2.07215 7.29494 0.000288008 4.80807 0.000288008C3.66233 0.000288008 2.84818-0.23656 2.3685-0.710257 1.8948-1.18987 1.65795-2.00402 1.65795-3.14983L1.65795-6.9986 0.213217-6.9986 0.213217-9.07104 1.65795-9.07104 1.65795-11.6408Z" transform="matrix(1 0 0 1.00006 971.915 393.034)"/><path d="M10.5039-5.51853 10.5039 0 7.59067 0 7.59067-4.20408C7.59067-5.00049 7.56994-5.54521 7.53145-5.83829 7.49889-6.13731 7.43968-6.35936 7.35381-6.50147 7.24131-6.69095 7.08736-6.83602 6.89196-6.93963 6.70248-7.04917 6.48043-7.10543 6.22878-7.10543 5.62778-7.10543 5.15406-6.86858 4.80769-6.39488 4.45834-5.9271 4.28662-5.28469 4.28662-4.46455L4.28662 2.27374e-05 1.39708 2.27374e-05 1.39708-12.6003 4.28662-12.6003 4.28662-7.74496C4.72775-8.27194 5.19256-8.65976 5.68407-8.90547 6.17257-9.15712 6.71438-9.28443 7.30646-9.28443 8.3545-9.28443 9.14796-8.95876 9.68677-8.31339 10.2315-7.6739 10.5039-6.74132 10.5039-5.51858Z" transform="matrix(1 0 0 1.00006 979.84 393.034)"/><path d="M10.4448-4.55931 10.4448-3.7303 3.67096-3.7303C3.74201-3.04936 3.98478-2.54015 4.40519-2.20265 4.82263-1.86218 5.41178-1.69342 6.16969-1.69342 6.77661-1.69342 7.4013-1.78224 8.04083-1.9658 8.68032-2.1464 9.33755-2.41878 10.0185-2.78291L10.0185-0.544713C9.33167-0.290099 8.64481-0.0976649 7.95791 0.0355614 7.27102 0.168788 6.58419 0.236879 5.8973 0.236879 4.26308 0.236879 2.98706-0.17761 2.07218-1.00656 1.16329-1.84147 0.71028-3.01382 0.71028-4.52373 0.71028-5.99811 1.15437-7.1587 2.04845-8.00544 2.93961-8.8581 4.17122-9.28442 5.74329-9.28442 7.16438-9.28442 8.30125-8.85218 9.1539-7.99362 10.0125-7.14096 10.4447-5.99523 10.4447-4.55936ZM7.46053-5.51853C7.46053-6.0692 7.2977-6.51329 6.975-6.84488 6.65821-7.18239 6.24077-7.35411 5.71974-7.35411 5.15722-7.35411 4.70125-7.19423 4.34602-6.88041 3.99667-6.56362 3.78055-6.11067 3.69468-5.51851Z" transform="matrix(1 0 0 1.00006 991.644 393.034)"/><path d="M1.52765-12.091 4.99746-12.091 9.40284-3.80094 9.40284-12.091 12.3516-12.091 12.3516 0 8.86987 0 4.47632-8.29007 4.47632 0 1.52758 0Z" transform="matrix(1 0 0 1.00006 1008.66 393.034)"/><path d="M5.70801-7.21201C5.06852-7.21201 4.57705-6.97813 4.23955-6.51331 3.89908-6.05441 3.73032-5.39121 3.73032-4.52378 3.73032-3.65339 3.89908-2.98726 4.23955-2.52243 4.57705-2.06354 5.06855-1.83557 5.70801-1.83557 6.33861-1.83557 6.82123-2.06354 7.15274-2.52243 7.49025-2.98724 7.66197-3.65339 7.66197-4.52378 7.66197-5.39121 7.49026-6.05439 7.15274-6.51331 6.82116-6.97812 6.33859-7.21201 5.70801-7.21201ZM5.70801-9.28445C7.26234-9.28445 8.47909-8.86109 9.35547-8.0173 10.2378-7.17942 10.6818-6.01595 10.6818-4.52376 10.6818-3.03158 10.2377-1.8622 9.35547-1.01841 8.47917-0.180535 7.26234 0.236848 5.70801 0.236848 4.14481 0.236848 2.91911-0.180596 2.03682-1.01841 1.15158-1.8622 0.710469-3.03158 0.710469-4.52376 0.710469-6.01595 1.1516-7.17942 2.03682-8.0173 2.91911-8.86108 4.14473-9.28445 5.70801-9.28445Z" transform="matrix(1 0 0 1.00006 1022.53 393.034)"/><path d="M1.2908-3.529 1.2908-9.07125 4.20408-9.07125 4.20408-8.15941C4.20408-7.66794 4.19815-7.05217 4.19223-6.31199L4.19223-4.81981C4.19223-4.0915 4.21-3.5675 4.25145-3.24478 4.28993-2.928 4.3521-2.69411 4.44092-2.54608 4.55935-2.3566 4.7133-2.20857 4.90278-2.10791 5.09818-2.00429 5.32023-1.95396 5.56596-1.95396 6.17288-1.95396 6.64659-2.18489 6.98705-2.65267 7.33344-3.11748 7.50811-3.7659 7.50811-4.59483L7.50811-9.07122 10.4095-9.07122 10.4095 0.000257691 7.50811 0.000257691 7.50811-1.31427C7.0729-0.78432 6.61105-0.393555 6.12257-0.141851 5.63111 0.109799 5.09522 0.237106 4.512 0.237106 3.461 0.237106 2.65867-0.082643 2.10797-0.722111 1.56322-1.36752 1.29086-2.30304 1.29086-3.52874Z" transform="matrix(1 0 0 1.00006 1033.92 393.034)"/><path d="M10.5039-5.51853 10.5039 0 7.59067 0 7.59067-4.22772C7.59067-5.00928 7.56994-5.54521 7.53145-5.83829 7.49889-6.13731 7.43968-6.35936 7.35381-6.50147 7.24131-6.69095 7.08736-6.83602 6.89196-6.93963 6.70248-7.04917 6.48043-7.10543 6.22878-7.10543 5.62778-7.10543 5.15406-6.86858 4.80769-6.39488 4.45834-5.9271 4.28662-5.28469 4.28662-4.46455L4.28662 2.27374e-05 1.39708 2.27374e-05 1.39708-9.07146 4.28662-9.07146 4.28662-7.74511C4.72775-8.27209 5.19256-8.65991 5.68407-8.90563 6.17257-9.15728 6.71438-9.28458 7.30646-9.28458 8.3545-9.28458 9.14796-8.95891 9.68677-8.31354 10.2315-7.67405 10.5039-6.74148 10.5039-5.51873Z" transform="matrix(1 0 0 1.00006 1045.73 393.034)"/><path d="M1.52765-12.091 6.69095-12.091C8.23042-12.091 9.40875-11.7476 10.2318-11.0607 11.0609-10.3798 11.4753-9.40868 11.4753-8.14743 11.4753-6.87436 11.0608-5.89733 10.2318-5.21051 9.40883-4.52957 8.2305-4.19203 6.69095-4.19203L4.64223-4.19203 4.64223 0.000151583 1.52765 0.000151583ZM4.64223-9.82909 4.64223-6.45402 6.35936-6.45402C6.96628-6.45402 7.43113-6.59909 7.7568-6.89219 8.08839-7.18232 8.25418-7.60273 8.25418-8.14745 8.25418-8.68331 8.08839-9.09779 7.7568-9.39088 7.43113-9.68102 6.9663-9.82905 6.35936-9.82905Z" transform="matrix(1 0 0 1.00006 1063.3 393.034)"/><path d="M8.12409-6.59621C7.86947-6.71463 7.61782-6.80049 7.36617-6.85674 7.12044-6.91891 6.86879-6.95148 6.60826-6.95148 5.86515-6.95148 5.29373-6.70871 4.89113-6.2291 4.48848-5.7554 4.28716-5.07153 4.28716-4.18038L4.28716-2.27374e-05 1.39761-2.27374e-05 1.39761-9.0715 4.28716-9.0715 4.28716-7.57932C4.65723-8.17144 5.08358-8.60076 5.56614-8.87012 6.05464-9.14546 6.63495-9.28461 7.30699-9.28461 7.40765-9.28461 7.51424-9.27869 7.62674-9.27277 7.73628-9.26389 7.90208-9.24909 8.12412-9.2254Z" transform="matrix(1 0 0 1.00006 1075.46 393.034)"/><path d="M5.70801-7.21201C5.06852-7.21201 4.57705-6.97813 4.23955-6.51331 3.89908-6.05441 3.73032-5.39121 3.73032-4.52378 3.73032-3.65339 3.89908-2.98726 4.23955-2.52243 4.57705-2.06354 5.06855-1.83557 5.70801-1.83557 6.33861-1.83557 6.82123-2.06354 7.15274-2.52243 7.49025-2.98724 7.66197-3.65339 7.66197-4.52378 7.66197-5.39121 7.49026-6.05439 7.15274-6.51331 6.82116-6.97812 6.33859-7.21201 5.70801-7.21201ZM5.70801-9.28445C7.26234-9.28445 8.47909-8.86109 9.35547-8.0173 10.2378-7.17942 10.6818-6.01595 10.6818-4.52376 10.6818-3.03158 10.2377-1.8622 9.35547-1.01841 8.47917-0.180535 7.26234 0.236848 5.70801 0.236848 4.14481 0.236848 2.91911-0.180596 2.03682-1.01841 1.15158-1.8622 0.710469-3.03158 0.710469-4.52376 0.710469-6.01595 1.1516-7.17942 2.03682-8.0173 2.91911-8.86108 4.14473-9.28445 5.70801-9.28445Z" transform="matrix(1 0 0 1.00006 1083.63 393.034)"/><path d="M1.39744-9.07148 4.28699-9.07148 4.28699-0.165983C4.28699 1.04789 3.99389 1.97748 3.41069 2.617 2.83337 3.25649 1.99256 3.57622 0.888276 3.57622L-0.544637 3.57622-0.544637 1.68143-0.047256 1.68143C0.503414 1.68143 0.882402 1.55413 1.08962 1.30248 1.2939 1.05675 1.39752 0.568246 1.39752-0.165983ZM1.39744-12.6005 4.28699-12.6005 4.28699-10.232 1.39744-10.232Z" transform="matrix(1 0 0 1.00006 1095.02 393.034)"/><path d="M10.4448-4.55931 10.4448-3.7303 3.67096-3.7303C3.74201-3.04936 3.98478-2.54015 4.40519-2.20265 4.82263-1.86218 5.41178-1.69342 6.16969-1.69342 6.77661-1.69342 7.4013-1.78224 8.04083-1.9658 8.68032-2.1464 9.33755-2.41878 10.0185-2.78291L10.0185-0.544713C9.33167-0.290099 8.64481-0.0976649 7.95791 0.0355614 7.27102 0.168788 6.58419 0.236879 5.8973 0.236879 4.26308 0.236879 2.98706-0.17761 2.07218-1.00656 1.16329-1.84147 0.71028-3.01382 0.71028-4.52373 0.71028-5.99811 1.15437-7.1587 2.04845-8.00544 2.93961-8.8581 4.17122-9.28442 5.74329-9.28442 7.16438-9.28442 8.30125-8.85218 9.1539-7.99362 10.0125-7.14096 10.4447-5.99523 10.4447-4.55936ZM7.46053-5.51853C7.46053-6.0692 7.2977-6.51329 6.975-6.84488 6.65821-7.18239 6.24077-7.35411 5.71974-7.35411 5.15722-7.35411 4.70125-7.19423 4.34602-6.88041 3.99667-6.56362 3.78055-6.11067 3.69468-5.51851Z" transform="matrix(1 0 0 1.00006 1100.7 393.034)"/><path d="M8.71602-8.78726 8.71602-6.41878C8.31929-6.68523 7.92551-6.88359 7.53178-7.0109 7.13505-7.14413 6.72649-7.21222 6.30017-7.21222 5.48601-7.21222 4.85543-6.97537 4.40538-6.50167 3.95533-6.02798 3.73036-5.36776 3.73036-4.52397 3.73036-3.67723 3.95537-3.01996 4.40538-2.54627 4.85538-2.07257 5.48601-1.83572 6.30017-1.83572 6.75018-1.83572 7.17647-1.90086 7.57915-2.03704 7.98771-2.17027 8.36669-2.37159 8.71602-2.64101L8.71602-0.272523C8.26601-0.0978468 7.80713 0.0264967 7.3423 0.106434 6.87452 0.192291 6.40673 0.236704 5.93303 0.236704 4.29882 0.236704 3.01976-0.18074 2.09609-1.01855 1.17234-1.86234 0.710545-3.03173 0.710545-4.52391 0.710545-6.01609 1.1724-7.17957 2.09609-8.01744 3.01983-8.86123 4.29874-9.2846 5.93303-9.2846 6.40673-9.2846 6.87156-9.24019 7.33047-9.15433 7.79529-9.07439 8.25718-8.95301 8.71602-8.78721Z" transform="matrix(1 0 0 1.00006 1111.95 393.034)"/><path d="M4.55931-11.6408 4.55931-9.07102 7.5436-9.07102 7.5436-6.99858 4.55931-6.99858 4.55931-3.14982C4.55931-2.72941 4.64221-2.44519 4.808-2.29716 4.97379-2.14617 5.30538-2.07215 5.80276-2.07215L7.29494-2.07215 7.29494 0.000288008 4.80807 0.000288008C3.66233 0.000288008 2.84818-0.23656 2.3685-0.710257 1.8948-1.18987 1.65795-2.00402 1.65795-3.14983L1.65795-6.9986 0.213217-6.9986 0.213217-9.07104 1.65795-9.07104 1.65795-11.6408Z" transform="matrix(1 0 0 1.00006 1121.78 393.034)"/></g></g></g></svg>