<?xml version="1.0" encoding="UTF-8"?>
<svg width="700pt" height="700pt" version="1.1" viewBox="0 0 700 700" xmlns="http://www.w3.org/2000/svg">
 <path d="m415.86 62.535c-79.801 1.8672-152.13 53.199-178.27 131.13h-6.5312l-21.465-43.398c-0.93359-1.8672-3.2656-3.2656-5.1328-3.2656l-46.668-0.003906c-3.7344 0-6.5352 3.7344-5.6016 7.4648l9.8008 39.199h-10.734c-2.8008 0.46875-5.1328 2.8008-5.1328 6.0664v12.133l-27.531-8.8672c-0.46484-0.46875-1.3984-0.46875-2.332-0.46875-2.8008 0.46875-5.1328 2.8008-5.1328 6.0664v93.332c0 3.7344 3.7344 6.5352 7.4648 5.1328l27.531-8.8672v12.133c0 3.2656 2.332 6.0664 5.6016 6.0664h10.266l-9.8008 39.199c-0.93359 3.7344 1.8672 7.4648 5.6016 7.4648h46.668c1.8672 0 4.1992-1.3984 5.1328-3.2656l21.465-43.398h6.5352c7.9336 23.801 20.531 45.266 36.398 63.934l-21.934 110.13c-0.46484 3.7344 2.332 7 6.0664 7h68.598c2.332 0 4.668-1.3984 5.6016-3.7344l21.465-58.332c29.867 11.199 63 14.934 96.133 9.8008 13.066-1.8672 25.199-5.1328 36.867-9.332l21 57.867c0.93359 2.332 3.2656 3.7344 5.6016 3.7344h69.066c3.7344 0 6.0664-3.2656 5.6016-7l-21.465-110.13c28.934-34.066 45.734-77.934 46.199-125.07 0-94.734-68.598-175.46-162.4-190.4-11.668-1.8672-23.332-2.332-34.531-2.332zm0 11.668c11.199 0 21.934 0.46875 33.133 2.332 87.734 14 152.13 89.598 152.13 178.73-0.46484 89.133-64.867 164.73-153.07 178.27-85.867 13.531-168.93-35.934-197.86-117.13h37.801c28.465 61.133 95.664 95.199 161.93 81.199 67.668-14 115.73-73.266 116.2-142.33 0-68.598-48.066-128.33-115.27-142.8-16.801-3.7344-33.602-4.1992-49.934-1.8672-48.531 6.5352-91.934 36.867-112.93 83.066l-37.801 0.003907c25.668-70.934 91.934-117.6 165.66-119.46zm0.93359 93.332c9.332-0.46875 18.668 0.93359 28 3.7344 37.332 10.734 62.531 44.801 63 83.531 0 38.734-25.199 72.801-62.531 84-34.531 10.266-71.867-1.3984-93.801-29.398 10.266-3.2656 20.531-7.4648 30.332-12.133 1.3984-0.46875 2.8008-1.3984 4.668-2.332 20.531 17.734 51.332 16.801 70.934-2.8008 20.066-20.535 20.531-53.668 0-74.199-10.266-10.266-23.332-15.398-36.867-15.398-12.133 0-24.266 4.1992-34.066 12.602-1.8672-0.93359-3.2656-1.8672-4.668-2.332-9.8008-4.668-20.066-8.8672-30.332-12.133 16.332-20.066 40.133-32.199 65.332-33.133zm-259 37.801h157.27c13.535 0 39.668 7.4648 61.598 17.734 10.734 5.1328 20.531 11.199 27.531 17.266 7 5.6016 10.266 11.199 10.266 14.934 0 3.2656-3.2656 8.8672-10.266 14.465-7 6.0664-16.801 12.133-27.531 17.266-21.934 10.266-48.066 17.734-61.598 17.734h-157.26zm-64.867 12.133c-7.4648 0.93359-7 12.133 0.46484 11.668h6.0664c7.9336 0.46875 7.9336-11.668 0-11.668h-6.5352zm117.13 8.3984c-15.867 0-28.934 13.066-28.934 29.398 0 15.867 13.066 28.934 28.934 28.934 16.332 0 29.398-13.066 29.398-28.934 0-16.332-13.066-29.398-29.398-29.398zm64.398 6.0664c-13.066 0-23.332 10.266-23.332 23.332 0 12.602 10.266 23.332 23.332 23.332 12.602 0 23.332-10.734 23.332-23.332 0-13.066-10.734-23.332-23.332-23.332zm-181.53 17.734c-7.9336 0.46875-7.4648 12.133 0.46484 11.668h6.0664c7.4648 0 7.4648-11.668 0-11.668h-6.5352zm0.46484 32.199c-7.9336-0.46875-7.9336 11.668 0 11.668h6.0664c7.9336 0 7.9336-12.133 0-11.668z"/>
</svg>
