<?xml version="1.0" encoding="iso-8859-1"?>
<!-- Generator: Adobe Illustrator 18.0.0, SVG Export Plug-In . SVG Version: 6.00 Build 0)  -->
<!DOCTYPE svg PUBLIC "-//W3C//DTD SVG 1.1//EN" "http://www.w3.org/Graphics/SVG/1.1/DTD/svg11.dtd">
<svg version="1.1" id="Capa_1" xmlns="http://www.w3.org/2000/svg" xmlns:xlink="http://www.w3.org/1999/xlink" x="0px" y="0px"
	 viewBox="0 0 223.966 223.966" style="enable-background:new 0 0 223.966 223.966;" xml:space="preserve">
<g>
	<path d="M111.983,0C50.237,0,0.002,50.235,0.002,111.983c0,61.747,50.234,111.982,111.981,111.982s111.98-50.235,111.98-111.982
		C223.963,50.235,173.729,0,111.983,0z M111.983,208.966c-53.475,0-96.981-43.506-96.981-96.982C15.002,58.507,58.508,15,111.983,15
		s96.98,43.507,96.98,96.983C208.963,165.46,165.458,208.966,111.983,208.966z"/>
	<path d="M111.983,41.793c-38.703,0-70.19,31.487-70.19,70.19s31.487,70.19,70.19,70.19c38.703,0,70.189-31.487,70.189-70.19
		S150.686,41.793,111.983,41.793z M111.983,167.174c-30.432,0-55.19-24.758-55.19-55.19s24.758-55.19,55.19-55.19
		c30.432,0,55.189,24.758,55.189,55.19S142.415,167.174,111.983,167.174z"/>
	<path d="M111.983,79.097c-18.135,0-32.89,14.753-32.89,32.887c0,18.14,14.754,32.897,32.89,32.897
		c18.133,0,32.886-14.757,32.886-32.897C144.869,93.85,130.116,79.097,111.983,79.097z M111.983,129.88
		c-9.864,0-17.89-8.028-17.89-17.897c0-9.863,8.025-17.887,17.89-17.887c9.862,0,17.886,8.024,17.886,17.887
		C129.869,121.852,121.845,129.88,111.983,129.88z"/>
</g>
<g>
</g>
<g>
</g>
<g>
</g>
<g>
</g>
<g>
</g>
<g>
</g>
<g>
</g>
<g>
</g>
<g>
</g>
<g>
</g>
<g>
</g>
<g>
</g>
<g>
</g>
<g>
</g>
<g>
</g>
</svg>
