<svg width="666" height="602" xmlns="http://www.w3.org/2000/svg" xmlns:xlink="http://www.w3.org/1999/xlink" xml:space="preserve" overflow="hidden"><defs><clipPath id="clip0"><rect x="29" y="18" width="666" height="602"/></clipPath></defs><g clip-path="url(#clip0)" transform="translate(-29 -18)"><path d="M517.35 478.709 496.071 457.431 482.951 470.554 517.349 504.951 607.428 414.872 594.308 401.752Z" transform="matrix(1 0 0 1.00086 -24.1836 18)"/><path d="M637.988 380.469C627.754 380.469 619.427 372.145 619.427 361.908L619.427 346.894 614.294 344.334C613.72 344.045 603.963 339.305 582.307 336.371L582.307 27.8414C582.307 12.4941 569.818 0.000821924 554.467 0.000821924L220.396 0.000821924C205.048 0.000821924 192.555 12.49 192.555 27.8414L192.555 37.5095C182.18 39.2152 173.468 46.5194 170.108 56.7569 169.181 59.5703 167.175 61.7495 164.57 62.7609 163.354 63.2345 162.146 63.7241 160.95 64.2538 158.418 65.3414 155.464 65.209 152.847 63.9006 141.815 58.3262 128.535 60.4572 119.802 69.1821L113.252 75.7238C104.527 84.4648 102.404 97.7452 107.983 108.761 109.311 111.386 109.431 114.348 108.328 116.88 107.81 118.068 107.324 119.276 106.843 120.508 105.832 123.096 103.64 125.111 100.839 126.038 89.0875 129.879 81.198 140.775 81.198 153.136L81.198 162.379C81.198 174.739 89.0962 185.636 100.824 189.485 103.637 190.412 105.816 192.418 106.827 195.023 107.309 196.247 107.791 197.455 108.32 198.651 109.416 201.175 109.284 204.137 107.967 206.754 102.389 217.778 104.516 231.047 113.249 239.799L119.79 246.349C128.523 255.074 141.804 257.197 152.828 251.618 155.452 250.302 158.414 250.17 160.947 251.273 162.134 251.791 163.342 252.277 164.574 252.758 167.163 253.77 169.178 255.961 170.105 258.762 173.464 269.008 182.177 276.3 192.552 278.01L192.552 289.395C189.638 288.356 186.54 287.69 183.273 287.69L179.207 287.69C155.866 287.682 136.879 306.669 136.879 330.009 136.879 333.453 137.305 336.896 138.152 340.263L152.84 399.042 99.7605 399.03C84.4131 399.03 71.9199 411.519 71.9199 426.871 71.9199 439.705 80.689 450.433 92.5204 453.636 91.2321 456.842 90.4816 460.326 90.4816 463.99 90.4816 473.875 95.6949 482.523 103.48 487.46 101.181 491.513 99.76 496.125 99.76 501.109 99.76 510.994 104.973 519.643 112.759 524.579 110.459 528.633 109.038 533.244 109.038 538.228 109.038 553.576 121.528 566.069 136.879 566.069L235.097 566.069C245.13 566.069 255.18 563.693 264.142 559.21L287.547 547.507 500.569 547.507C507.472 554.679 514.881 561.453 522.887 567.69 529.224 572.631 537.151 575.348 545.185 575.348 553.22 575.348 561.146 572.631 567.483 567.69 618.179 528.264 647.263 468.815 647.263 404.59L647.263 380.473ZM545.188 334.067C497.145 334.067 476.927 343.912 476.083 344.321L470.95 346.893 470.95 361.907C470.95 372.141 462.626 380.468 452.389 380.468L443.11 380.468 443.11 399.029 288.167 399.025 268.876 386.162C264.068 382.959 258.863 380.419 253.38 378.581L242.85 375.081C223.866 368.756 211.116 351.066 211.116 331.059L211.116 92.7936 563.752 92.7936 563.752 334.614C558.082 334.277 551.937 334.064 545.191 334.064ZM192.552 203.217C171.406 198.902 155.433 180.157 155.433 157.754 155.433 135.351 171.402 116.605 192.552 112.291ZM220.393 18.5611 554.464 18.5611C559.585 18.5611 563.743 22.7189 563.743 27.8398L563.743 74.2374 211.117 74.2374 211.117 27.8398C211.117 22.7148 215.274 18.5611 220.395 18.5611ZM187.737 252.964C185.072 244.873 179.08 238.487 171.302 235.462 170.299 235.072 169.308 234.655 168.333 234.238 160.731 230.951 152.039 231.232 144.466 235.044 140.613 236.983 135.986 236.24 132.924 233.206L126.39 226.665C123.336 223.61 122.594 218.971 124.544 215.11 128.357 207.557 128.654 198.853 125.359 191.259 124.934 190.276 124.516 189.281 124.123 188.289 121.097 180.504 114.704 174.52 106.6 171.855 102.515 170.502 99.7577 166.698 99.7577 162.375L99.7577 153.133C99.7577 148.807 102.515 145.002 106.624 143.657 114.715 140.993 121.101 135.001 124.126 127.223 124.516 126.22 124.933 125.228 125.35 124.253 128.653 116.652 128.356 107.947 124.544 100.387 122.593 96.5338 123.336 91.8945 126.382 88.8447L132.924 82.303C135.978 79.261 140.625 78.5345 144.478 80.4649 152.023 84.2775 160.756 84.5865 168.329 81.2796 169.312 80.8542 170.308 80.4368 171.299 80.0435 179.085 77.0175 185.068 70.6243 187.733 62.5211 188.548 60.0248 190.342 58.1306 192.549 56.9546L192.549 93.5354C161.133 98.0665 136.876 125.1 136.876 157.752 136.876 190.408 161.132 217.438 192.556 221.969L192.556 258.55C190.345 257.362 188.555 255.468 187.736 252.964ZM255.834 542.599C249.429 545.802 242.257 547.5 235.093 547.5L136.875 547.5C131.754 547.5 127.596 543.342 127.596 538.221 127.596 533.1 131.754 528.942 136.875 528.942L183.273 528.942 183.273 510.381 127.597 510.381C122.476 510.381 118.318 506.223 118.318 501.102 118.318 495.981 122.476 491.824 127.597 491.824L183.277 491.824 183.277 473.263 118.314 473.263C113.193 473.263 109.035 469.105 109.035 463.984 109.035 458.863 113.193 454.705 118.314 454.705L183.274 454.705 183.274 436.144 99.7569 436.144C94.6359 436.144 90.4782 431.986 90.4782 426.865 90.4782 421.744 94.636 417.587 99.7569 417.587L176.591 417.595 156.148 335.767C155.667 333.873 155.434 331.93 155.434 330.004 155.434 316.9 166.097 306.237 179.209 306.237L183.274 306.237C188.395 306.237 192.553 310.395 192.553 315.516L192.553 331.059C192.553 359.077 210.408 383.842 236.965 392.695L247.496 396.195C251.413 397.511 255.133 399.333 258.568 401.613L276.074 413.268 276.074 532.477ZM294.631 528.942 294.631 417.582 443.533 417.582C446.057 458.477 460.469 496.932 484.697 528.942ZM628.702 404.585C628.702 463.039 602.234 517.147 556.089 553.045 549.889 557.869 540.482 557.869 534.28 553.045 488.131 517.15 461.668 463.031 461.668 404.585L461.668 397.847C477.664 393.725 489.508 379.164 489.508 361.908L489.508 359.079C497.479 356.639 515.145 352.629 545.184 352.629 575.148 352.629 592.862 356.659 600.865 359.099L600.865 361.908C600.865 379.17 612.703 393.73 628.705 397.847Z" transform="matrix(1 0 0 1.00086 -24.1836 18)"/><path d="M303.906 37.1191 322.468 37.1191 322.468 55.6802 303.906 55.6802Z" transform="matrix(1 0 0 1.00086 -24.1836 18)"/><path d="M229.676 37.1191 248.238 37.1191 248.238 55.6802 229.676 55.6802Z" transform="matrix(1 0 0 1.00086 -24.1836 18)"/><path d="M266.797 37.1191 285.358 37.1191 285.358 55.6802 266.797 55.6802Z" transform="matrix(1 0 0 1.00086 -24.1836 18)"/><path d="M517.35 111.36 257.519 111.36C242.172 111.36 229.678 123.85 229.678 139.201L229.678 287.682C229.678 303.029 242.168 315.522 257.519 315.522L517.35 315.522C532.697 315.522 545.19 303.033 545.19 287.682L545.19 139.201C545.19 123.851 532.701 111.36 517.35 111.36ZM526.633 287.673C526.633 292.794 522.475 296.952 517.354 296.952L257.513 296.952C252.392 296.952 248.234 292.794 248.234 287.673L248.234 139.193C248.234 134.072 252.392 129.914 257.513 129.914L517.344 129.914C522.465 129.914 526.622 134.072 526.622 139.193Z" transform="matrix(1 0 0 1.00086 -24.1836 18)"/><path d="M266.797 204.156 359.596 204.156 359.596 148.475 266.797 148.475ZM285.358 167.037 341.038 167.037 341.038 185.598 285.358 185.598Z" transform="matrix(1 0 0 1.00086 -24.1836 18)"/><path d="M378.157 148.481 415.276 148.481 415.276 167.042 378.157 167.042Z" transform="matrix(1 0 0 1.00086 -24.1836 18)"/><path d="M433.832 148.481 508.07 148.481 508.07 167.042 433.832 167.042Z" transform="matrix(1 0 0 1.00086 -24.1836 18)"/><path d="M378.157 185.59 508.072 185.59 508.072 204.152 378.157 204.152Z" transform="matrix(1 0 0 1.00086 -24.1836 18)"/><path d="M480.23 222.711C464.882 222.711 452.389 235.2 452.389 250.551 452.389 265.899 464.878 278.392 480.23 278.392 495.577 278.392 508.07 265.903 508.07 250.551 508.07 235.2 495.581 222.711 480.23 222.711ZM480.23 259.83C475.109 259.83 470.951 255.672 470.951 250.551 470.951 245.43 475.109 241.272 480.23 241.272 485.351 241.272 489.508 245.43 489.508 250.551 489.512 255.672 485.355 259.83 480.23 259.83Z" transform="matrix(1 0 0 1.00086 -24.1836 18)"/><path d="M266.797 259.831 285.358 259.831 285.358 278.392 266.797 278.392Z" transform="matrix(1 0 0 1.00086 -24.1836 18)"/><path d="M341.027 259.831 359.588 259.831 359.588 278.392 341.027 278.392Z" transform="matrix(1 0 0 1.00086 -24.1836 18)"/><path d="M303.906 259.831 322.468 259.831 322.468 278.392 303.906 278.392Z" transform="matrix(1 0 0 1.00086 -24.1836 18)"/><path d="M266.797 222.711 359.596 222.711 359.596 241.272 266.797 241.272Z" transform="matrix(1 0 0 1.00086 -24.1836 18)"/><path d="M31.079-1.86217C29.4737-1.02741 27.8042-0.401304 26.0704 0.0160275 24.3367 0.441435 22.5267 0.658156 20.6445 0.658156 15.0018 0.658156 10.535-0.915007 7.23992-4.06154 3.95304-7.21598 2.31156-11.4862 2.31156-16.8723 2.31156-22.2741 3.95304-26.5524 7.23992-29.6984 10.5348-32.8528 15.0017-34.4341 20.6445-34.4341 22.5267-34.4341 24.3368-34.2174 26.0704-33.792 27.8042-33.3746 29.4737-32.7485 31.079-31.9138L31.079-24.9146C29.4617-26.0142 27.8684-26.8249 26.2952-27.3386 24.7301-27.8523 23.0765-28.1092 21.3348-28.1092 18.2285-28.1092 15.7844-27.1139 13.9985-25.1233 12.2206-23.1327 11.3336-20.3796 11.3336-16.872 11.3336-13.3805 12.2206-10.6434 13.9985-8.65281 15.7844-6.66221 18.2285-5.66696 21.3348-5.66696 23.0765-5.66696 24.7301-5.92381 26.2952-6.43752 27.8684-6.95122 29.4617-7.75794 31.079-8.86158Z" transform="matrix(1 0 0 1.00086 47.7347 733.16)"/><path d="M22.7478-18.4614C22.0294-18.7905 21.3191-19.0394 20.6127-19.1999 19.9144-19.3604 19.2161-19.4407 18.5097-19.4407 16.4229-19.4407 14.8174-18.7705 13.6938-17.4341 12.57-16.0936 12.0082-14.1792 12.0082-11.687L12.0082-0.000236303 3.90137-0.000236303 3.90137-25.3648 12.0082-25.3648 12.0082-21.207C13.0436-22.8645 14.2396-24.0725 15.5881-24.835 16.9446-25.6055 18.5659-25.9908 20.4522-25.9908 20.7292-25.9908 21.0221-25.9748 21.3352-25.9427 21.6562-25.9186 22.1138-25.8704 22.7158-25.7982Z" transform="matrix(1 0 0 1.00086 81.7876 733.16)"/><path d="M29.2173-12.746 29.2173-10.4504 10.2586-10.4504C10.4593-8.544 11.1496-7.11529 12.3295-6.16412 13.5053-5.20895 15.1468-4.73541 17.2578-4.73541 18.9675-4.73541 20.7173-4.98424 22.5073-5.48992 24.2932-5.99158 26.1352-6.75815 28.0296-7.78555L28.0296-1.54088C26.1032-0.810458 24.1808-0.264639 22.2664 0.0965966 20.3481 0.469832 18.4337 0.658464 16.5193 0.658464 11.9281 0.658464 8.3563-0.505381 5.81172-2.84108 3.26324-5.17278 1.99101-8.44763 1.99101-12.6656 1.99101-16.7953 3.23509-20.0501 5.73138-22.426 8.23568-24.8019 11.6751-25.9899 16.0537-25.9899 20.0429-25.9899 23.2335-24.7858 25.6214-22.3779 28.0173-19.978 29.2173-16.7674 29.2173-12.746ZM20.8857-15.4429C20.8857-16.984 20.4362-18.2241 19.5372-19.1673 18.6383-20.1184 17.4664-20.596 16.0216-20.596 14.4484-20.596 13.1681-20.1505 12.1848-19.2635 11.1975-18.3846 10.5875-17.1124 10.3548-15.4428Z" transform="matrix(1 0 0 1.00086 104.667 733.16)"/><path d="M15.2662-11.4134C13.5726-11.4134 12.3004-11.1245 11.4455-10.5466 10.5987-9.97668 10.1773-9.1379 10.1773-8.02624 10.1773-6.99884 10.5184-6.18811 11.2047-5.60218 11.8869-5.02427 12.8422-4.73531 14.0621-4.73531 15.5912-4.73531 16.8754-5.28112 17.9149-6.37279 18.9623-7.47242 19.488-8.84493 19.488-10.4824L19.488-11.4135ZM27.6588-14.4796 27.6588 0.000616443 19.4877 0.000616443 19.4877-3.75578C18.3961-2.21467 17.168-1.0909 15.8116-0.38466 14.4511 0.309639 12.7976 0.658772 10.8511 0.658772 8.21842 0.658772 6.08337-0.103758 4.44589-1.63686 2.80841-3.17797 1.98978-5.16857 1.98978-7.60865 1.98978-10.5825 3.00916-12.7657 5.05596-14.1584 7.11077-15.547 10.3254-16.2452 14.7039-16.2452L19.4877-16.2452 19.4877-16.8713C19.4877-18.1556 18.978-19.0947 17.9626-19.6967 16.9433-20.2947 15.3661-20.5957 13.2269-20.5957 11.4932-20.5957 9.87583-20.4191 8.3788-20.0659 6.87786-19.7208 5.48922-19.203 4.20496-18.5088L4.20496-24.6892C5.94672-25.1146 7.69249-25.4357 9.43836-25.6524 11.1921-25.8772 12.946-25.9895 14.7038-25.9895 19.2709-25.9895 22.5739-25.0825 24.6086-23.2766 26.6394-21.4666 27.6588-18.5328 27.6588-14.4794Z" transform="matrix(1 0 0 1.00086 136.136 733.16)"/><path d="M12.746-32.5718 12.746-25.364 21.1097-25.364 21.1097-19.5688 12.746-19.5688 12.746-8.81288C12.746-7.633 12.9788-6.83831 13.4523-6.42097 13.9219-6.00359 14.853-5.79489 16.2456-5.79489L20.4034-5.79489 20.4034 0.000287673 13.4524 0.000287673C10.2498 0.000287673 7.98232-0.665923 6.64587-2.00634 5.30542-3.34279 4.63925-5.61027 4.63925-8.8129L4.63925-19.5688 0.609868-19.5688 0.609868-25.364 4.63925-25.364 4.63925-32.5718Z" transform="matrix(1 0 0 1.00086 167.448 733.16)"/><path d="M29.2173-12.746 29.2173-10.4504 10.2586-10.4504C10.4593-8.544 11.1496-7.11529 12.3295-6.16412 13.5053-5.20895 15.1468-4.73541 17.2578-4.73541 18.9675-4.73541 20.7173-4.98424 22.5073-5.48992 24.2932-5.99158 26.1352-6.75815 28.0296-7.78555L28.0296-1.54088C26.1032-0.810458 24.1808-0.264639 22.2664 0.0965966 20.3481 0.469832 18.4337 0.658464 16.5193 0.658464 11.9281 0.658464 8.3563-0.505381 5.81172-2.84108 3.26324-5.17278 1.99101-8.44763 1.99101-12.6656 1.99101-16.7953 3.23509-20.0501 5.73138-22.426 8.23568-24.8019 11.6751-25.9899 16.0537-25.9899 20.0429-25.9899 23.2335-24.7858 25.6214-22.3779 28.0173-19.978 29.2173-16.7674 29.2173-12.746ZM20.8857-15.4429C20.8857-16.984 20.4362-18.2241 19.5372-19.1673 18.6383-20.1184 17.4664-20.596 16.0216-20.596 14.4484-20.596 13.1681-20.1505 12.1848-19.2635 11.1975-18.3846 10.5875-17.1124 10.3548-15.4428Z" transform="matrix(1 0 0 1.00086 189.629 733.16)"/><path d="M21.1584-21.6556 21.1584-35.2523 29.3134-35.2523 29.3134 0 21.1584 0 21.1584-3.67616C20.0427-2.17522 18.8147-1.0796 17.4661-0.385277 16.1175 0.309043 14.5605 0.658156 12.7946 0.658156 9.66819 0.658156 7.09968-0.581922 5.08905-3.06619 3.08643-5.54645 2.08707-8.74897 2.08707-12.6661 2.08707-16.571 3.08639-19.7656 5.08905-22.2498 7.09968-24.7421 9.66819-25.9902 12.7946-25.9902 14.5484-25.9902 16.1016-25.637 17.45-24.9307 18.8064-24.2244 20.0425-23.1327 21.1583-21.6559ZM15.8127-5.2336C17.5464-5.2336 18.8669-5.86369 19.7779-7.12793 20.6969-8.40017 21.1585-10.2463 21.1585-12.6663 21.1585-15.0823 20.697-16.9243 19.7779-18.1886 18.8668-19.4608 17.5464-20.0989 15.8127-20.0989 14.087-20.0989 12.7666-19.4608 11.8475-18.1886 10.9365-16.9243 10.483-15.0823 10.483-12.6663 10.483-10.2462 10.9365-8.40017 11.8475-7.12793 12.7666-5.86371 14.087-5.2336 15.8127-5.2336Z" transform="matrix(1 0 0 1.00086 221.097 733.16)"/><path d="M17.4022-5.2334C19.1359-5.2334 20.4564-5.86348 21.3674-7.12773 22.2864-8.39996 22.748-10.2461 22.748-12.6661 22.748-15.0821 22.2865-16.9241 21.3674-18.1884 20.4563-19.4606 19.1359-20.0987 17.4022-20.0987 15.6564-20.0987 14.32-19.4566 13.3889-18.1723 12.4659-16.8961 12.0083-15.0621 12.0083-12.6661 12.0083-10.258 12.4658-8.41599 13.3889-7.14375 14.32-5.86751 15.6564-5.2334 17.4022-5.2334ZM12.0083-21.6554C13.12-23.1323 14.3561-24.224 15.7166-24.9303 17.0731-25.6366 18.6384-25.9898 20.4042-25.9898 23.5386-25.9898 26.1071-24.7417 28.1097-22.2494 30.1203-19.7651 31.1277-16.5706 31.1277-12.6656 31.1277-8.74866 30.1204-5.54604 28.1097-3.06578 26.1071-0.581511 23.5386 0.658567 20.4042 0.658567 18.6383 0.658567 17.0731 0.309413 15.7166-0.384866 14.3561-1.09121 13.1201-2.18683 12.0083-3.67575L12.0083 0.000410962 3.90147 0.000410962 3.90147-35.2519 12.0083-35.2519Z" transform="matrix(1 0 0 1.00086 270.465 733.16)"/><path d="M0.561867-25.3646 8.66871-25.3646 15.4913-8.15554 21.2865-25.3646 29.4093-25.3646 18.7336 2.40721C17.662 5.22055 16.4099 7.19101 14.9772 8.31479 13.5525 9.44658 11.6702 10.0164 9.32646 10.0164L4.63892 10.0164 4.63892 4.68671 7.17538 4.68671C8.556 4.68671 9.55526 4.46599 10.1774 4.02854 10.8074 3.58707 11.293 2.80048 11.6382 1.66869L11.863 0.978398Z" transform="matrix(1 0 0 1.00086 303.675 733.16)"/><path d="M4.25407-33.8242 27.7878-33.8242 27.7878-27.2263 12.987-27.2263 12.987-20.9335 26.9053-20.9335 26.9053-14.3356 12.987-14.3356 12.987-6.598 28.3015-6.598 28.3015-0.000102741 4.25407-0.000102741Z" transform="matrix(1 0 0 1.00086 350.077 733.16)"/><path d="M3.62797-9.87275 3.62797-25.364 11.783-25.364 11.783-22.8275C11.783-21.455 11.771-19.7333 11.7509-17.6584 11.7389-15.5796 11.7348-14.1949 11.7348-13.5006 11.7348-11.4658 11.787-10.0011 11.8954-9.10209 11.9997-8.20311 12.1843-7.54896 12.4412-7.14365 12.7703-6.60587 13.2037-6.19651 13.7415-5.90758 14.2752-5.61862 14.8893-5.47414 15.5876-5.47414 17.2772-5.47414 18.6056-6.12028 19.5688-7.41655 20.54-8.72084 21.0297-10.5308 21.0297-12.8425L21.0297-25.3645 29.1365-25.3645 29.1365 8.21924e-05 21.0297 8.21924e-05 21.0297-3.67608C19.7976-2.18716 18.4973-1.09154 17.1287-0.385195 15.7682 0.309105 14.2632 0.658238 12.6178 0.658238 9.68404 0.658238 7.45272-0.240742 5.92363-2.0387 4.39054-3.83666 3.628-6.44534 3.628-9.87266Z" transform="matrix(1 0 0 1.00086 381.77 733.16)"/><path d="M24.4009-24.5776 24.4009-17.9637C23.2972-18.7222 22.1896-19.28 21.0778-19.6332 19.9622-19.9944 18.8144-20.179 17.6264-20.179 15.3549-20.179 13.589-19.5128 12.3289-18.1884 11.0767-16.8721 10.4507-15.03 10.4507-12.6661 10.4507-10.2902 11.0767-8.43608 12.3289-7.11175 13.5891-5.79544 15.3549-5.13718 17.6264-5.13718 18.8866-5.13718 20.0865-5.32179 21.2223-5.69905 22.3661-6.08432 23.4256-6.64619 24.4009-7.38461L24.4009-0.75466C23.1246-0.281088 21.8364 0.0680656 20.5321 0.3048 19.2238 0.537569 17.9154 0.657971 16.5991 0.657971 12.0279 0.657971 8.44804-0.513888 5.8596-2.85771 3.27907-5.20954 1.9908-8.48039 1.9908-12.6662 1.9908-16.8481 3.27907-20.1149 5.8596-22.4586 8.44815-24.8105 12.028-25.9903 16.5991-25.9903 17.9355-25.9903 19.2478-25.8699 20.5321-25.6372 21.8243-25.4004 23.1166-25.0472 24.4009-24.5777Z" transform="matrix(1 0 0 1.00086 414.803 733.16)"/><path d="M15.2662-11.4134C13.5726-11.4134 12.3004-11.1245 11.4455-10.5466 10.5987-9.97668 10.1773-9.1379 10.1773-8.02624 10.1773-6.99884 10.5184-6.18811 11.2047-5.60218 11.8869-5.02427 12.8422-4.73531 14.0621-4.73531 15.5912-4.73531 16.8754-5.28112 17.9149-6.37279 18.9623-7.47242 19.488-8.84493 19.488-10.4824L19.488-11.4135ZM27.6588-14.4796 27.6588 0.000616443 19.4877 0.000616443 19.4877-3.75578C18.3961-2.21467 17.168-1.0909 15.8116-0.38466 14.4511 0.309639 12.7976 0.658772 10.8511 0.658772 8.21842 0.658772 6.08337-0.103758 4.44589-1.63686 2.80841-3.17797 1.98978-5.16857 1.98978-7.60865 1.98978-10.5825 3.00916-12.7657 5.05596-14.1584 7.11077-15.547 10.3254-16.2452 14.7039-16.2452L19.4877-16.2452 19.4877-16.8713C19.4877-18.1556 18.978-19.0947 17.9626-19.6967 16.9433-20.2947 15.3661-20.5957 13.2269-20.5957 11.4932-20.5957 9.87583-20.4191 8.3788-20.0659 6.87786-19.7208 5.48922-19.203 4.20496-18.5088L4.20496-24.6892C5.94672-25.1146 7.69249-25.4357 9.43836-25.6524 11.1921-25.8772 12.946-25.9895 14.7038-25.9895 19.2709-25.9895 22.5739-25.0825 24.6086-23.2766 26.6394-21.4666 27.6588-18.5328 27.6588-14.4794Z" transform="matrix(1 0 0 1.00086 442.306 733.16)"/><path d="M3.90095-35.2523 12.0078-35.2523 12.0078 0 3.90095 0Z" transform="matrix(1 0 0 1.00086 473.618 733.16)"/><path d="M0.561867-25.3646 8.66871-25.3646 15.4913-8.15554 21.2865-25.3646 29.4093-25.3646 18.7336 2.40721C17.662 5.22055 16.4099 7.19101 14.9772 8.31479 13.5525 9.44658 11.6702 10.0164 9.32646 10.0164L4.63892 10.0164 4.63892 4.68671 7.17538 4.68671C8.556 4.68671 9.55526 4.46599 10.1774 4.02854 10.8074 3.58707 11.293 2.80048 11.6382 1.66869L11.863 0.978398Z" transform="matrix(1 0 0 1.00086 489.523 733.16)"/><path d="M12.0083-3.67616 12.0083 9.64826 3.90147 9.64826 3.90147-25.3637 12.0083-25.3637 12.0083-21.6553C13.12-23.1322 14.3561-24.2239 15.7166-24.9302 17.0731-25.6365 18.6384-25.9897 20.4042-25.9897 23.5386-25.9897 26.1071-24.7416 28.1097-22.2493 30.1203-19.765 31.1277-16.5705 31.1277-12.6655 31.1277-8.74856 30.1204-5.54593 28.1097-3.06567 26.1071-0.581409 23.5386 0.658669 20.4042 0.658669 18.6383 0.658669 17.0731 0.309516 15.7166-0.384763 14.3561-1.0911 13.1201-2.18673 12.0083-3.67564ZM17.4022-20.0982C15.6564-20.0982 14.32-19.4561 13.3889-18.1718 12.4659-16.8956 12.0083-15.0616 12.0083-12.6655 12.0083-10.2575 12.4658-8.41548 13.3889-7.14324 14.32-5.867 15.6564-5.23288 17.4022-5.23288 19.1359-5.23288 20.4564-5.86297 21.3674-7.12721 22.2864-8.39945 22.748-10.2456 22.748-12.6655 22.748-15.0816 22.2865-16.9236 21.3674-18.1878 20.4563-19.4601 19.1359-20.0982 17.4022-20.0982Z" transform="matrix(1 0 0 1.00086 519.767 733.16)"/></g></svg>