<?xml version="1.0" encoding="UTF-8"?>
<svg width="700pt" height="700pt" version="1.1" viewBox="0 0 700 700" xmlns="http://www.w3.org/2000/svg">
 <g>
  <path d="m350 227.89c-38.098 0-69.074 30.992-69.074 69.074 0 38.078 30.992 69.074 69.074 69.074 38.078 0 69.074-30.992 69.074-69.074 0-38.082-30.977-69.074-69.074-69.074zm0 120.66c-28.438 0-51.574-23.137-51.574-51.574s23.137-51.574 51.574-51.574 51.574 23.137 51.574 51.574c0 28.441-23.137 51.574-51.574 51.574z"/>
  <path d="m355.69 28.352c-3.2539-2.8008-8.1367-2.8008-11.375 0-64.539 55.371-101.54 135.87-101.54 220.87v137.18c-70.77 19.234-71.82 108.29-71.82 109.23 0 4.8281 3.9219 8.75 8.75 8.75h63.07v20.613c0 4.8281 3.9219 8.75 8.75 8.75h196.95c4.8281 0 8.75-3.9219 8.75-8.75v-20.633h63.07c2.3281 0 4.5508-0.92578 6.1953-2.5547s2.5547-3.8672 2.5547-6.1953c0-0.92578-1.0508-89.984-71.82-109.23v-137.18c0-84.98-36.996-165.48-101.54-220.85zm-112.91 458.52h-53.828c1.9062-19.969 10.938-67.863 53.828-82.441zm107.22-440.2c35.719 32.41 61.844 73.238 76.422 118.21h-152.83c14.562-44.973 40.688-85.801 76.406-118.21zm89.723 469.58h-179.45v-267.03c0-22.801 3.168-45.168 8.6289-66.832h162.19c5.4609 21.664 8.6289 44.031 8.6289 66.832zm71.328-29.383h-53.828v-82.441c42.891 14.594 51.922 62.473 53.828 82.441z"/>
  <path d="m350 384.61c-4.8281 0-8.75 3.9219-8.75 8.75v102.27c0 4.8281 3.9219 8.75 8.75 8.75s8.75-3.9219 8.75-8.75v-102.27c0-4.8477-3.9219-8.75-8.75-8.75z"/>
 </g>
</svg>
