<?xml version="1.0" encoding="UTF-8"?>
<svg width="700pt" height="700pt" version="1.1" viewBox="0 0 700 700" xmlns="http://www.w3.org/2000/svg">
 <g>
  <path d="m350 560c-154.39 0-280-125.61-280-280s125.61-280 280-280 280 125.61 280 280-125.61 280-280 280zm0-527.07c-136.25 0-247.07 110.81-247.07 247.07s110.81 247.07 247.07 247.07 247.07-110.81 247.07-247.07-110.81-247.07-247.07-247.07z"/>
  <path d="m350 472.5c-106.16 0-192.5-86.379-192.5-192.5 0-106.16 86.344-192.5 192.5-192.5 106.12 0 192.5 86.344 192.5 192.5 0 106.12-86.379 192.5-192.5 192.5zm0-350c-86.836 0-157.5 70.664-157.5 157.5s70.664 157.5 157.5 157.5 157.5-70.664 157.5-157.5-70.664-157.5-157.5-157.5z"/>
  <path d="m350 385c-57.891 0-105-47.109-105-105s47.109-105 105-105 105 47.109 105 105-47.109 105-105 105zm0-175c-38.605 0-70 31.395-70 70s31.395 70 70 70 70-31.395 70-70-31.395-70-70-70z"/>
 </g>
</svg>
