<?xml version="1.0" ?><svg width="24px" height="24px" viewBox="0 0 24 24" style="enable-background:new 0 0 24 24;" version="1.1" xml:space="preserve" xmlns="http://www.w3.org/2000/svg" xmlns:xlink="http://www.w3.org/1999/xlink"><style type="text/css">
	.st0{display:none;}
	.st1{display:inline;}
	.st2{opacity:0.2;fill:none;stroke:#000000;stroke-width:5.000000e-02;stroke-miterlimit:10;}
</style><g class="st0" id="grid_system"/><g id="_icons"><path d="M20.9,9.9l-2-1.4c-4.2-2.8-9.5-2.8-13.7,0l-2,1.4C2.4,10.4,2,11.1,2,12s0.4,1.6,1.1,2.1l2,1.4c2.1,1.4,4.5,2.1,6.8,2.1   s4.8-0.7,6.8-2.1l2-1.4c0.7-0.5,1.1-1.3,1.1-2.1S21.6,10.4,20.9,9.9z M8.8,15c-0.9-0.3-1.7-0.7-2.5-1.2l-2-1.4C4,12.3,4,12.1,4,12   s0-0.3,0.2-0.5l2-1.4C7.1,9.7,7.9,9.3,8.8,9c-0.7,0.8-1.2,1.9-1.2,3C7.6,13.2,8.1,14.2,8.8,15z M12,14.4c-1.3,0-2.4-1.1-2.4-2.4   s1.1-2.4,2.4-2.4s2.4,1.1,2.4,2.4S13.3,14.4,12,14.4z M19.8,12.5l-2,1.4c-0.8,0.5-1.6,0.9-2.5,1.2c0.7-0.8,1.2-1.9,1.2-3   c0-1.2-0.5-2.2-1.2-3c0.9,0.3,1.7,0.7,2.5,1.2l2,1.4C20,11.7,20,11.9,20,12S20,12.3,19.8,12.5z"/></g></svg>